<svg id="Grupo_1075838" data-name="Grupo 1075838" xmlns="http://www.w3.org/2000/svg" xmlns:xlink="http://www.w3.org/1999/xlink" width="295" height="180.484" viewBox="0 0 295 180.484">
  <defs>
    <clipPath id="clip-path">
      <rect id="Rectángulo_381254" data-name="Rectángulo 381254" width="295" height="180.484" fill="none"/>
    </clipPath>
  </defs>
  <g id="Grupo_1075837" data-name="Grupo 1075837" clip-path="url(#clip-path)">
    <path id="Trazado_828072" data-name="Trazado 828072" d="M278.391,144.408c-32.6,62.952-116.033-1.332-185.406,24.058-46.808,17.4-96.4,9.378-92.8-50.816C6.786,74.4,41.454,39.643,79.348,20.665c41.33-19,89.928-28.957,133.613-11.927,52.361,18.424,90.35,82.617,65.43,135.67" transform="translate(0 0)" fill="#fef8d9"/>
    <path id="Trazado_828073" data-name="Trazado 828073" d="M536.317,152.02h0a.2.2,0,0,1-.175-.1l-3.092-5.353a.2.2,0,0,1,0-.2l3.092-5.353a.2.2,0,0,1,.35,0l3.1,5.353a.2.2,0,0,1,0,.2l-3.1,5.353a.2.2,0,0,1-.175.1m-2.859-5.555,2.86,4.949,2.865-4.949-2.865-4.949Z" transform="translate(-280.447 -74.139)" fill="#f2e9da"/>
    <path id="Trazado_828074" data-name="Trazado 828074" d="M519.893,146.954a1.742,1.742,0,1,1,1.741-1.742,1.744,1.744,0,0,1-1.741,1.742m0-3.08a1.338,1.338,0,1,0,1.338,1.338,1.339,1.339,0,0,0-1.338-1.338" transform="translate(-272.622 -75.486)" fill="#f2e9da"/>
    <path id="Trazado_828075" data-name="Trazado 828075" d="M531.776,132.983a1.505,1.505,0,1,1,1.505-1.505,1.507,1.507,0,0,1-1.505,1.505m0-2.607a1.1,1.1,0,1,0,1.1,1.1,1.1,1.1,0,0,0-1.1-1.1" transform="translate(-278.999 -68.385)" fill="#f2e9da"/>
    <path id="Trazado_828076" data-name="Trazado 828076" d="M517.376,135.509a1.082,1.082,0,1,1,1.081-1.082,1.083,1.083,0,0,1-1.081,1.082m0-1.76a.678.678,0,1,0,.678.678.679.679,0,0,0-.678-.678" transform="translate(-271.645 -70.159)" fill="#f2e9da"/>
    <path id="Trazado_828077" data-name="Trazado 828077" d="M128.442,105.535h0a.2.2,0,0,1-.175-.1l-2.366-4.1a.2.2,0,0,1,0-.2l2.366-4.1a.2.2,0,0,1,.35,0l2.371,4.1a.2.2,0,0,1,0,.2l-2.371,4.1a.2.2,0,0,1-.175.1m-2.133-4.3,2.133,3.692,2.138-3.692-2.138-3.692Z" transform="translate(-66.228 -51.004)" fill="#f2e9da"/>
    <path id="Trazado_828078" data-name="Trazado 828078" d="M117.546,98.236a1.742,1.742,0,1,1,1.742-1.742,1.744,1.744,0,0,1-1.742,1.742m0-3.08a1.338,1.338,0,1,0,1.338,1.338,1.339,1.339,0,0,0-1.338-1.338" transform="translate(-60.93 -49.854)" fill="#f2e9da"/>
    <path id="Trazado_828079" data-name="Trazado 828079" d="M129.43,89.012a1.505,1.505,0,1,1,1.505-1.505,1.507,1.507,0,0,1-1.505,1.505m0-2.607a1.1,1.1,0,1,0,1.1,1.1,1.1,1.1,0,0,0-1.1-1.1" transform="translate(-67.307 -45.249)" fill="#f2e9da"/>
    <path id="Trazado_828080" data-name="Trazado 828080" d="M118.279,86.309a1.082,1.082,0,1,1,1.082-1.082,1.083,1.083,0,0,1-1.082,1.082m0-1.76a.678.678,0,1,0,.678.678.679.679,0,0,0-.678-.678" transform="translate(-61.662 -44.272)" fill="#f2e9da"/>
    <path id="Trazado_828081" data-name="Trazado 828081" d="M388.091,158.274h0a.2.2,0,0,1-.175-.1l-3.092-5.353a.2.2,0,0,1,0-.2l3.092-5.353a.2.2,0,0,1,.35,0l3.1,5.353a.2.2,0,0,1,0,.2l-3.1,5.353a.2.2,0,0,1-.174.1m-2.859-5.555,2.859,4.949,2.866-4.949-2.866-4.949Z" transform="translate(-202.458 -77.429)" fill="#f2e9da"/>
    <path id="Trazado_828082" data-name="Trazado 828082" d="M416.922,159.517a1.742,1.742,0,1,1,1.742-1.742,1.744,1.744,0,0,1-1.742,1.742m0-3.08a1.338,1.338,0,1,0,1.338,1.338,1.339,1.339,0,0,0-1.338-1.338" transform="translate(-218.445 -82.096)" fill="#f2e9da"/>
    <path id="Trazado_828083" data-name="Trazado 828083" d="M383.907,139.237a1.505,1.505,0,1,1,1.505-1.505,1.507,1.507,0,0,1-1.505,1.505m0-2.607a1.1,1.1,0,1,0,1.1,1.1,1.1,1.1,0,0,0-1.1-1.1" transform="translate(-201.199 -71.674)" fill="#f2e9da"/>
    <path id="Trazado_828084" data-name="Trazado 828084" d="M404.006,153.156a1.082,1.082,0,1,1,1.082-1.081,1.083,1.083,0,0,1-1.082,1.081m0-1.759a.678.678,0,1,0,.678.678.679.679,0,0,0-.678-.678" transform="translate(-211.996 -79.444)" fill="#f2e9da"/>
    <path id="Trazado_828085" data-name="Trazado 828085" d="M403.609,134.666h0a.2.2,0,0,1-.175-.1l-1.942-3.362a.2.2,0,0,1,0-.2l1.942-3.362a.2.2,0,0,1,.35,0L405.731,131a.2.2,0,0,1,0,.2l-1.947,3.362a.2.2,0,0,1-.175.1M401.9,131.1l1.709,2.959,1.713-2.959-1.713-2.958Z" transform="translate(-211.228 -67.103)" fill="#f2e9da"/>
    <path id="Trazado_828086" data-name="Trazado 828086" d="M369.31,166.741a1.082,1.082,0,1,1,1.082-1.082,1.083,1.083,0,0,1-1.082,1.082m0-1.759a.678.678,0,1,0,.678.678.678.678,0,0,0-.678-.678" transform="translate(-193.741 -86.592)" fill="#f2e9da"/>
    <path id="Trazado_828087" data-name="Trazado 828087" d="M469.845,99.755c-1.264,3.987-3.937,6.366-7.662,5.646l1.71,16.651-16.032,13.465-5.578-9.183-2.6-4.276v-4.732l-2.929-2.347a20.665,20.665,0,0,1-7.743-16.125V85.182a.552.552,0,0,0,.1.025,20.145,20.145,0,0,0,7.4-.088,24.986,24.986,0,0,0,8.138-2.617,3.459,3.459,0,0,0,1.077,2.091,5.9,5.9,0,0,0,3.962,1.29,11.209,11.209,0,0,0,5.7-1.528q1.6,3.681,3.436,7.255v.063l.019-.019a7.784,7.784,0,0,1,4.72-2.235,6.987,6.987,0,0,1,2.742.3c3.95,1.259,4.9,5.759,3.543,10.034" transform="translate(-225.719 -43.408)" fill="#f2e9da"/>
    <path id="Trazado_828088" data-name="Trazado 828088" d="M455.736,62.226l-.313,4.758a7.781,7.781,0,0,0-4.72,2.235c-.006-.013-.012-.032-.018-.044q-1.841-3.568-3.437-7.255a11.213,11.213,0,0,1-5.7,1.527,5.9,5.9,0,0,1-3.962-1.289,3.461,3.461,0,0,1-1.077-2.091,25,25,0,0,1-8.138,2.616,20.143,20.143,0,0,1-7.4.088.559.559,0,0,1-.1-.025,9.808,9.808,0,0,1-6.084-3.787,6.607,6.607,0,0,1-.419-7.029,5.7,5.7,0,0,1,6.986-2.11,7.145,7.145,0,0,1-.964-6.059,5.631,5.631,0,0,1,4.582-3.875,6.612,6.612,0,0,1,5.4,2.391,16.919,16.919,0,0,1,2.942,5.352A4.566,4.566,0,0,1,437.42,44.6a5.163,5.163,0,0,1,4.513,2.535,5.984,5.984,0,0,1,.319,5.233l4.482.075a9.182,9.182,0,0,1,9,9.784" transform="translate(-217.582 -20.971)" fill="#25292b"/>
    <path id="Trazado_828089" data-name="Trazado 828089" d="M437.1,108.736a2.05,2.05,0,1,1-2.04-2.257,2.156,2.156,0,0,1,2.04,2.257" transform="translate(-227.831 -56.023)" fill="#25292b"/>
    <path id="Trazado_828090" data-name="Trazado 828090" d="M463.271,108.736a2.05,2.05,0,1,1-2.04-2.257,2.156,2.156,0,0,1,2.04,2.257" transform="translate(-241.601 -56.023)" fill="#25292b"/>
    <path id="Trazado_828091" data-name="Trazado 828091" d="M435.55,99.848a4.836,4.836,0,0,0-4.556.839.626.626,0,0,0,.736,1.013,4.121,4.121,0,0,1,.388-.29c.066-.044.134-.084.2-.124l.024-.012.108-.054a4.171,4.171,0,0,1,.448-.183c.077-.027.154-.049.232-.072l.037-.01.129-.028a4.179,4.179,0,0,1,.48-.066c.081-.007.162-.011.242-.013h.135a4.534,4.534,0,0,1,.481.052c.08.014.159.029.237.048l.118.029.02,0,.022.007a.642.642,0,0,0,.829-.311.633.633,0,0,0-.311-.829" transform="translate(-226.629 -52.41)" fill="#25292b"/>
    <path id="Trazado_828092" data-name="Trazado 828092" d="M459.238,100.678a.643.643,0,0,0,.829.311l.023-.007.02,0,.118-.029c.079-.018.158-.034.237-.048a4.538,4.538,0,0,1,.481-.052h.135c.081,0,.162.006.242.012a4.316,4.316,0,0,1,.48.067l.129.028.037.01c.078.022.155.045.232.072a4.275,4.275,0,0,1,.448.183l.108.054.024.012c.068.039.136.081.2.124a4.128,4.128,0,0,1,.388.29.626.626,0,1,0,.736-1.013,4.835,4.835,0,0,0-4.556-.839.633.633,0,0,0-.311.829" transform="translate(-241.601 -52.41)" fill="#25292b"/>
    <path id="Trazado_828093" data-name="Trazado 828093" d="M455.213,155.605l-.2,0a6.158,6.158,0,0,1-3.912-1.661.237.237,0,0,1,.337-.333,5.778,5.778,0,0,0,3.589,1.521c2.226.07,4.5-1.037,6.712-3.28a.237.237,0,1,1,.337.333c-2.245,2.272-4.551,3.423-6.859,3.423" transform="translate(-237.307 -79.857)" fill="#25292b"/>
    <path id="Trazado_828094" data-name="Trazado 828094" d="M499.645,113.9a.237.237,0,0,1-.036-.471,5.591,5.591,0,0,0,2.928-1.3,3.724,3.724,0,0,0,1.279-2.808,2.789,2.789,0,0,0-1.617-2.465,2.22,2.22,0,0,0-2.669.83.239.239,0,0,1-.26.112.236.236,0,0,1-.182-.217,6.556,6.556,0,0,1,1.407-4.392,3.637,3.637,0,0,1,2.158-1.415,2.029,2.029,0,0,1,2.243,1.253.237.237,0,1,1-.454.136,1.544,1.544,0,0,0-1.717-.921,3.18,3.18,0,0,0-1.861,1.242,6.093,6.093,0,0,0-1.3,3.421,2.747,2.747,0,0,1,2.816-.487,3.232,3.232,0,0,1,1.912,2.889,4.205,4.205,0,0,1-1.435,3.175,6.059,6.059,0,0,1-3.174,1.422l-.036,0" transform="translate(-262.588 -53.53)" fill="#25292b"/>
    <path id="Trazado_828095" data-name="Trazado 828095" d="M452.949,132.465a.237.237,0,0,1-.059-.466,5.835,5.835,0,0,0,4.158-4.3.237.237,0,1,1,.463.1,6.319,6.319,0,0,1-4.5,4.653.231.231,0,0,1-.059.008" transform="translate(-238.192 -67.092)" fill="#25292b"/>
    <path id="Trazado_828096" data-name="Trazado 828096" d="M424.84,105.7a7.053,7.053,0,1,1,6.824-7.05,6.948,6.948,0,0,1-6.824,7.05m0-13.625a6.58,6.58,0,1,0,6.351,6.576,6.473,6.473,0,0,0-6.351-6.576" transform="translate(-219.936 -48.196)" fill="#95bfce"/>
    <path id="Trazado_828097" data-name="Trazado 828097" d="M455.995,105.7a7.053,7.053,0,1,1,6.824-7.05,6.948,6.948,0,0,1-6.824,7.05m0-13.625a6.58,6.58,0,1,0,6.351,6.576,6.473,6.473,0,0,0-6.351-6.576" transform="translate(-236.328 -48.196)" fill="#95bfce"/>
    <path id="Trazado_828098" data-name="Trazado 828098" d="M439.523,118.8a.237.237,0,0,1-.217-.332c1.451-3.334,2.764-6.772,3.9-10.219a.237.237,0,0,1,.45.148c-1.1,3.34-2.367,6.671-3.764,9.909l4.993-.264a.234.234,0,0,1,.249.224.237.237,0,0,1-.224.249l-5.374.284h-.012" transform="translate(-231.128 -56.87)" fill="#25292b"/>
    <path id="Trazado_828099" data-name="Trazado 828099" d="M476.942,99.947a.237.237,0,0,1-.057-.467l13.279-3.307a.237.237,0,1,1,.115.46L477,99.94a.24.24,0,0,1-.057.007" transform="translate(-250.815 -50.597)" fill="#95bfce"/>
    <path id="Trazado_828100" data-name="Trazado 828100" d="M447.644,106.453h-1.587a.237.237,0,1,1,0-.474h1.587a.237.237,0,0,1,0,.474" transform="translate(-234.566 -55.76)" fill="#95bfce"/>
    <path id="Trazado_828101" data-name="Trazado 828101" d="M469.63,253.135l-.186-.02-11.028-1.1-4.149-.416.368,4.2.978,11.076H360.162l2.8-19.127,1.014-6.924h-8.536l.5-3.187,3.045-19.6,3.155-20.3.586-3.761a29.562,29.562,0,0,1,22.379-24.225l6.589-1.568,9.279-2.205,3.809,6.261,4.375,7.195,16.033-13.464,2,.424,14.146,2.989,7.53,1.592a25.944,25.944,0,0,1,5.68,1.9,26.289,26.289,0,0,1,14.312,17.014c.024.081.048.166.069.246l3.47,13.351,3.591,13.831,3.534,13.6,2.129,8.193a11.249,11.249,0,0,1-12.017,14.033" transform="translate(-187.015 -87.32)" fill="#95bfce"/>
    <path id="Trazado_828102" data-name="Trazado 828102" d="M362.966,248.214l1.014-6.924h-8.536l.5-3.187,71.246-71.246,14.147,2.99Z" transform="translate(-187.015 -87.791)" fill="#75adbc"/>
    <path id="Trazado_828103" data-name="Trazado 828103" d="M408.717,172.24l-45.8,45.8,3.155-20.3,29.553-29.553,9.279-2.206Z" transform="translate(-190.948 -87.329)" fill="#75adbc"/>
    <path id="Trazado_828104" data-name="Trazado 828104" d="M512.833,230.035,449.44,293.427H432.3l76.99-76.989c.024.081.049.166.069.246Z" transform="translate(-227.454 -113.878)" fill="#75adbc"/>
    <path id="Trazado_828105" data-name="Trazado 828105" d="M469.768,188.1,383.33,274.535H366.194l94-94a26.313,26.313,0,0,1,9.57,7.566" transform="translate(-192.671 -94.985)" fill="#75adbc"/>
    <path id="Trazado_828106" data-name="Trazado 828106" d="M596.21,336.037l-.186-.02,12.49-12.49a11.264,11.264,0,0,1-12.3,12.51" transform="translate(-313.594 -170.222)" fill="#75adbc"/>
    <path id="Trazado_828107" data-name="Trazado 828107" d="M537.227,309.025l-4.149-.416.368,4.2L522.37,323.883H505.234L554.8,274.322l3.535,13.6Z" transform="translate(-265.826 -144.333)" fill="#75adbc"/>
    <path id="Trazado_828108" data-name="Trazado 828108" d="M549.536,271.549a.238.238,0,0,1-.227-.166l-8.084-25.846a.237.237,0,0,1,.453-.141l8.084,25.846a.238.238,0,0,1-.156.3.243.243,0,0,1-.071.01" transform="translate(-284.757 -129.026)" fill="#25292b"/>
    <path id="Trazado_828109" data-name="Trazado 828109" d="M558.241,346.215h-.019l-4.943-.4a.236.236,0,0,1-.217-.255.24.24,0,0,1,.255-.217l4.943.4a.237.237,0,0,1-.019.473" transform="translate(-290.989 -181.699)" fill="#25292b"/>
    <path id="Trazado_828110" data-name="Trazado 828110" d="M553.3,297.358a.237.237,0,0,1-.058-.466l15.05-3.784a.237.237,0,0,1,.116.46l-15.05,3.784a.246.246,0,0,1-.058.007" transform="translate(-290.99 -154.213)" fill="#25292b"/>
    <rect id="Rectángulo_381239" data-name="Rectángulo 381239" width="87.591" height="57.103" transform="translate(167.307 111.499)" fill="#4888a3"/>
    <path id="Trazado_828111" data-name="Trazado 828111" d="M498.863,297.467a2.563,2.563,0,0,0,1.091,3.427l3.166,2.625a39.8,39.8,0,0,0,15.891,8.016l3.644.222.815-20.678-.519-1.468a15.8,15.8,0,0,0-4.136-6.287l-2.335-2.265-.036,5.866-11.344-5.1a2.546,2.546,0,0,0-2.476,4.426,2.538,2.538,0,0,0-2.064,4.549,2.543,2.543,0,0,0-1.892,4.716l1.61.722a2.569,2.569,0,0,0-1.414,1.229" transform="translate(-261.581 -147.878)" fill="#f2e9da"/>
    <path id="Trazado_828112" data-name="Trazado 828112" d="M516.866,296.049a.236.236,0,0,1-.1-.024l-8.447-4.061a.237.237,0,0,1,.206-.427l8.447,4.062a.237.237,0,0,1-.1.45" transform="translate(-267.377 -153.378)" fill="#25292b"/>
    <path id="Trazado_828113" data-name="Trazado 828113" d="M511.687,305.5a.236.236,0,0,1-.109-.027l-7.623-3.916a.237.237,0,1,1,.217-.421l7.623,3.917a.237.237,0,0,1-.109.447" transform="translate(-265.086 -158.429)" fill="#25292b"/>
    <path id="Trazado_828114" data-name="Trazado 828114" d="M508.879,315.929a.237.237,0,0,1-.111-.028l-5.411-2.864a.237.237,0,0,1,.222-.419l5.411,2.864a.237.237,0,0,1-.11.446" transform="translate(-264.772 -164.468)" fill="#25292b"/>
    <path id="Trazado_828115" data-name="Trazado 828115" d="M339.572,285.136a2.255,2.255,0,0,1,2.08-2.405l6.235.006a2.255,2.255,0,0,1,2.405,2.08,2.254,2.254,0,0,1-2.08,2.4l-6.234-.006a2.254,2.254,0,0,1-2.405-2.077" transform="translate(-178.661 -148.757)" fill="#f2e9da"/>
    <path id="Trazado_828116" data-name="Trazado 828116" d="M338.287,293.786a2.657,2.657,0,0,1,2.452-2.831l7.178-.063a2.646,2.646,0,1,1,.383,5.279l-7.178.063a2.654,2.654,0,0,1-2.835-2.448" transform="translate(-177.984 -153.048)" fill="#f2e9da"/>
    <path id="Trazado_828117" data-name="Trazado 828117" d="M338.915,304.212a2.658,2.658,0,0,1,2.452-2.835l7.178-.063a2.658,2.658,0,0,1,2.835,2.452,2.621,2.621,0,0,1-.641,1.919,2.655,2.655,0,0,1-1.811.912l-7.178.062a2.656,2.656,0,0,1-2.835-2.447" transform="translate(-178.315 -158.531)" fill="#f2e9da"/>
    <path id="Trazado_828118" data-name="Trazado 828118" d="M339.468,313.779a2.462,2.462,0,0,1,.761-1.928,3.32,3.32,0,0,1,2.1-.933l6.289,0a2.886,2.886,0,0,1,3.245,2.418,2.474,2.474,0,0,1-.761,1.932,3.3,3.3,0,0,1-2.1.933l-6.289,0a2.886,2.886,0,0,1-3.245-2.422" transform="translate(-178.606 -163.584)" fill="#f2e9da"/>
    <path id="Trazado_828119" data-name="Trazado 828119" d="M341.84,311.833a.237.237,0,0,1,0-.474l9.677-.192a.237.237,0,0,1,.009.474l-9.677.192Z" transform="translate(-179.732 -163.719)" fill="#25292b"/>
    <path id="Trazado_828120" data-name="Trazado 828120" d="M341.794,301.86a.237.237,0,0,1-.007-.474l9.2-.271a.235.235,0,0,1,.244.23.237.237,0,0,1-.23.244l-9.2.271Z" transform="translate(-179.708 -158.43)" fill="#25292b"/>
    <path id="Trazado_828121" data-name="Trazado 828121" d="M350.161,291.414h-8.676a.237.237,0,0,1,0-.474h8.676a.237.237,0,0,1,0,.474" transform="translate(-179.546 -153.076)" fill="#25292b"/>
    <path id="Trazado_828122" data-name="Trazado 828122" d="M390.02,290.748a1.662,1.662,0,0,1-1.041-.365l-14.5-11.583a1.669,1.669,0,0,1,0-2.609l14.315-11.435a1.669,1.669,0,1,1,2.084,2.609L378.194,277.5l12.868,10.279a1.669,1.669,0,0,1-1.043,2.973" transform="translate(-196.699 -139.108)" fill="#f2e9da"/>
    <path id="Trazado_828123" data-name="Trazado 828123" d="M452.984,290.748a1.669,1.669,0,0,1-1.043-2.973L464.81,277.5l-12.682-10.131a1.669,1.669,0,1,1,2.084-2.609l14.315,11.435a1.669,1.669,0,0,1,0,2.609l-14.5,11.583a1.661,1.661,0,0,1-1.041.365" transform="translate(-237.456 -139.108)" fill="#f2e9da"/>
    <path id="Trazado_828124" data-name="Trazado 828124" d="M422.429,290.393a1.67,1.67,0,0,1-1.821-2.146l8.974-29.173a1.669,1.669,0,0,1,3.191.981L423.8,289.229a1.669,1.669,0,0,1-1.371,1.164" transform="translate(-221.262 -135.69)" fill="#f2e9da"/>
    <path id="Trazado_828125" data-name="Trazado 828125" d="M189.916,298.163a6.1,6.1,0,0,1-7.693-2.328c-21.5-34.516-39.453-32.018-39.632-31.988.1-.017.151-.03.151-.03l-2.6-11.908c.748-.163,7.593-1.466,17.553,2.982,12.3,5.494,24.035,17.1,34.872,34.5a6.094,6.094,0,0,1-1.95,8.4,6.177,6.177,0,0,1-.7.377" transform="translate(-73.736 -132.381)" fill="#25292b"/>
    <rect id="Rectángulo_381240" data-name="Rectángulo 381240" width="28.332" height="20.793" transform="translate(31.533 158.777)" fill="#366985"/>
    <path id="Trazado_828126" data-name="Trazado 828126" d="M16.194,262.014a37.9,37.9,0,0,1,.432-5.756A15.16,15.16,0,0,1,31.6,243.343H75.033A15.018,15.018,0,0,1,89.92,255.77a38,38,0,0,1,.51,6.244c0,20.749-16.621,32.051-37.121,32.051a51.925,51.925,0,0,1-7.391-.515c-16.954-2.421-29.725-13.347-29.725-31.536" transform="translate(-8.52 -128.033)" fill="#f2e9da"/>
    <path id="Trazado_828127" data-name="Trazado 828127" d="M122.42,261.76H89.586a1.831,1.831,0,1,1,0-3.663H122.42a1.831,1.831,0,1,1,0,3.663" transform="translate(-46.172 -135.796)" fill="#95bfce"/>
    <path id="Trazado_828128" data-name="Trazado 828128" d="M122.42,273.226H89.586a1.831,1.831,0,1,1,0-3.663H122.42a1.831,1.831,0,1,1,0,3.663" transform="translate(-46.172 -141.829)" fill="#95bfce"/>
    <path id="Trazado_828129" data-name="Trazado 828129" d="M75.183,262.964a4.26,4.26,0,1,1-4.26-4.26,4.26,4.26,0,0,1,4.26,4.26" transform="translate(-35.074 -136.116)" fill="#366985"/>
    <path id="Trazado_828130" data-name="Trazado 828130" d="M52.729,291.831a.231.231,0,0,1-.138-.045c-4.975-3.594-5.039-10.787-5.039-10.86V248.4a.237.237,0,1,1,.474,0v32.521c0,.07.067,7.026,4.843,10.476a.237.237,0,0,1-.139.429" transform="translate(-25.019 -130.572)" fill="#25292b"/>
    <path id="Trazado_828131" data-name="Trazado 828131" d="M12.385,276.511h0a7.566,7.566,0,0,1-7.544-7.544V254.15a7.544,7.544,0,1,1,15.088,0v14.817a7.566,7.566,0,0,1-7.544,7.544" transform="translate(-2.547 -129.75)" fill="#95bfce"/>
    <path id="Trazado_828132" data-name="Trazado 828132" d="M101.956,259.051a48.541,48.541,0,0,1-4.286,11.008c-5.421,10.006-16.9,21.927-40.739,21.927-22.941,0-35.463-7.744-41.934-14.243A36.237,36.237,0,0,1,9,269.84a6.084,6.084,0,1,1,10.567-6.031c3.219,5.845,12.4,15.989,37.362,15.989,14.328,0,24.431-5.231,30.026-15.552a36.483,36.483,0,0,0,3.208-8.277,6.094,6.094,0,0,1,11.791,3.082" transform="translate(-4.296 -132.289)" fill="#366985"/>
    <path id="Trazado_828133" data-name="Trazado 828133" d="M198.649,241.994a5.428,5.428,0,1,1-5.428-5.428,5.427,5.427,0,0,1,5.428,5.428" transform="translate(-98.807 -124.468)" fill="#95bfce"/>
    <path id="Trazado_828134" data-name="Trazado 828134" d="M188.685,218.212a16.1,16.1,0,0,1-12.413-22.836l.31-.656A3.6,3.6,0,0,1,183.1,197.8l-.31.656a8.9,8.9,0,1,0,16.1,7.6l.31-.656a3.6,3.6,0,1,1,6.513,3.076l-.31.656a16.131,16.131,0,0,1-16.708,9.084" transform="translate(-91.929 -101.364)" fill="#f2e9da"/>
    <path id="Trazado_828135" data-name="Trazado 828135" d="M95.87,228.772H84.645v6.367a5.613,5.613,0,1,0,11.225,0Z" transform="translate(-44.535 -120.367)" fill="#25292b"/>
    <path id="Trazado_828136" data-name="Trazado 828136" d="M77.47,188.33h-32.9a18.7,18.7,0,1,1,0-37.395h32.9a18.7,18.7,0,0,1,0,37.395" transform="translate(-13.611 -79.414)" fill="#f2e9da"/>
    <path id="Trazado_828137" data-name="Trazado 828137" d="M97.579,188.33H82.786a18.7,18.7,0,1,1,0-37.395H97.579a18.7,18.7,0,0,1,0,37.395" transform="translate(-33.72 -79.414)" fill="#366985"/>
    <path id="Trazado_828138" data-name="Trazado 828138" d="M38.166,173.035h0a7.039,7.039,0,0,1-7.019-7.018v-12.8a7.019,7.019,0,0,1,14.038,0v12.8a7.039,7.039,0,0,1-7.019,7.018" transform="translate(-16.388 -76.92)" fill="#95bfce"/>
    <path id="Trazado_828139" data-name="Trazado 828139" d="M41.54,173.618a3.985,3.985,0,0,1-3.98-3.98v-8.31a3.98,3.98,0,0,1,7.96,0v8.31a3.985,3.985,0,0,1-3.98,3.98m0-15.8a3.51,3.51,0,0,0-3.506,3.506v8.31a3.506,3.506,0,0,0,7.012,0v-8.31a3.51,3.51,0,0,0-3.506-3.506" transform="translate(-19.762 -82.788)" fill="#25292b"/>
    <path id="Trazado_828140" data-name="Trazado 828140" d="M45.7,157.178a.237.237,0,0,1-.237-.237v-15.59a.237.237,0,0,1,.474,0v15.59a.237.237,0,0,1-.237.237" transform="translate(-23.918 -74.246)" fill="#25292b"/>
    <path id="Trazado_828141" data-name="Trazado 828141" d="M45.467,119.052a4.455,4.455,0,1,1-4.455-4.454,4.455,4.455,0,0,1,4.455,4.454" transform="translate(-19.235 -60.295)" fill="#366985"/>
    <path id="Trazado_828142" data-name="Trazado 828142" d="M104.022,178.54a6.222,6.222,0,1,1-6.212-6.571,6.4,6.4,0,0,1,6.212,6.571" transform="translate(-48.194 -90.48)" fill="#95bfce"/>
    <path id="Trazado_828143" data-name="Trazado 828143" d="M156.461,178.54a6.222,6.222,0,1,1-6.212-6.571,6.4,6.4,0,0,1,6.212,6.571" transform="translate(-75.784 -90.48)" fill="#95bfce"/>
    <path id="Trazado_828144" data-name="Trazado 828144" d="M36.427,123.051a8.584,8.584,0,1,1,8.584-8.584,8.594,8.594,0,0,1-8.584,8.584m0-16.695a8.111,8.111,0,1,0,8.111,8.111,8.12,8.12,0,0,0-8.111-8.111" transform="translate(-14.649 -55.709)" fill="#25292b"/>
    <path id="Trazado_828145" data-name="Trazado 828145" d="M257.674,265.783l-16.368,51.286H165.843l17.022-53.342a3.388,3.388,0,0,1,3.224-2.355H254.45a3.384,3.384,0,0,1,3.224,4.411" transform="translate(-87.257 -137.519)" fill="#25292b"/>
    <path id="Trazado_828146" data-name="Trazado 828146" d="M165.035,370.857v3.817H82.35a3.817,3.817,0,0,1,3.817-3.817Z" transform="translate(-43.328 -195.124)" fill="#25292b"/>
    <path id="Trazado_828147" data-name="Trazado 828147" d="M243.457,317.276H173.64a.237.237,0,0,1-.225-.312l16.17-48.231a.237.237,0,0,1,.45.151L173.969,316.8h69.488a.237.237,0,0,1,0,.474" transform="translate(-91.235 -141.307)" fill="#f2e9da"/>
    <path id="Trazado_828148" data-name="Trazado 828148" d="M302.717,379.377c0,.128-.1.244-.275.329a1.506,1.506,0,0,1-.659.137H39.49c-.512,0-.933-.211-.933-.467,0-.13.1-.246.274-.332a1.508,1.508,0,0,1,.659-.137H301.784c.512,0,.933.211.933.469" transform="translate(-20.287 -199.36)" fill="#25292b"/>
    <path id="Trazado_828149" data-name="Trazado 828149" d="M174.506,84.235a1.041,1.041,0,0,1-.652-.229l-9.085-7.257a1.046,1.046,0,0,1,0-1.634l8.969-7.164a1.046,1.046,0,0,1,1.305,1.634L167.1,75.932l8.062,6.44a1.046,1.046,0,0,1-.653,1.863" transform="translate(-86.485 -35.632)" fill="#366985"/>
    <path id="Trazado_828150" data-name="Trazado 828150" d="M213.953,84.235a1.046,1.046,0,0,1-.653-1.863l8.062-6.44-7.946-6.347a1.046,1.046,0,1,1,1.305-1.634l8.969,7.164a1.046,1.046,0,0,1,0,1.634L214.6,84.006a1.041,1.041,0,0,1-.652.229" transform="translate(-112.019 -35.632)" fill="#366985"/>
    <path id="Trazado_828151" data-name="Trazado 828151" d="M194.811,84.012a1.03,1.03,0,0,1-.448-.036,1.046,1.046,0,0,1-.692-1.307l5.622-18.277a1.046,1.046,0,0,1,2,.615L195.67,83.284a1.045,1.045,0,0,1-.859.729" transform="translate(-101.874 -33.491)" fill="#366985"/>
    <path id="Trazado_828152" data-name="Trazado 828152" d="M162.238,93.664a.237.237,0,0,1-.237-.236l-.04-9.071h-4.268a3.048,3.048,0,0,1-3.045-3.045V57.282a3.048,3.048,0,0,1,3.045-3.045h36.178a3.048,3.048,0,0,1,3.044,3.045V81.313a3.048,3.048,0,0,1-3.044,3.045H173.633L162.388,93.61a.238.238,0,0,1-.151.054m-4.545-38.953a2.574,2.574,0,0,0-2.571,2.571V81.313a2.574,2.574,0,0,0,2.571,2.571h4.5a.237.237,0,0,1,.237.236l.039,8.807L173.4,83.937a.237.237,0,0,1,.151-.054h20.323a2.573,2.573,0,0,0,2.57-2.571V57.282a2.573,2.573,0,0,0-2.57-2.571Z" transform="translate(-81.367 -28.536)" fill="#25292b"/>
    <path id="Trazado_828153" data-name="Trazado 828153" d="M354.28,52.644a.238.238,0,0,1-.133-.041l-8.747-5.93a17.1,17.1,0,1,1,9.322-15.232,16.926,16.926,0,0,1-3.369,10.19l3.154,10.708a.237.237,0,0,1-.227.3m-8.863-6.483a.235.235,0,0,1,.133.041l8.317,5.638-3-10.188a.237.237,0,0,1,.038-.209,16.46,16.46,0,0,0,3.345-10,16.61,16.61,0,1,0-8.941,14.746.235.235,0,0,1,.109-.027" transform="translate(-168.644 -7.548)" fill="#25292b"/>
    <path id="Trazado_828154" data-name="Trazado 828154" d="M355.17,35.344a13.039,13.039,0,1,1-13.039-13.039A13.039,13.039,0,0,1,355.17,35.344" transform="translate(-173.15 -11.736)" fill="#4888a3"/>
    <path id="Trazado_828155" data-name="Trazado 828155" d="M345.639,49.416l-7.7-7.7,3.663-3.662,4.036,4.037,8.409-8.408,3.662,3.663Z" transform="translate(-177.805 -17.722)" fill="#f2e9da"/>
    <path id="Trazado_828156" data-name="Trazado 828156" d="M268.669,153.1v3.377h-79.2V153.1a3.4,3.4,0,0,1,3.406-3.405h72.393a3.4,3.4,0,0,1,3.405,3.405" transform="translate(-99.686 -78.762)" fill="#4888a3"/>
    <path id="Trazado_828157" data-name="Trazado 828157" d="M265,198.19H192.607a3.647,3.647,0,0,1-3.643-3.643V152.84a3.647,3.647,0,0,1,3.643-3.643H265a3.647,3.647,0,0,1,3.643,3.643v41.708A3.647,3.647,0,0,1,265,198.19m-72.392-48.519a3.173,3.173,0,0,0-3.169,3.169v41.708a3.173,3.173,0,0,0,3.169,3.169H265a3.173,3.173,0,0,0,3.169-3.169V152.84A3.173,3.173,0,0,0,265,149.671Z" transform="translate(-99.422 -78.499)" fill="#25292b"/>
    <rect id="Rectángulo_381241" data-name="Rectángulo 381241" width="7.486" height="2.262" transform="translate(158.617 73.487)" fill="#f2e9da"/>
    <rect id="Rectángulo_381242" data-name="Rectángulo 381242" width="10.983" height="10.983" transform="translate(152.222 80.224)" fill="#f2e9da"/>
    <rect id="Rectángulo_381243" data-name="Rectángulo 381243" width="10.983" height="10.983" transform="translate(152.222 93.486)" fill="#f2e9da"/>
    <rect id="Rectángulo_381244" data-name="Rectángulo 381244" width="10.983" height="10.983" transform="translate(152.222 106.363)" fill="#f2e9da"/>
    <path id="Trazado_828158" data-name="Trazado 828158" d="M326.227,179.57l-3.926-3.927,2-2,1.927,1.927,4.054-4.053,2,2Z" transform="translate(-169.577 -90.243)" fill="#4888a3"/>
    <path id="Trazado_828159" data-name="Trazado 828159" d="M326.227,208.433l-3.926-3.927,2-2,1.927,1.927,4.054-4.053,2,2Z" transform="translate(-169.577 -105.429)" fill="#4888a3"/>
    <path id="Trazado_828160" data-name="Trazado 828160" d="M326.227,234.858l-3.926-3.927,2-2,1.927,1.927,4.054-4.053,2,2Z" transform="translate(-169.577 -119.332)" fill="#4888a3"/>
    <rect id="Rectángulo_381245" data-name="Rectángulo 381245" width="52.705" height="2.171" transform="translate(97.677 80.919)" fill="#95bfce"/>
    <rect id="Rectángulo_381246" data-name="Rectángulo 381246" width="52.705" height="2.171" transform="translate(97.677 85.036)" fill="#95bfce"/>
    <rect id="Rectángulo_381247" data-name="Rectángulo 381247" width="23.713" height="2.171" transform="translate(126.669 89.075)" fill="#95bfce"/>
    <rect id="Rectángulo_381248" data-name="Rectángulo 381248" width="52.705" height="2.171" transform="translate(97.677 93.814)" fill="#95bfce"/>
    <rect id="Rectángulo_381249" data-name="Rectángulo 381249" width="52.705" height="2.171" transform="translate(97.677 97.931)" fill="#95bfce"/>
    <rect id="Rectángulo_381250" data-name="Rectángulo 381250" width="23.713" height="2.171" transform="translate(126.669 101.97)" fill="#95bfce"/>
    <rect id="Rectángulo_381251" data-name="Rectángulo 381251" width="52.705" height="2.171" transform="translate(97.677 106.934)" fill="#95bfce"/>
    <rect id="Rectángulo_381252" data-name="Rectángulo 381252" width="52.705" height="2.171" transform="translate(97.677 111.052)" fill="#95bfce"/>
    <rect id="Rectángulo_381253" data-name="Rectángulo 381253" width="23.713" height="2.171" transform="translate(126.669 115.091)" fill="#95bfce"/>
    <path id="Trazado_828161" data-name="Trazado 828161" d="M283.421,93.757a5.407,5.407,0,0,1-5.4-5.4V58.807a4.368,4.368,0,1,0-8.737,0v19.4a4.761,4.761,0,0,1-4.756,4.756h-.168a4.761,4.761,0,0,1-4.756-4.756v-11.4a3.947,3.947,0,1,0-7.895,0V91.115a.4.4,0,1,1-.808,0V66.808a4.755,4.755,0,1,1,9.511,0v11.4a3.952,3.952,0,0,0,3.948,3.948h.168a3.952,3.952,0,0,0,3.948-3.948v-19.4a5.176,5.176,0,1,1,10.353,0V88.356a4.593,4.593,0,0,0,9.187,0V77.523a5.251,5.251,0,1,1,10.5,0V88.878a.4.4,0,0,1-.808,0V77.523a4.443,4.443,0,0,0-8.887,0V88.356a5.407,5.407,0,0,1-5.4,5.4" transform="translate(-132.01 -28.217)" fill="#95bfce"/>
    <path id="Trazado_828162" data-name="Trazado 828162" d="M259.926,69.362a2.477,2.477,0,1,1-2.477-2.477,2.477,2.477,0,0,1,2.477,2.477" transform="translate(-134.152 -35.191)" fill="#4888a3"/>
    <path id="Trazado_828163" data-name="Trazado 828163" d="M288.094,90.282a2.477,2.477,0,1,1-2.477-2.477,2.477,2.477,0,0,1,2.477,2.477" transform="translate(-148.972 -46.198)" fill="#4888a3"/>
    <path id="Trazado_828164" data-name="Trazado 828164" d="M309.567,60.106a2.477,2.477,0,1,1-2.477-2.477,2.477,2.477,0,0,1,2.477,2.477" transform="translate(-160.27 -30.321)" fill="#4888a3"/>
    <path id="Trazado_828165" data-name="Trazado 828165" d="M318.744,134.046a2.477,2.477,0,1,1-2.477-2.477,2.477,2.477,0,0,1,2.477,2.477" transform="translate(-165.099 -69.224)" fill="#4888a3"/>
    <path id="Trazado_828166" data-name="Trazado 828166" d="M350.263,123.618a2.477,2.477,0,1,1-2.477-2.477,2.477,2.477,0,0,1,2.477,2.477" transform="translate(-181.682 -63.738)" fill="#4888a3"/>
    <path id="Trazado_828167" data-name="Trazado 828167" d="M251.44,130.335a2.477,2.477,0,1,1-2.477-2.477,2.477,2.477,0,0,1,2.477,2.477" transform="translate(-129.687 -67.272)" fill="#4888a3"/>
  </g>
</svg>
