<svg xmlns="http://www.w3.org/2000/svg" width="80" height="80" viewBox="0 0 80 80">
  <g id="Grupo_1065506" data-name="Grupo 1065506" transform="translate(-285 -1584)">
    <rect id="Rectángulo_374183" data-name="Rectángulo 374183" width="80" height="80" rx="5" transform="translate(285 1584)" fill="#f7cd00"/>
    <g id="machine-learning" transform="translate(294 1593)">
      <path id="Trazado_828170" data-name="Trazado 828170" d="M37.161,58v3.871H12V58H37.161Z" transform="translate(-0.355 -1.839)" fill="#969faa"/>
      <g id="Grupo_1075839" data-name="Grupo 1075839" transform="translate(11.645 48.419)">
        <path id="Trazado_828171" data-name="Trazado 828171" d="M36.339,55.074l1.4,2.8H30V54h4.606a1.936,1.936,0,0,1,1.732,1.074Z" transform="translate(-12.581 -50.129)" fill="#aab2bd"/>
        <path id="Trazado_828172" data-name="Trazado 828172" d="M29.677,53.871v3.871H20V50h9.677Z" transform="translate(-12.258 -50)" fill="#aab2bd"/>
        <path id="Trazado_828173" data-name="Trazado 828173" d="M13.4,55.074A1.935,1.935,0,0,1,15.135,54h4.606v3.871H12Z" transform="translate(-12 -50.129)" fill="#aab2bd"/>
      </g>
      <path id="Trazado_828174" data-name="Trazado 828174" d="M46.516,42v3.871a3.87,3.87,0,0,1-3.871,3.871H5.871A3.87,3.87,0,0,1,2,45.871V42H15.548v1.935a1.941,1.941,0,0,0,1.935,1.935H31.032a1.941,1.941,0,0,0,1.935-1.935V42Z" transform="translate(-0.032 -1.323)" fill="#ccd1d9"/>
      <path id="Trazado_828175" data-name="Trazado 828175" d="M16,42v1.935a1.941,1.941,0,0,0,1.935,1.935H31.484a1.941,1.941,0,0,0,1.935-1.935V42Z" transform="translate(-0.484 -1.323)" fill="#ff826e"/>
      <path id="Trazado_828176" data-name="Trazado 828176" d="M42.645,25.742a5.8,5.8,0,0,1,3.871-5.469V18H5.871A3.871,3.871,0,0,0,2,21.871V41.226H46.516V31.211A5.8,5.8,0,0,1,42.645,25.742Z" transform="translate(-0.032 -0.548)" fill="#69d6f4"/>
      <path id="Trazado_828177" data-name="Trazado 828177" d="M58.161,2V17.484l-.01.019-2.545-2.545-2.3,1.394c-.1-.048-.194-.077-.29-.116l-.658-2.623H46.548l-.658,2.623c-.1.039-.194.068-.29.116l-2.3-1.394-2.526,2.526H33V2Z" transform="translate(-1.032 -0.032)" fill="#e6e9ed"/>
      <path id="Trazado_828178" data-name="Trazado 828178" d="M21.677,26v2.9A4.839,4.839,0,1,1,12,28.9V26h9.677Z" transform="translate(-0.355 -0.806)" fill="#aab2bd"/>
      <path id="Trazado_828179" data-name="Trazado 828179" d="M16.613,2A11.6,11.6,0,0,0,5,13.613v.029a11.71,11.71,0,0,0,.658,3.852A11.581,11.581,0,0,0,8.4,21.848l3.377,3.377h9.677l3.377-3.377a11.659,11.659,0,0,0,3.4-8.206v-.029A11.61,11.61,0,0,0,16.613,2Z" transform="translate(-0.129 -0.032)" fill="#ffeaa7"/>
      <path id="Trazado_828180" data-name="Trazado 828180" d="M14.806,12.9v2.9H11.9a2.9,2.9,0,1,1,2.9-2.9Z" transform="translate(-0.258 -0.29)" fill="#fcd770"/>
      <path id="Trazado_828181" data-name="Trazado 828181" d="M23.955,10.852A2.9,2.9,0,0,1,21.9,15.806H19V12.9a2.9,2.9,0,0,1,4.955-2.052Z" transform="translate(-0.581 -0.29)" fill="#fcd770"/>
      <path id="Trazado_828182" data-name="Trazado 828182" d="M38,27.548h6.135a5.806,5.806,0,1,0,.01-3.9l-6.126.019,2.6-1.616c.039-.1.068-.194.116-.29l-1.394-2.3,1.587-1.587,2.526-2.526,2.3,1.394c.1-.048.194-.077.29-.116L46.71,14h5.806l.658,2.623c.1.039.194.068.29.116l2.3-1.394,2.545,2.545,1.568,1.568-1.394,2.3c.048.1.077.194.116.29l2.623.658v5.806l-2.623.658c-.039.1-.068.194-.116.29l1.394,2.3-4.113,4.113-2.3-1.394c-.1.048-.194.077-.29.116l-.658,2.623H46.71L46.052,34.6c-.1-.039-.194-.068-.29-.116l-2.3,1.394-4.113-4.113,1.394-2.3c-.048-.1-.077-.194-.116-.29Z" transform="translate(-1.194 -0.419)" fill="#ffc729"/>
      <path id="Trazado_828183" data-name="Trazado 828183" d="M61,21.535l-2.338-.584,1.24-2.065L58.1,17.08V1H31V16.484H28.72a12.785,12.785,0,0,0,.345-2.9A12.581,12.581,0,1,0,4.312,16.749,4.857,4.857,0,0,0,1,21.323V44.548a4.844,4.844,0,0,0,4.839,4.839H18.419v1.935H14.777a2.89,2.89,0,0,0-2.6,1.6l-1.5,3.006V61h27.1V55.933l-1.5-3a2.888,2.888,0,0,0-2.6-1.605H30.032V49.387H42.613a4.844,4.844,0,0,0,4.839-4.839V37.774h4.627l.584-2.337,2.067,1.239L59.9,31.5l-1.239-2.066L61,28.853ZM32.935,2.935H56.161V15.144L54.729,13.71l-2.067,1.24-.584-2.337H44.76l-.584,2.338-2.067-1.24-2.772,2.773h-6.4ZM37.4,18.419l-.465.465,1.38,2.3-1.766,1.094L31,22.29l0,1.935L43.634,24.2l.229-.64a4.84,4.84,0,1,1-.007,3.248l-.228-.645H33.9a2.907,2.907,0,0,0-2.9,2.9v5.806a.968.968,0,1,1-1.935,0V32.935a2.9,2.9,0,0,0-5.806,0v1.935a.968.968,0,0,1-.968.968H18.419a.968.968,0,0,1-.968-.968V33.816A5.81,5.81,0,0,0,22.29,28.1v-2.5l3.089-3.089a12.569,12.569,0,0,0,2.735-4.086Zm-24.79,7.742h7.742V28.1a3.871,3.871,0,1,1-7.742,0Zm.968-11.613H11.645a1.935,1.935,0,1,1,1.935-1.935Zm3.871,9.677H15.516V16.484h1.935Zm-.968-21.29a10.665,10.665,0,0,1,7.527,18.2l-3.089,3.09H19.387V16.484h1.935a3.871,3.871,0,1,0-3.871-3.871v1.935H15.516V12.613a3.871,3.871,0,1,0-3.871,3.871h1.935v7.742H12.046L8.957,21.137a10.665,10.665,0,0,1,7.527-18.2Zm2.9,11.613V12.613a1.935,1.935,0,1,1,1.935,1.935Zm-4.61,38.71h3.643v1.935H13.211l.7-1.4A.961.961,0,0,1,14.777,53.258Zm-2.164,5.806V57.129H35.839v1.935Zm21.062-5.806a.962.962,0,0,1,.866.535l.7,1.4H30.032V53.258ZM28.1,55.194H20.355V49.387H28.1Zm14.516-7.742H5.839a2.907,2.907,0,0,1-2.9-2.9v-2.9H14.548v.968a2.907,2.907,0,0,0,2.9,2.9H31a2.907,2.907,0,0,0,2.9-2.9v-.968H45.516v2.9A2.907,2.907,0,0,1,42.613,47.452ZM31.968,41.645v.968a.968.968,0,0,1-.968.968H28.1V41.645Zm-5.806,1.935H22.29V41.645h3.871Zm-5.806,0h-2.9a.968.968,0,0,1-.968-.968v-.968h3.871ZM45.516,39.71H2.935V21.323a2.914,2.914,0,0,1,1.991-2.745,12.578,12.578,0,0,0,2.661,3.928l3.09,3.089v2.5a5.812,5.812,0,0,0,4.839,5.719v1.055a2.907,2.907,0,0,0,2.9,2.9H22.29a2.907,2.907,0,0,0,2.9-2.9V32.935a.968.968,0,0,1,1.935,0v1.935a2.9,2.9,0,1,0,5.806,0V29.065A.969.969,0,0,1,33.9,28.1h2.628L38.317,29.2l-1.38,2.3,5.174,5.175,2.067-1.239.583,2.337h.756ZM59.065,27.341l-1.886.471-.517.2-.45,1.105,1.254,2.09-3.038,3.038-2.089-1.254-1.18.48-.592,2.372H46.272l-.47-1.886-.2-.517-1.106-.45L42.411,34.24,39.373,31.2l1.254-2.09L40.21,28.1l0,0H42.3a6.779,6.779,0,1,0,.011-5.831l-2.139,0,.073-.058.385-.939-1.254-2.088,3.038-3.037L44.5,17.4l1.181-.487.592-2.368h4.295l.591,2.367,1.181.487,2.089-1.254,3.038,3.037-1.254,2.088.48,1.181,2.373.592Z" transform="translate(0)"/>
      <path id="Trazado_828184" data-name="Trazado 828184" d="M28,23h1.935v1.935H28Z" transform="translate(-0.871 -0.71)"/>
      <path id="Trazado_828185" data-name="Trazado 828185" d="M36,5h1.935V6.935H36Z" transform="translate(-1.129 -0.129)"/>
      <path id="Trazado_828186" data-name="Trazado 828186" d="M40,5H55.484V6.935H40Z" transform="translate(-1.258 -0.129)"/>
      <path id="Trazado_828187" data-name="Trazado 828187" d="M36,9H55.355v1.935H36Z" transform="translate(-1.129 -0.258)"/>
      <path id="Trazado_828188" data-name="Trazado 828188" d="M36,13h1.935v1.935H36Z" transform="translate(-1.129 -0.387)"/>
      <path id="Trazado_828189" data-name="Trazado 828189" d="M40,13h1.935v1.935H40Z" transform="translate(-1.258 -0.387)"/>
      <path id="Trazado_828190" data-name="Trazado 828190" d="M5,33H6.935v1.935H5Z" transform="translate(-0.129 -1.032)"/>
      <path id="Trazado_828191" data-name="Trazado 828191" d="M5,37H6.935v1.935H5Z" transform="translate(-0.129 -1.161)"/>
      <path id="Trazado_828192" data-name="Trazado 828192" d="M5,29H6.935v1.935H5Z" transform="translate(-0.129 -0.903)"/>
    </g>
  </g>
</svg>
