<svg id="Grupo_1075892" data-name="Grupo 1075892" xmlns="http://www.w3.org/2000/svg" xmlns:xlink="http://www.w3.org/1999/xlink" width="400" height="370.864" viewBox="0 0 400 370.864">
  <defs>
    <clipPath id="clip-path">
      <rect id="Rectángulo_381324" data-name="Rectángulo 381324" width="400" height="370.864" fill="none"/>
    </clipPath>
  </defs>
  <g id="Grupo_1075891" data-name="Grupo 1075891" clip-path="url(#clip-path)">
    <path id="Trazado_828340" data-name="Trazado 828340" d="M335.314,326.186C285,369.451,197.1,378.245,143.908,336.038c-25.771-24.512-25.186-61.926-27.743-94.909-4.983-23.244-10.688-46.191-27.548-63.85-39.1-32.77-66.324-65.249-37.258-116.622C111.744-22.68,260.293-15.8,328.555,54.8c59.217,71.514,75.894,201.273,6.759,271.383" transform="translate(-5.92 0)" fill="#b4d3e6"/>
    <path id="Trazado_828341" data-name="Trazado 828341" d="M157.173,132.48h0a.385.385,0,0,1-.333-.193l-3.625-6.275a.379.379,0,0,1,0-.384l3.625-6.275a.386.386,0,0,1,.333-.192.382.382,0,0,1,.332.192l3.634,6.275a.382.382,0,0,1,0,.385l-3.634,6.275a.382.382,0,0,1-.332.192m-3.182-6.66,3.183,5.508,3.188-5.508-3.188-5.507Z" transform="translate(-23.135 -17.999)" fill="#25292b"/>
    <path id="Trazado_828342" data-name="Trazado 828342" d="M145.622,125.215a2.189,2.189,0,1,1,2.189-2.189,2.193,2.193,0,0,1-2.189,2.189m0-3.61a1.42,1.42,0,1,0,1.42,1.42,1.423,1.423,0,0,0-1.42-1.42" transform="translate(-21.665 -18.252)" fill="#25292b"/>
    <path id="Trazado_828343" data-name="Trazado 828343" d="M153.276,115.829a1.912,1.912,0,1,1,1.913-1.913,1.915,1.915,0,0,1-1.913,1.913m0-3.055a1.144,1.144,0,1,0,1.144,1.143,1.144,1.144,0,0,0-1.144-1.143" transform="translate(-22.863 -16.918)" fill="#25292b"/>
    <path id="Trazado_828344" data-name="Trazado 828344" d="M143.633,117.042a1.416,1.416,0,1,1,1.415-1.415,1.417,1.417,0,0,1-1.415,1.415m0-2.063a.647.647,0,1,0,.647.648.648.648,0,0,0-.647-.648" transform="translate(-21.482 -17.251)" fill="#25292b"/>
    <path id="Trazado_828345" data-name="Trazado 828345" d="M322.53,100.549h0a.382.382,0,0,1-.332-.192l-2.774-4.8a.379.379,0,0,1,0-.384l2.774-4.8a.384.384,0,0,1,.665,0l2.78,4.8a.386.386,0,0,1,0,.385l-2.78,4.8a.383.383,0,0,1-.333.192m-2.33-5.185,2.33,4.034,2.335-4.034-2.335-4.034Z" transform="translate(-48.24 -13.621)" fill="#25292b"/>
    <path id="Trazado_828346" data-name="Trazado 828346" d="M314.972,93.125a2.189,2.189,0,1,1,2.189-2.189,2.192,2.192,0,0,1-2.189,2.189m0-3.61a1.421,1.421,0,1,0,1.42,1.421,1.423,1.423,0,0,0-1.42-1.421" transform="translate(-47.245 -13.405)" fill="#25292b"/>
    <path id="Trazado_828347" data-name="Trazado 828347" d="M322.627,86.846a1.912,1.912,0,1,1,1.913-1.913,1.915,1.915,0,0,1-1.913,1.913m0-3.056a1.144,1.144,0,1,0,1.144,1.144,1.145,1.145,0,0,0-1.144-1.144" transform="translate(-48.443 -12.54)" fill="#25292b"/>
    <path id="Trazado_828348" data-name="Trazado 828348" d="M315.11,84.637a1.416,1.416,0,1,1,1.415-1.415,1.417,1.417,0,0,1-1.415,1.415m0-2.063a.647.647,0,1,0,.647.648.648.648,0,0,0-.647-.648" transform="translate(-47.383 -12.357)" fill="#25292b"/>
    <path id="Trazado_828349" data-name="Trazado 828349" d="M390.587,307.035h0a.386.386,0,0,1-.333-.193l-3.625-6.275a.383.383,0,0,1,0-.384l3.625-6.275a.385.385,0,0,1,.666,0l3.633,6.275a.386.386,0,0,1,0,.385l-3.633,6.275a.384.384,0,0,1-.333.192m-3.181-6.66,3.182,5.508,3.189-5.508-3.189-5.507Z" transform="translate(-58.392 -44.365)" fill="#25292b"/>
    <path id="Trazado_828350" data-name="Trazado 828350" d="M401.385,312.808a2.189,2.189,0,1,1,2.189-2.189,2.192,2.192,0,0,1-2.189,2.189m0-3.61a1.42,1.42,0,1,0,1.42,1.421,1.423,1.423,0,0,0-1.42-1.421" transform="translate(-60.298 -46.588)" fill="#25292b"/>
    <path id="Trazado_828351" data-name="Trazado 828351" d="M386.923,290.384a1.912,1.912,0,1,1,1.913-1.912,1.914,1.914,0,0,1-1.913,1.912m0-3.055a1.144,1.144,0,1,0,1.144,1.144,1.145,1.145,0,0,0-1.144-1.144" transform="translate(-58.155 -43.284)" fill="#25292b"/>
    <path id="Trazado_828352" data-name="Trazado 828352" d="M399.855,299.053a1.416,1.416,0,1,1,1.416-1.416,1.417,1.417,0,0,1-1.416,1.416m0-2.063a.647.647,0,1,0,.648.647.648.648,0,0,0-.648-.647" transform="translate(-60.183 -44.744)" fill="#25292b"/>
    <path id="Trazado_828353" data-name="Trazado 828353" d="M400.146,289.525h0a.384.384,0,0,1-.333-.192l-2.277-3.941a.383.383,0,0,1,0-.384l2.277-3.942a.385.385,0,0,1,.666,0l2.281,3.942a.382.382,0,0,1,0,.385l-2.281,3.941a.386.386,0,0,1-.333.191m-1.833-4.325,1.833,3.173,1.838-3.173-1.838-3.173Z" transform="translate(-60.039 -42.426)" fill="#25292b"/>
    <path id="Trazado_828354" data-name="Trazado 828354" d="M377.152,307.941a1.416,1.416,0,1,1,1.416-1.416,1.417,1.417,0,0,1-1.416,1.416m0-2.063a.647.647,0,1,0,.648.647.648.648,0,0,0-.648-.647" transform="translate(-56.754 -46.086)" fill="#25292b"/>
    <path id="Trazado_828355" data-name="Trazado 828355" d="M134.679,220.9s5.921,139.909,5.391,162.919H109.626L94.033,222.074Z" transform="translate(-14.203 -33.367)" fill="#25292b"/>
    <path id="Trazado_828356" data-name="Trazado 828356" d="M54.466,222.689l-4.09,74.9L28.585,383.961H61.232l32.847-86.731,13.957-75.4Z" transform="translate(-4.318 -33.507)" fill="#25292b"/>
    <path id="Trazado_828357" data-name="Trazado 828357" d="M103.593,302.892l-.868-.177c4.977-24.49,9.156-49.5,12.419-74.322l.047-.353,10.381-.9.076.884-9.671.835c-3.259,24.73-7.426,49.636-12.384,74.029" transform="translate(-15.516 -34.31)" fill="#f2e9da"/>
    <path id="Trazado_828358" data-name="Trazado 828358" d="M31.537,412.912h25.94l6.851,6.05s20.3-.573,20.3,14.272H31.537Z" transform="translate(-4.764 -62.369)" fill="#f7cd00"/>
    <path id="Trazado_828359" data-name="Trazado 828359" d="M33.585,434.673h.094l49.935-.188a.353.353,0,0,0,0-.706h0l-50.028.188a.353.353,0,0,0,0,.706" transform="translate(-5.02 -65.521)" fill="#25292b"/>
    <path id="Trazado_828360" data-name="Trazado 828360" d="M49.579,420.521c-1.816-.194-2.924-.911-3.119-2.017-.254-1.435,1.164-2.462,2.454-2.906a12.9,12.9,0,0,1,12.042,2.125,20.117,20.117,0,0,1,4.805-8.109,5.231,5.231,0,0,1,2.644-1.68,2.37,2.37,0,0,1,2.776,1.54c.269,1.13-.538,2.133-1.273,2.88a56.723,56.723,0,0,1-8.021,6.782.352.352,0,0,1-.34.036.339.339,0,0,1-.129.076,28.392,28.392,0,0,1-8.9,1.428,28.1,28.1,0,0,1-2.943-.155M60.787,418.5a12.171,12.171,0,0,0-11.643-2.233c-.827.284-2.178,1.05-1.989,2.115s1.81,1.364,2.5,1.437a27.7,27.7,0,0,0,11.25-1.145.357.357,0,0,1-.115-.174m7.751-9.872a4.621,4.621,0,0,0-2.272,1.48,19.4,19.4,0,0,0-4.724,8.119c.06.054.12.11.179.166a56.136,56.136,0,0,0,7.683-6.531c.606-.619,1.278-1.43,1.088-2.223a1.592,1.592,0,0,0-1.61-1.042,1.92,1.92,0,0,0-.345.031" transform="translate(-7.013 -61.611)" fill="#25292b"/>
    <path id="Trazado_828361" data-name="Trazado 828361" d="M115.186,412.661h25.94l6.851,6.05s20.3-.573,20.3,14.272H115.186Z" transform="translate(-17.399 -62.332)" fill="#f7cd00"/>
    <path id="Trazado_828362" data-name="Trazado 828362" d="M117.234,434.422h.094l49.935-.188a.353.353,0,0,0,0-.706h0l-50.028.188a.353.353,0,0,0,0,.706" transform="translate(-17.655 -65.483)" fill="#25292b"/>
    <path id="Trazado_828363" data-name="Trazado 828363" d="M133.228,420.271c-1.816-.194-2.924-.911-3.119-2.018-.254-1.434,1.164-2.462,2.454-2.906a12.9,12.9,0,0,1,12.042,2.125,20.117,20.117,0,0,1,4.805-8.109,5.224,5.224,0,0,1,2.645-1.679,2.369,2.369,0,0,1,2.776,1.539c.269,1.13-.538,2.133-1.273,2.88a56.729,56.729,0,0,1-8.021,6.783.355.355,0,0,1-.34.036.351.351,0,0,1-.129.076,28.392,28.392,0,0,1-8.9,1.428,28.1,28.1,0,0,1-2.943-.155m11.209-2.022a12.169,12.169,0,0,0-11.643-2.234c-.827.284-2.178,1.05-1.989,2.115s1.81,1.365,2.5,1.438a27.694,27.694,0,0,0,11.25-1.145.361.361,0,0,1-.115-.174m7.751-9.872a4.614,4.614,0,0,0-2.272,1.479,19.4,19.4,0,0,0-4.724,8.119c.06.054.12.11.179.166a56.077,56.077,0,0,0,7.683-6.531c.606-.618,1.278-1.429,1.088-2.223a1.592,1.592,0,0,0-1.61-1.042,1.847,1.847,0,0,0-.345.031" transform="translate(-19.648 -61.573)" fill="#25292b"/>
    <path id="Trazado_828364" data-name="Trazado 828364" d="M121.818,169.171l4.168,32.88-4.092,16.758-12.666-15.969L91.061,218.81,55.66,203.7l.424-13.762A16.328,16.328,0,0,1,36.5,173.3l4.348-50.723c.28-7.08,5.478-17.656,12.3-19.566L76.484,96.1,96.817,99.82l13.821,4.245A16.32,16.32,0,0,1,122.022,117.5l4.041,30.223,19.042,4.924.7,16.521Z" transform="translate(-5.511 -14.516)" fill="#f7cd00"/>
    <path id="Trazado_828365" data-name="Trazado 828365" d="M66.965,169.576l-.044,0a.425.425,0,0,1-.379-.466L70,135.438a.425.425,0,1,1,.845.087l-3.461,33.669a.425.425,0,0,1-.422.381" transform="translate(-10.051 -20.4)" fill="#25292b"/>
    <path id="Trazado_828366" data-name="Trazado 828366" d="M60,200.917a.425.425,0,0,1-.128-.829l41.739-13.249L96.757,169.51,54.25,177a.425.425,0,1,1-.147-.836l42.884-7.551a.423.423,0,0,1,.483.3L102.537,187a.424.424,0,0,1-.28.52L60.127,200.9a.447.447,0,0,1-.128.02" transform="translate(-8.119 -25.467)" fill="#25292b"/>
    <path id="Trazado_828367" data-name="Trazado 828367" d="M129.417,156.194a.424.424,0,0,1-.421-.374l-3.147-26.59a.425.425,0,0,1,.844-.1l3.146,26.589a.426.426,0,0,1-.372.472l-.05,0" transform="translate(-19.009 -19.448)" fill="#25292b"/>
    <path id="Trazado_828368" data-name="Trazado 828368" d="M102.265,116.308a.422.422,0,0,1-.257-.087l-7.56-5.785a5.089,5.089,0,0,0-4.98,4.652.423.423,0,0,1-.717.232c-.08-.078-7.879-7.922-7.206-17.952A.432.432,0,0,1,82,96.973a.425.425,0,0,1,.395.452c-.544,8.1,4.687,14.746,6.414,16.7a5.975,5.975,0,0,1,5.8-4.544.42.42,0,0,1,.241.087l7.673,5.872a.424.424,0,0,1-.258.762" transform="translate(-12.311 -14.648)" fill="#25292b"/>
    <path id="Trazado_828369" data-name="Trazado 828369" d="M108.293,116.91a.386.386,0,0,1-.062,0,.425.425,0,0,1-.358-.482l.9-6.135a.425.425,0,0,1,.167-.279.435.435,0,0,1,.316-.079,7.188,7.188,0,0,1,2.926,1.155c-.1-2.3-.687-7.268-3.81-9.35a.425.425,0,0,1,.471-.707c4.513,3.01,4.215,10.969,4.2,11.307a.425.425,0,0,1-.361.4.43.43,0,0,1-.464-.276c-.322-.9-1.785-1.407-2.671-1.61l-.836,5.7a.424.424,0,0,1-.419.363" transform="translate(-16.293 -15.249)" fill="#25292b"/>
    <path id="Trazado_828370" data-name="Trazado 828370" d="M150.742,163.771l-12.115,1.486,3.362,2.623a2.828,2.828,0,0,1-1.74,5.06c-.085,0-.178,0-.263-.008a2.825,2.825,0,0,1-2.674,3.778,2.923,2.923,0,0,1-.891-.144,2.837,2.837,0,0,1-4.381,3.251l-2.547-1.987-.34.509c-5.9,7.352-13.278,4.372-13.278,4.372l-5.781,1.672L105.731,169.2l11.707-2.538,9.873-6.511a7.352,7.352,0,0,1,4.041-1.214h19.39Z" transform="translate(-15.97 -24.006)" fill="#f2e9da"/>
    <path id="Trazado_828371" data-name="Trazado 828371" d="M140.922,179.328a.423.423,0,0,1-.268-.1l-4.968-4.063a.424.424,0,1,1,.537-.657l4.968,4.063a.424.424,0,0,1-.269.753" transform="translate(-20.471 -26.345)" fill="#25292b"/>
    <path id="Trazado_828372" data-name="Trazado 828372" d="M145.106,175.022a.421.421,0,0,1-.271-.1l-5.053-4.2a.425.425,0,0,1,.543-.653l5.052,4.206a.424.424,0,0,1-.272.75" transform="translate(-21.091 -25.673)" fill="#25292b"/>
    <path id="Trazado_828373" data-name="Trazado 828373" d="M194.152,135.856l-25.1,44.409a3.682,3.682,0,0,1-3.209,1.868H142.2a3.681,3.681,0,0,1-3.2-5.493l25.1-44.4a3.678,3.678,0,0,1,3.2-1.868h23.652a3.674,3.674,0,0,1,3.2,5.484" transform="translate(-20.922 -19.692)" fill="#25292b"/>
    <path id="Trazado_828374" data-name="Trazado 828374" d="M188.363,164.521a2.663,2.663,0,0,1-1.936,1.418,3.157,3.157,0,0,1-2.564,5.365,3.153,3.153,0,0,1-2.182,5.306,3.574,3.574,0,0,1,.357.662,2.942,2.942,0,0,1-.059,2.479,3.458,3.458,0,0,1-4.7,1.146l-3.984-1.9a3.946,3.946,0,0,1-1.876-2.012,2.972,2.972,0,0,1,.059-2.479,3.035,3.035,0,0,1,2.581-1.579,3.262,3.262,0,0,1-.45-.891,3.15,3.15,0,0,1,.187-2.411,3.183,3.183,0,0,1,3.141-1.706,3.043,3.043,0,0,1-.7-1.18,3.112,3.112,0,0,1,.187-2.411,3.17,3.17,0,0,1,3.226-1.7,2.227,2.227,0,0,1-.161-.391,2.655,2.655,0,0,1,.161-2.046,2.687,2.687,0,0,1,3.617-1.163l3.925,1.879a2.7,2.7,0,0,1,1.172,3.617" transform="translate(-25.855 -23.976)" fill="#f2e9da"/>
    <path id="Trazado_828375" data-name="Trazado 828375" d="M182.119,179.485a.42.42,0,0,1-.184-.042l-7.627-3.687a.425.425,0,0,1,.37-.764l7.626,3.687a.424.424,0,0,1-.185.807" transform="translate(-26.293 -26.426)" fill="#25292b"/>
    <path id="Trazado_828376" data-name="Trazado 828376" d="M184.812,173.288a.417.417,0,0,1-.186-.043l-6.93-3.39a.424.424,0,1,1,.373-.762l6.93,3.39a.424.424,0,0,1-.187.806" transform="translate(-26.805 -25.535)" fill="#25292b"/>
    <path id="Trazado_828377" data-name="Trazado 828377" d="M187.86,166.981a.418.418,0,0,1-.187-.043l-6.777-3.313a.425.425,0,1,1,.374-.763l6.776,3.314a.424.424,0,0,1-.186.806" transform="translate(-27.288 -24.593)" fill="#25292b"/>
    <path id="Trazado_828378" data-name="Trazado 828378" d="M79.76,70.7c.923,3.748,3.235,6.107,6.714,5.673L82.57,90.706l19.517,16.918,1.9-17.857a13.614,13.614,0,0,0,5.333-3.022c2.888-2.477,7.732-8.6,8.111-14.375l.758-11.393c-4.75-.031-10.88-1.341-15.575-2.556-4.134-1.073-7.157-2.067-7.157-2.067a6.123,6.123,0,0,1-.473,1.617,21.2,21.2,0,0,1-4.568,5.91l-.008.055c-.008-.008-.008-.016-.015-.016a.531.531,0,0,1-.064-.07,7.174,7.174,0,0,0-4.15-2.28,6.583,6.583,0,0,0-2.541.11c-3.716.923-4.868,5.01-3.874,9.026" transform="translate(-11.996 -8.512)" fill="#f2e9da"/>
    <path id="Trazado_828379" data-name="Trazado 828379" d="M118.668,72.356a1.892,1.892,0,1,0,2.016-1.953,1.99,1.99,0,0,0-2.016,1.953" transform="translate(-17.924 -10.634)" fill="#25292b"/>
    <path id="Trazado_828380" data-name="Trazado 828380" d="M104.613,68.878a1.892,1.892,0,1,0,2.445-1.38,1.99,1.99,0,0,0-2.445,1.38" transform="translate(-15.784 -10.182)" fill="#25292b"/>
    <path id="Trazado_828381" data-name="Trazado 828381" d="M119.361,66.984a4.464,4.464,0,0,1,4.145,1.05.578.578,0,1,1-.739.888,3.954,3.954,0,0,0-.34-.29c-.058-.044-.118-.086-.178-.126l-.021-.013c-.031-.02-.064-.038-.1-.056a4,4,0,0,0-.4-.2c-.069-.029-.138-.054-.209-.081l-.033-.011c-.039-.012-.078-.024-.118-.034a4.009,4.009,0,0,0-.438-.091c-.073-.011-.148-.02-.222-.026l-.111-.008h-.013a4.126,4.126,0,0,0-.447.019c-.074.008-.148.018-.222.03l-.11.02-.02,0-.02.005a.593.593,0,0,1-.745-.337.584.584,0,0,1,.337-.745" transform="translate(-17.974 -10.097)" fill="#25292b"/>
    <path id="Trazado_828382" data-name="Trazado 828382" d="M109.761,65.728a.593.593,0,0,1-.817.031l-.018-.013-.016-.01-.094-.06c-.064-.038-.128-.076-.194-.11a4.1,4.1,0,0,0-.407-.187l-.009,0h0l-.107-.035c-.071-.021-.143-.042-.216-.059a3.821,3.821,0,0,0-.44-.081l-.121-.014-.036,0c-.074,0-.149-.005-.223,0a3.717,3.717,0,0,0-.446.029l-.111.015-.024,0c-.071.014-.143.031-.213.049a3.944,3.944,0,0,0-.424.141.578.578,0,1,1-.348-1.1,4.464,4.464,0,0,1,4.235.6.584.584,0,0,1,.031.817" transform="translate(-15.873 -9.671)" fill="#25292b"/>
    <path id="Trazado_828383" data-name="Trazado 828383" d="M105.086,84.559A3.647,3.647,0,0,1,103.01,82.5a4.358,4.358,0,0,1,.208-3.1.366.366,0,0,1,.473-.175l6.543,2.837a.364.364,0,0,1,.183.494c-.014.03-1.206,2.408-3.573,2.408a4.272,4.272,0,0,1-1.756-.406m-1.34-4.515a3.448,3.448,0,0,0-.052,2.2,2.951,2.951,0,0,0,1.689,1.646,3.183,3.183,0,0,0,4.183-1.325Z" transform="translate(-15.528 -11.962)" fill="#25292b"/>
    <path id="Trazado_828384" data-name="Trazado 828384" d="M86.157,75.868a.447.447,0,0,1-.233-.065A3.784,3.784,0,0,1,87.2,68.85a3.092,3.092,0,0,0-.179-2.28,2.124,2.124,0,0,0-2.005-1.152A1.589,1.589,0,0,0,83.6,66.956a.449.449,0,1,1-.9.053,2.464,2.464,0,0,1,2.207-2.483,3.024,3.024,0,0,1,2.891,1.619,4.007,4.007,0,0,1,.152,3.26.449.449,0,0,1-.374.293,2.888,2.888,0,0,0-1.194,5.337.449.449,0,0,1-.233.832" transform="translate(-12.492 -9.744)" fill="#25292b"/>
    <path id="Trazado_828385" data-name="Trazado 828385" d="M104.791,95.41a3.7,3.7,0,0,1-.989-.119c-2.1-.585-4.965-3.963-5.086-4.106a.449.449,0,1,1,.687-.578c.027.033,2.8,3.31,4.639,3.82,1.505.419,4.633-.759,5.71-1.249a.449.449,0,0,1,.372.817,16.159,16.159,0,0,1-5.332,1.415" transform="translate(-14.895 -13.662)" fill="#25292b"/>
    <path id="Trazado_828386" data-name="Trazado 828386" d="M104.806,73.783a7.34,7.34,0,1,1,6.812-4.583,7.3,7.3,0,0,1-6.812,4.583M104.815,60a6.45,6.45,0,1,0,2.421.475A6.436,6.436,0,0,0,104.815,60" transform="translate(-14.723 -8.927)" fill="#ffbd29"/>
    <path id="Trazado_828387" data-name="Trazado 828387" d="M123.767,79.193a7.34,7.34,0,1,1,6.812-4.583,7.312,7.312,0,0,1-6.812,4.583m.008-13.786a6.452,6.452,0,1,0,2.421.476,6.436,6.436,0,0,0-2.421-.476" transform="translate(-17.587 -9.744)" fill="#ffbd29"/>
    <rect id="Rectángulo_381309" data-name="Rectángulo 381309" width="0.897" height="8.776" transform="translate(75.737 51.339) rotate(-59.789)" fill="#ffbd29"/>
    <rect id="Rectángulo_381310" data-name="Rectángulo 381310" width="0.897" height="3.114" transform="translate(96.302 60.518) rotate(-66.804)" fill="#ffbd29"/>
    <path id="Trazado_828388" data-name="Trazado 828388" d="M84.239,59.01a6.583,6.583,0,0,1,2.541-.11,7.179,7.179,0,0,1,4.15,2.28l.087.031a21.181,21.181,0,0,0,4.568-5.91,6.158,6.158,0,0,0,.474-1.617s3.022.994,7.156,2.067c4.695,1.215,10.826,2.525,15.575,2.556,3.015.024,5.476-.466,6.659-1.815,5.358-6.123,1.452-12.435-4.458-11.843-5.665.576-9.491.474-15.677-3.431s-12.7-3.259-14.6,1.751c0,0-10.217.316-6.478,16.04" transform="translate(-12.6 -5.844)" fill="#25292b"/>
    <path id="Trazado_828389" data-name="Trazado 828389" d="M116.461,80.355a.474.474,0,0,1-.141-.022l-5.6-1.847a.449.449,0,1,1,.281-.852l4.957,1.636-.727-9.344a.449.449,0,0,1,.895-.07l.778,10.017a.448.448,0,0,1-.447.483" transform="translate(-16.678 -10.489)" fill="#25292b"/>
    <path id="Trazado_828390" data-name="Trazado 828390" d="M284.059,259.973H181.411a4.184,4.184,0,0,1-4.179-4.18V193.674a4.184,4.184,0,0,1,4.179-4.18H284.059a4.185,4.185,0,0,1,4.179,4.18v62.119a4.185,4.185,0,0,1-4.179,4.18M181.411,190.121a3.558,3.558,0,0,0-3.554,3.554v62.119a3.558,3.558,0,0,0,3.554,3.554H284.059a3.557,3.557,0,0,0,3.553-3.554V193.674a3.557,3.557,0,0,0-3.553-3.554Z" transform="translate(-26.77 -28.623)" fill="#25292b"/>
    <path id="Trazado_828391" data-name="Trazado 828391" d="M287.981,197.883H177.6V193.73a3.867,3.867,0,0,1,3.867-3.867H284.114a3.867,3.867,0,0,1,3.867,3.867Z" transform="translate(-26.826 -28.678)" fill="#25292b"/>
    <rect id="Rectángulo_381311" data-name="Rectángulo 381311" width="16.171" height="16.171" transform="translate(157.778 171.794)" fill="#f2e9da"/>
    <rect id="Rectángulo_381312" data-name="Rectángulo 381312" width="16.171" height="16.171" transform="translate(157.778 191.319)" fill="#f2e9da"/>
    <rect id="Rectángulo_381313" data-name="Rectángulo 381313" width="16.171" height="16.171" transform="translate(157.778 210.277)" fill="#f2e9da"/>
    <path id="Trazado_828392" data-name="Trazado 828392" d="M192.5,216.038l-5.781-5.781,2.943-2.943,2.837,2.836,5.968-5.968,2.943,2.944Z" transform="translate(-28.204 -30.841)" fill="#ffbd29"/>
    <path id="Trazado_828393" data-name="Trazado 828393" d="M192.5,239.756l-5.781-5.781,2.943-2.943,2.837,2.836,5.968-5.968,2.943,2.944Z" transform="translate(-28.204 -34.424)" fill="#ffbd29"/>
    <path id="Trazado_828394" data-name="Trazado 828394" d="M192.5,261.472l-5.781-5.781,2.943-2.943,2.837,2.836,5.968-5.968,2.943,2.944Z" transform="translate(-28.204 -37.704)" fill="#ffbd29"/>
    <rect id="Rectángulo_381314" data-name="Rectángulo 381314" width="77.597" height="3.196" transform="translate(176.658 172.818)" fill="#f2e9da"/>
    <rect id="Rectángulo_381315" data-name="Rectángulo 381315" width="77.597" height="3.196" transform="translate(176.658 178.879)" fill="#f2e9da"/>
    <rect id="Rectángulo_381316" data-name="Rectángulo 381316" width="34.913" height="3.196" transform="translate(176.658 184.826)" fill="#f2e9da"/>
    <rect id="Rectángulo_381317" data-name="Rectángulo 381317" width="77.597" height="3.196" transform="translate(176.658 191.802)" fill="#f2e9da"/>
    <rect id="Rectángulo_381318" data-name="Rectángulo 381318" width="77.597" height="3.196" transform="translate(176.658 197.864)" fill="#f2e9da"/>
    <rect id="Rectángulo_381319" data-name="Rectángulo 381319" width="34.913" height="3.196" transform="translate(176.658 203.811)" fill="#f2e9da"/>
    <rect id="Rectángulo_381320" data-name="Rectángulo 381320" width="77.597" height="3.196" transform="translate(176.658 211.12)" fill="#f2e9da"/>
    <rect id="Rectángulo_381321" data-name="Rectángulo 381321" width="77.597" height="3.196" transform="translate(176.658 217.182)" fill="#f2e9da"/>
    <rect id="Rectángulo_381322" data-name="Rectángulo 381322" width="34.913" height="3.196" transform="translate(176.658 223.128)" fill="#f2e9da"/>
    <path id="Trazado_828395" data-name="Trazado 828395" d="M399.993,219.681l-5.561,16.641c-7.613,22.76-32.77,28.9-50.016,12.211l-12.6-12.205c-21.042-20.37-14.706-58.011,10.817-64.243l18.167-4.436c25.515-6.23,48.485,24.257,39.2,52.031" transform="translate(-48.21 -25.199)" fill="#f2e9da"/>
    <path id="Trazado_828396" data-name="Trazado 828396" d="M379.093,172.1c1.269,5.2-8.445,12.038-21.7,15.274s-25.027,1.644-26.3-3.556,8.445-12.038,21.7-15.274,25.027-1.644,26.3,3.556" transform="translate(-49.995 -25.204)" fill="#25292b"/>
    <path id="Trazado_828397" data-name="Trazado 828397" d="M386.948,144.256c0,18.478-18.131,24.578-40.5,24.578s-40.5-6.1-40.5-24.578,18.132-35.817,40.5-35.817,40.5,17.339,40.5,35.817" transform="translate(-46.214 -16.379)" fill="#f2e9da"/>
    <path id="Trazado_828398" data-name="Trazado 828398" d="M329.128,157.145s-17.993-.22-23.151-9.908q-.024-.5-.024-1.014c0-9.193,4.5-18.111,11.772-24.748h45.287s15.956,35.67-33.885,35.67" transform="translate(-46.214 -18.349)" fill="#f7cd00"/>
    <path id="Trazado_828399" data-name="Trazado 828399" d="M324.734,135.666c0,3.765-2.686,6.817-6,6.817s-6-3.052-6-6.817,2.686-6.817,6-6.817,6,3.052,6,6.817" transform="translate(-47.238 -19.462)" fill="#f2e9da"/>
    <path id="Trazado_828400" data-name="Trazado 828400" d="M349.482,135.666c0,3.765-2.686,6.817-6,6.817s-6-3.052-6-6.817,2.686-6.817,6-6.817,6,3.052,6,6.817" transform="translate(-50.976 -19.462)" fill="#f2e9da"/>
    <path id="Trazado_828401" data-name="Trazado 828401" d="M328.726,152.177a5.234,5.234,0,0,1-5.674-5.084.276.276,0,0,1,.274-.277h0a.276.276,0,0,1,.276.273c0,.185.1,4.536,5.122,4.536s5.12-4.351,5.122-4.536a.276.276,0,0,1,.276-.273h0a.275.275,0,0,1,.274.277,5.233,5.233,0,0,1-5.674,5.084" transform="translate(-48.796 -22.176)" fill="#25292b"/>
    <path id="Trazado_828402" data-name="Trazado 828402" d="M383.95,164.409a.282.282,0,0,1-.131-.033.276.276,0,0,1-.112-.374,41.283,41.283,0,0,0-5.134-46.587.276.276,0,0,1,.418-.362,41.838,41.838,0,0,1,5.2,47.21.277.277,0,0,1-.244.145" transform="translate(-57.173 -17.666)" fill="#25292b"/>
    <path id="Trazado_828403" data-name="Trazado 828403" d="M355.276,109.5a.279.279,0,0,1-.152-.046.275.275,0,0,1-.078-.382A25.853,25.853,0,0,0,358.1,87.316a.276.276,0,1,1,.526-.165,26.41,26.41,0,0,1-3.118,22.227.276.276,0,0,1-.231.124" transform="translate(-53.622 -13.135)" fill="#25292b"/>
    <path id="Trazado_828404" data-name="Trazado 828404" d="M365.27,83.9a7.706,7.706,0,1,1-7.706-7.706A7.706,7.706,0,0,1,365.27,83.9" transform="translate(-52.845 -11.51)" fill="#2981b7"/>
    <path id="Trazado_828405" data-name="Trazado 828405" d="M403.321,203.893c0,8.21-5.252,14.865-11.732,14.865s-11.733-6.655-11.733-14.865,5.252-14.865,11.733-14.865,11.732,6.655,11.732,14.865" transform="translate(-57.377 -28.552)" fill="#ffbd29"/>
    <path id="Trazado_828406" data-name="Trazado 828406" d="M340.685,227.7a65.156,65.156,0,0,1-29.161-6.876,7.083,7.083,0,1,1,6.362-12.657,50.513,50.513,0,0,0,58.863-9.882,7.084,7.084,0,0,1,10.147,9.887,65.145,65.145,0,0,1-35.617,18.65,64.043,64.043,0,0,1-10.594.878" transform="translate(-46.465 -29.628)" fill="#25292b"/>
    <path id="Trazado_828407" data-name="Trazado 828407" d="M223.847,172.015a16.662,16.662,0,0,1,19.116,18.915l-.111.742a3.726,3.726,0,0,1-7.37-1.1l.111-.743a9.209,9.209,0,0,0-18.215-2.723l-.11.743a3.726,3.726,0,0,1-7.371-1.1l.111-.742a16.691,16.691,0,0,1,13.839-13.988" transform="translate(-31.698 -25.951)" fill="#2981b7"/>
    <path id="Trazado_828408" data-name="Trazado 828408" d="M311.57,206.781a15.433,15.433,0,0,1-20.616,13.981l-.655-.233a3.451,3.451,0,0,1,2.322-6.5l.655.234a8.53,8.53,0,0,0,5.74-16.066l-.655-.233a3.452,3.452,0,0,1,2.324-6.5l.655.233a15.461,15.461,0,0,1,10.232,15.084" transform="translate(-43.503 -28.889)" fill="#ffbd29"/>
    <rect id="Rectángulo_381323" data-name="Rectángulo 381323" width="48.852" height="48.852" transform="translate(157.184 255.109)" fill="#f7cd00"/>
    <path id="Trazado_828409" data-name="Trazado 828409" d="M340.474,290.721H177.6v-7.967a3.867,3.867,0,0,1,3.866-3.867h155.14a3.867,3.867,0,0,1,3.867,3.867Z" transform="translate(-26.826 -42.125)" fill="#f7cd00"/>
    <path id="Trazado_828410" data-name="Trazado 828410" d="M336.525,382.339H181.385a4.333,4.333,0,0,1-4.329-4.328V282.673a4.333,4.333,0,0,1,4.329-4.33h155.14a4.333,4.333,0,0,1,4.329,4.33v95.338a4.333,4.333,0,0,1-4.329,4.328M181.385,279.267a3.409,3.409,0,0,0-3.4,3.406v95.338a3.409,3.409,0,0,0,3.4,3.4h155.14a3.409,3.409,0,0,0,3.4-3.4V282.673a3.409,3.409,0,0,0-3.4-3.406Z" transform="translate(-26.744 -42.043)" fill="#25292b"/>
    <path id="Trazado_828411" data-name="Trazado 828411" d="M360.11,285.461a1.913,1.913,0,0,1-1.919,1.919H348.87a1.922,1.922,0,0,1-1.919-1.919,1.955,1.955,0,0,1,.56-1.358,1.934,1.934,0,0,1,1.358-.56h9.322a1.917,1.917,0,0,1,1.919,1.919" transform="translate(-52.406 -42.828)" fill="#f2e9da"/>
    <path id="Trazado_828412" data-name="Trazado 828412" d="M341.85,285.461a1.928,1.928,0,0,1-1.919,1.919H330.61a1.919,1.919,0,1,1,0-3.837h9.322a1.922,1.922,0,0,1,1.919,1.919" transform="translate(-49.648 -42.828)" fill="#25292b"/>
    <path id="Trazado_828413" data-name="Trazado 828413" d="M323.28,285.461a1.928,1.928,0,0,1-1.919,1.919H312.04a1.919,1.919,0,1,1,0-3.837h9.322a1.922,1.922,0,0,1,1.919,1.919" transform="translate(-46.843 -42.828)" fill="#ffa727"/>
    <path id="Trazado_828414" data-name="Trazado 828414" d="M204.089,344.168l-16.1-16.1,7.692-7.692,8.406,8.406,20.859-20.86,7.692,7.692Z" transform="translate(-28.396 -46.511)" fill="#f2e9da"/>
    <path id="Trazado_828415" data-name="Trazado 828415" d="M332.995,368.727H186.25a1.1,1.1,0,0,1-1.1-1.1v-.62a1.1,1.1,0,0,1,1.1-1.1H332.995a1.1,1.1,0,0,1,1.1,1.1v.62a1.1,1.1,0,0,1-1.1,1.1" transform="translate(-27.966 -55.269)" fill="#f2e9da"/>
    <path id="Trazado_828416" data-name="Trazado 828416" d="M333.183,380.481H186.438a1.1,1.1,0,0,1-1.1-1.1v-.62a1.1,1.1,0,0,1,1.1-1.1H333.183a1.1,1.1,0,0,1,1.1,1.1v.62a1.1,1.1,0,0,1-1.1,1.1" transform="translate(-27.995 -57.045)" fill="#f2e9da"/>
    <path id="Trazado_828417" data-name="Trazado 828417" d="M288.722,391.523H186.344a1.1,1.1,0,0,1-1.1-1.1v-.62a1.1,1.1,0,0,1,1.1-1.1H288.722a1.1,1.1,0,0,1,1.1,1.1v.62a1.1,1.1,0,0,1-1.1,1.1" transform="translate(-27.981 -58.712)" fill="#f2e9da"/>
    <path id="Trazado_828418" data-name="Trazado 828418" d="M312.081,339.5a9.134,9.134,0,0,1-9.125-9.124v-19.5a7.38,7.38,0,1,0-14.76,0V326.84a8.042,8.042,0,0,1-8.033,8.033h-.285a8.042,8.042,0,0,1-8.033-8.033V309.186a6.669,6.669,0,0,0-13.337,0v33.058a.683.683,0,0,1-1.365,0V309.186a8.033,8.033,0,1,1,16.066,0V326.84a6.676,6.676,0,0,0,6.669,6.669h.285a6.676,6.676,0,0,0,6.669-6.669V310.878a8.745,8.745,0,0,1,17.489,0v19.5a7.759,7.759,0,0,0,15.518,0v-4.693a8.872,8.872,0,0,1,17.743,0v19.182a.683.683,0,0,1-1.365,0V325.685a7.506,7.506,0,0,0-15.013,0v4.693a9.134,9.134,0,0,1-9.124,9.124" transform="translate(-38.841 -45.488)" fill="#f2e9da"/>
    <path id="Trazado_828419" data-name="Trazado 828419" d="M269.352,301.075a4.184,4.184,0,1,1-4.185-4.184,4.185,4.185,0,0,1,4.185,4.184" transform="translate(-39.421 -44.845)" fill="#ffbd29"/>
    <path id="Trazado_828420" data-name="Trazado 828420" d="M295.911,320.8a4.184,4.184,0,1,1-4.184-4.184,4.185,4.185,0,0,1,4.184,4.184" transform="translate(-43.433 -47.824)" fill="#ffbd29"/>
    <path id="Trazado_828421" data-name="Trazado 828421" d="M316.158,310.263a4.184,4.184,0,1,1-4.185-4.184,4.185,4.185,0,0,1,4.185,4.184" transform="translate(-46.491 -46.233)" fill="#ffbd29"/>
    <path id="Trazado_828422" data-name="Trazado 828422" d="M324.811,344.15a4.184,4.184,0,1,1-4.184-4.184,4.185,4.185,0,0,1,4.184,4.184" transform="translate(-47.798 -51.351)" fill="#ffbd29"/>
    <path id="Trazado_828423" data-name="Trazado 828423" d="M354.531,350.348a4.184,4.184,0,1,1-4.184-4.184,4.185,4.185,0,0,1,4.184,4.184" transform="translate(-52.287 -52.287)" fill="#ffbd29"/>
    <path id="Trazado_828424" data-name="Trazado 828424" d="M261.35,349.138a4.184,4.184,0,1,1-4.184-4.184,4.185,4.185,0,0,1,4.184,4.184" transform="translate(-38.212 -52.105)" fill="#ffbd29"/>
    <path id="Trazado_828425" data-name="Trazado 828425" d="M181.963,115.58a.425.425,0,0,1-.424-.424v-5.094a.424.424,0,1,1,.849,0v5.094a.424.424,0,0,1-.424.424m84.169-5.012a.424.424,0,0,1-.014-.848,11.228,11.228,0,0,0,4.717-1.211.424.424,0,1,1,.385.756,12.068,12.068,0,0,1-5.072,1.3h-.014m-5.025-.611a.423.423,0,0,1-.136-.023,12.245,12.245,0,0,1-4.48-2.709.424.424,0,1,1,.584-.615,11.41,11.41,0,0,0,4.168,2.52.425.425,0,0,1-.137.827m13.831-3.843a.424.424,0,0,1-.332-.688,11.2,11.2,0,0,0,2.133-4.378.425.425,0,0,1,.826.2,12.05,12.05,0,0,1-2.293,4.707.424.424,0,0,1-.334.161m-92.975-.721a.425.425,0,0,1-.424-.424V99.874a.424.424,0,1,1,.849,0v5.094a.424.424,0,0,1-.424.424m71.987-2.235a.425.425,0,0,1-.395-.267,12.129,12.129,0,0,1-.857-4.5v-.647a.424.424,0,1,1,.849,0v.647a11.269,11.269,0,0,0,.8,4.185.424.424,0,0,1-.395.581m-36.312-.873h-.4a12.192,12.192,0,0,1-3.649-.555.424.424,0,1,1,.253-.81,11.372,11.372,0,0,0,3.4.516h.4q.546,0,1.078-.05a.425.425,0,1,1,.079.846q-.572.053-1.157.053m5.928-1.6a.425.425,0,0,1-.215-.791,11.461,11.461,0,0,0,3.582-3.3.424.424,0,1,1,.7.486,12.321,12.321,0,0,1-3.848,3.549.419.419,0,0,1-.214.059m-14.228-1.452a.423.423,0,0,1-.285-.11,12.284,12.284,0,0,1-3.032-4.268.425.425,0,0,1,.782-.332,11.441,11.441,0,0,0,2.821,3.971.424.424,0,0,1-.285.739M277.477,96.5a.425.425,0,0,1-.424-.424V90.986a.424.424,0,0,1,.849,0V96.08a.424.424,0,0,1-.424.424m-95.513-1.3a.425.425,0,0,1-.424-.424V89.687a.424.424,0,1,1,.849,0v5.094a.424.424,0,0,1-.424.424m71.159-2.13a.424.424,0,0,1-.424-.424V87.557a.424.424,0,1,1,.849,0v5.094a.424.424,0,0,1-.424.424m-23.906-.483a.443.443,0,0,1-.074-.007.424.424,0,0,1-.344-.492,11.487,11.487,0,0,0,.174-1.992V87.085a.424.424,0,1,1,.849,0V90.1a12.292,12.292,0,0,1-.188,2.141.425.425,0,0,1-.418.351m-23.734-2.447a.424.424,0,0,1-.424-.424V84.627a.424.424,0,1,1,.849,0v5.094a.424.424,0,0,1-.424.424m71.994-3.829a.425.425,0,0,1-.424-.424V80.8a.424.424,0,0,1,.849,0v5.094a.424.424,0,0,1-.424.424m-95.513-1.3a.425.425,0,0,1-.424-.424V79.5a.424.424,0,1,1,.849,0v5.094a.424.424,0,0,1-.424.424m71.159-2.13a.424.424,0,0,1-.424-.424V77.37a.424.424,0,1,1,.849,0v5.094a.424.424,0,0,1-.424.424M229.4,82.416a.424.424,0,0,1-.424-.424V76.9a.424.424,0,1,1,.849,0v5.094a.424.424,0,0,1-.424.424m-23.915-2.458a.424.424,0,0,1-.424-.424V74.44a.424.424,0,1,1,.849,0v5.094a.424.424,0,0,1-.424.424m71.994-3.829a.425.425,0,0,1-.424-.424V70.611a.424.424,0,0,1,.849,0V75.7a.424.424,0,0,1-.424.424m-95.513-1.3a.425.425,0,0,1-.424-.424V69.312a.424.424,0,1,1,.849,0v5.094a.424.424,0,0,1-.424.424m71.159-2.13a.424.424,0,0,1-.424-.424V67.7q0-.251-.011-.5a.424.424,0,1,1,.848-.037c.008.177.012.357.012.537v4.575a.424.424,0,0,1-.424.424M229.4,72.228a.424.424,0,0,1-.424-.424V67.7q0-.518.042-1.025a.424.424,0,1,1,.846.071c-.026.314-.039.632-.039.953v4.1a.424.424,0,0,1-.424.424m-23.915-2.458a.424.424,0,0,1-.424-.424V64.252a.424.424,0,1,1,.849,0v5.094a.424.424,0,0,1-.424.424m71.994-3.829a.425.425,0,0,1-.424-.424V60.424a.424.424,0,0,1,.849,0v5.094a.424.424,0,0,1-.424.424m-95.513-1.3a.425.425,0,0,1-.424-.424V59.125a.424.424,0,1,1,.849,0v5.094a.424.424,0,0,1-.424.424m146.124-.115a.422.422,0,0,1-.358-.2,5.986,5.986,0,0,0-3.8-2.642.425.425,0,0,1,.175-.831,6.838,6.838,0,0,1,4.342,3.019.424.424,0,0,1-.132.586.418.418,0,0,1-.227.066m-76.275-1.8a.426.426,0,0,1-.378-.229,11.432,11.432,0,0,0-3.115-3.745.425.425,0,1,1,.522-.67,12.3,12.3,0,0,1,3.347,4.024.424.424,0,0,1-.376.62m-20.879-.415a.418.418,0,0,1-.21-.056.424.424,0,0,1-.159-.579,12.325,12.325,0,0,1,3.506-3.887.424.424,0,0,1,.494.689A11.485,11.485,0,0,0,231.3,62.1a.424.424,0,0,1-.369.215m88-.75H313.84a.424.424,0,0,1,0-.849h5.094a.424.424,0,0,1,0,.849m-10.044-1a.427.427,0,0,1-.175-.037,11.787,11.787,0,0,1-4.165-3.178.424.424,0,1,1,.652-.543,10.929,10.929,0,0,0,3.864,2.947.425.425,0,0,1-.176.812m-103.407-.978a.424.424,0,0,1-.424-.424V57.246a11.41,11.41,0,0,0-.409-3.028.425.425,0,0,1,.818-.227,12.258,12.258,0,0,1,.44,3.255v1.913a.424.424,0,0,1-.424.424m38.537-2.916a.416.416,0,0,1-.1-.011,11.393,11.393,0,0,0-2.561-.29h-.205a11.426,11.426,0,0,0-2.116.2.425.425,0,0,1-.157-.835,12.311,12.311,0,0,1,2.273-.211h.205a12.243,12.243,0,0,1,2.752.312.425.425,0,0,1-.1.839m33.456-.913a.425.425,0,0,1-.424-.424V50.236a.424.424,0,0,1,.849,0V55.33a.424.424,0,0,1-.424.424M182.4,54.5a.415.415,0,0,1-.115-.015.424.424,0,0,1-.294-.523,12.08,12.08,0,0,1,2.465-4.619.425.425,0,0,1,.646.552,11.232,11.232,0,0,0-2.294,4.3.423.423,0,0,1-.408.31m120.2-1.5a.425.425,0,0,1-.412-.323,11.745,11.745,0,0,1-.336-2.8,10.928,10.928,0,0,0-.238-2.266.424.424,0,1,1,.83-.177,11.744,11.744,0,0,1,.256,2.442,10.878,10.878,0,0,0,.312,2.593.425.425,0,0,1-.311.514.419.419,0,0,1-.1.013m-99.906-2.928a.425.425,0,0,1-.323-.149,11.433,11.433,0,0,0-3.874-2.954.425.425,0,1,1,.358-.77,12.318,12.318,0,0,1,4.163,3.174.425.425,0,0,1-.324.7M188.8,46.986a.425.425,0,0,1-.178-.81,12.087,12.087,0,0,1,5.1-1.115.431.431,0,0,1,.433.424.417.417,0,0,1-.417.424,11.264,11.264,0,0,0-4.758,1.037.411.411,0,0,1-.177.039m89.649-1.281a.435.435,0,0,1-.173-.037.425.425,0,0,1-.214-.561,11.78,11.78,0,0,1,3.156-4.182.424.424,0,1,1,.546.649,10.925,10.925,0,0,0-2.927,3.879.425.425,0,0,1-.388.251m21.439-2.336a.425.425,0,0,1-.335-.163,10.955,10.955,0,0,0-3.771-3.066.424.424,0,1,1,.374-.762,11.792,11.792,0,0,1,4.066,3.3.424.424,0,0,1-.334.686m-13.9-4a.425.425,0,0,1-.1-.836,11.7,11.7,0,0,1,2.847-.351h2.278a.443.443,0,0,1,.446.424.406.406,0,0,1-.4.424h-2.321a10.86,10.86,0,0,0-2.641.325.427.427,0,0,1-.1.013" transform="translate(-27.421 -5.768)" fill="#25292b"/>
    <path id="Trazado_828426" data-name="Trazado 828426" d="M263.618,56.567a14.23,14.23,0,1,1-14.23-14.23,14.23,14.23,0,0,1,14.23,14.23" transform="translate(-35.52 -6.395)" fill="#2981b7"/>
    <path id="Trazado_828427" data-name="Trazado 828427" d="M244.431,64.184a.778.778,0,0,1-.488-.171l-6.807-5.437a.783.783,0,0,1,0-1.224l6.719-5.367a.783.783,0,1,1,.978,1.224l-5.952,4.755,6.04,4.825a.783.783,0,0,1-.49,1.395" transform="translate(-35.774 -7.826)" fill="#f2e9da"/>
    <path id="Trazado_828428" data-name="Trazado 828428" d="M257.92,64.184a.783.783,0,0,1-.49-1.395l6.04-4.825-5.953-4.755a.783.783,0,1,1,.978-1.224l6.719,5.367a.783.783,0,0,1,0,1.224l-6.807,5.437a.778.778,0,0,1-.488.171" transform="translate(-38.84 -7.826)" fill="#f2e9da"/>
    <path id="Trazado_828429" data-name="Trazado 828429" d="M249.962,65.365a.773.773,0,0,1-.336-.028.784.784,0,0,1-.519-.979l4.212-13.694a.784.784,0,1,1,1.5.461l-4.212,13.694a.784.784,0,0,1-.644.546" transform="translate(-37.622 -7.569)" fill="#f2e9da"/>
    <path id="Trazado_828430" data-name="Trazado 828430" d="M251.7,140.879h2.2a12.421,12.421,0,0,0-1.221-5.357l-1.981.956a10.144,10.144,0,0,0-2.816-3.527l1.372-1.717a12.588,12.588,0,0,0-2.338-1.475,12.388,12.388,0,0,0-2.612-.909l-.486,2.141a10.19,10.19,0,0,0-4.513,0l-.486-2.143a12.411,12.411,0,0,0-2.613.909,12.666,12.666,0,0,0-2.337,1.475l1.372,1.717a10.143,10.143,0,0,0-2.816,3.527l-1.981-.956a12.47,12.47,0,0,0-1.221,5.357h2.2a10.121,10.121,0,0,0,1,4.4l-1.981.956a12.429,12.429,0,0,0,3.426,4.288l1.372-1.719a10.064,10.064,0,0,0,4.065,1.96l-.486,2.143a12.287,12.287,0,0,0,5.486,0l-.486-2.141a10.089,10.089,0,0,0,4.065-1.962l1.372,1.719a12.41,12.41,0,0,0,3.426-4.288l-1.981-.956a10.1,10.1,0,0,0,1-4.4m-10.141,6.955a6.8,6.8,0,1,1,6.8-6.8,6.8,6.8,0,0,1-6.8,6.8" transform="translate(-34.623 -19.462)" fill="#2981b7"/>
    <path id="Trazado_828431" data-name="Trazado 828431" d="M287.5,162.229h4.271a20.574,20.574,0,0,0-.234-2.972,19.418,19.418,0,0,0-.7-2.907,19.01,19.01,0,0,0-2.708-5.307l-3.449,2.51a14.775,14.775,0,0,0-7.379-5.363l1.317-4.061a19.06,19.06,0,0,0-11.76,0l1.319,4.061a14.769,14.769,0,0,0-7.381,5.365l-3.45-2.512a18.448,18.448,0,0,0-1.559,2.544,18.038,18.038,0,0,0-1.146,2.762,19.117,19.117,0,0,0-.7,2.907,20.451,20.451,0,0,0-.231,2.972h4.268a14.691,14.691,0,0,0,2.819,8.677l-3.45,2.51a19.057,19.057,0,0,0,9.512,6.913l1.319-4.057a14.838,14.838,0,0,0,9.124,0l1.317,4.06a19.053,19.053,0,0,0,9.512-6.913l-3.449-2.51a14.69,14.69,0,0,0,2.818-8.677M272.741,170.2a8.436,8.436,0,1,1,8.434-8.436,8.435,8.435,0,0,1-8.434,8.436" transform="translate(-38.322 -21.63)" fill="#2981b7"/>
    <path id="Trazado_828432" data-name="Trazado 828432" d="M269.7,133.9a5.05,5.05,0,1,1-5.05-5.05,5.05,5.05,0,0,1,5.05,5.05" transform="translate(-39.211 -19.462)" fill="#2981b7"/>
    <path id="Trazado_828433" data-name="Trazado 828433" d="M399.658,436.476H.342a.343.343,0,0,1,0-.685H399.658a.343.343,0,0,1,0,.685" transform="translate(0 -65.825)" fill="#25292b"/>
  </g>
</svg>
