<svg xmlns="http://www.w3.org/2000/svg" width="64.93" height="54.345" viewBox="0 0 64.93 54.345">
  <g id="internet" transform="translate(0 -41.732)">
    <g id="Grupo_1065493" data-name="Grupo 1065493" transform="translate(0.951 52.384)">
      <g id="Grupo_1065492" data-name="Grupo 1065492">
        <path id="Trazado_801482" data-name="Trazado 801482" d="M8.131,125.724,7.5,126.861v32.866a3.927,3.927,0,0,0,3.927,3.927H66.6a3.927,3.927,0,0,0,3.927-3.927V126.861l-.631-1.137H8.131Z" transform="translate(-7.5 -125.724)" fill="#ddeafb"/>
      </g>
    </g>
    <g id="Grupo_1065495" data-name="Grupo 1065495" transform="translate(0.951 52.384)">
      <g id="Grupo_1065494" data-name="Grupo 1065494">
        <path id="Trazado_801483" data-name="Trazado 801483" d="M64.1,125.724V153.3a3.927,3.927,0,0,1-3.927,3.927H7.5v2.5a3.927,3.927,0,0,0,3.927,3.927H66.6a3.927,3.927,0,0,0,3.927-3.927V126.861l-.631-1.137H64.1Z" transform="translate(-7.5 -125.724)" fill="#cbe2ff"/>
      </g>
    </g>
    <g id="Grupo_1065497" data-name="Grupo 1065497" transform="translate(0.951 42.683)">
      <g id="Grupo_1065496" data-name="Grupo 1065496">
        <path id="Trazado_801484" data-name="Trazado 801484" d="M66.6,49.232H11.427A3.927,3.927,0,0,0,7.5,53.159v6.91H70.527v-6.91A3.927,3.927,0,0,0,66.6,49.232Z" transform="translate(-7.5 -49.232)" fill="#698ed5"/>
      </g>
    </g>
    <g id="Grupo_1065499" data-name="Grupo 1065499" transform="translate(57.548 42.683)">
      <g id="Grupo_1065498" data-name="Grupo 1065498">
        <path id="Trazado_801485" data-name="Trazado 801485" d="M456.3,49.232h-2.5V60.069h6.43v-6.91A3.927,3.927,0,0,0,456.3,49.232Z" transform="translate(-453.795 -49.232)" fill="#4073c8"/>
      </g>
    </g>
    <g id="Grupo_1065504" data-name="Grupo 1065504" transform="translate(18.403 77.088)">
      <g id="Grupo_1065500" data-name="Grupo 1065500" transform="translate(10.191 10.191)">
        <path id="Trazado_801486" data-name="Trazado 801486" d="M233.141,405.636l-4.744-4.744-2.918,2.918,4.744,4.744a.634.634,0,0,0,.9,0l2.021-2.021a.634.634,0,0,0,0-.9Z" transform="translate(-225.479 -400.892)" fill="#f6f1f1"/>
      </g>
      <g id="Grupo_1065501" data-name="Grupo 1065501" transform="translate(10.191 11.789)">
        <path id="Trazado_801487" data-name="Trazado 801487" d="M232.271,415.77l-1.15,1.15a.634.634,0,0,1-.9,0L226.8,413.5l-1.32,1.32,4.744,4.744a.634.634,0,0,0,.9,0l2.021-2.021a.634.634,0,0,0,0-.9Z" transform="translate(-225.48 -413.496)" fill="#efe7e4"/>
      </g>
      <g id="Grupo_1065502" data-name="Grupo 1065502">
        <path id="Trazado_801488" data-name="Trazado 801488" d="M145.976,320.573l16.757,6.236a.507.507,0,0,1,.182.834l-10.684,10.684a.507.507,0,0,1-.834-.182l-6.236-16.757A.634.634,0,0,1,145.976,320.573Z" transform="translate(-145.119 -320.532)" fill="#f6f1f1"/>
      </g>
      <g id="Grupo_1065503" data-name="Grupo 1065503" transform="translate(0)">
        <path id="Trazado_801489" data-name="Trazado 801489" d="M162.734,326.81,160.551,326l-7.139,7.139a.507.507,0,0,1-.834-.182l-4.287-11.52-2.314-.861a.634.634,0,0,0-.815.815l6.236,16.757a.507.507,0,0,0,.834.182l10.684-10.684A.507.507,0,0,0,162.734,326.81Z" transform="translate(-145.12 -320.532)" fill="#efe7e4"/>
      </g>
    </g>
    <g id="Grupo_1065505" data-name="Grupo 1065505" transform="translate(0 41.732)">
      <path id="Trazado_801490" data-name="Trazado 801490" d="M47.168,249H34.94l-1.279-1.279,3.21-3.21a1.458,1.458,0,0,0-.522-2.4L19.592,235.88a1.585,1.585,0,0,0-2.038,2.039L21.679,249H4.878A2.979,2.979,0,0,1,1.9,246.029V225.511a.951.951,0,1,0-1.9,0v20.518a4.884,4.884,0,0,0,4.878,4.878H22.387l1.4,3.769a1.458,1.458,0,0,0,2.4.523l3.21-3.21,3.268,3.268a1.588,1.588,0,0,0,2.242,0l2.022-2.021a1.587,1.587,0,0,0,0-2.242h0l-.086-.086H47.167a.951.951,0,0,0,0-1.9Zm-13.381,4.682-3.716-3.716a.952.952,0,0,0-1.345,0l-3.394,3.394L19.578,237.9l15.46,5.754-3.394,3.394a.951.951,0,0,0,0,1.345l3.716,3.716Z" transform="translate(0 -201.375)"/>
      <path id="Trazado_801491" data-name="Trazado 801491" d="M60.052,41.732H56.726a.951.951,0,0,0,0,1.9h3.325a2.979,2.979,0,0,1,2.976,2.976v5.959H1.9V46.61a2.979,2.979,0,0,1,2.976-2.976H52.327a.951.951,0,0,0,0-1.9H4.878A4.884,4.884,0,0,0,0,46.61V61.589a.951.951,0,0,0,1.9,0V54.472H63.027V86.386a2.979,2.979,0,0,1-2.976,2.976H51.725a.951.951,0,1,0,0,1.9h8.327a4.884,4.884,0,0,0,4.878-4.878V46.61A4.884,4.884,0,0,0,60.052,41.732Z" transform="translate(0 -41.732)"/>
      <path id="Trazado_801492" data-name="Trazado 801492" d="M49.7,79.831a1.762,1.762,0,1,0,1.762-1.762A1.762,1.762,0,0,0,49.7,79.831Z" transform="translate(-43.396 -73.461)"/>
      <path id="Trazado_801493" data-name="Trazado 801493" d="M92.434,79.831A1.762,1.762,0,1,0,94.2,78.069,1.762,1.762,0,0,0,92.434,79.831Z" transform="translate(-80.712 -73.461)"/>
      <path id="Trazado_801494" data-name="Trazado 801494" d="M135.17,79.831a1.762,1.762,0,1,0,1.762-1.762A1.762,1.762,0,0,0,135.17,79.831Z" transform="translate(-118.028 -73.461)"/>
      <path id="Trazado_801495" data-name="Trazado 801495" d="M63.762,231.089h.005a.951.951,0,0,0,.9-.632l2.356-6.611,2.251,6.6a.951.951,0,0,0,.9.644h0a.951.951,0,0,0,.9-.637l3.194-9.111a.951.951,0,1,0-1.8-.629l-2.284,6.516-2.244-6.577a.958.958,0,0,0-1.8-.012l-2.359,6.62-2.244-6.531a.951.951,0,1,0-1.8.618l3.127,9.1A.951.951,0,0,0,63.762,231.089Z" transform="translate(-52.119 -197.41)"/>
      <path id="Trazado_801496" data-name="Trazado 801496" d="M202.529,231.089h.005a.951.951,0,0,0,.9-.632l2.356-6.611,2.251,6.6a.951.951,0,0,0,.9.644h0a.951.951,0,0,0,.9-.637l3.194-9.111a.951.951,0,0,0-1.8-.629l-2.284,6.516-2.244-6.577a.958.958,0,0,0-1.8-.012l-2.359,6.62-2.244-6.531a.951.951,0,1,0-1.8.618l3.127,9.1A.952.952,0,0,0,202.529,231.089Z" transform="translate(-173.288 -197.41)"/>
      <path id="Trazado_801497" data-name="Trazado 801497" d="M339.044,231.089h.005a.951.951,0,0,0,.9-.632l2.356-6.611,2.251,6.6a.951.951,0,0,0,.9.644h0a.951.951,0,0,0,.9-.637l3.194-9.111a.951.951,0,1,0-1.8-.629l-2.284,6.516-2.244-6.577a.958.958,0,0,0-1.8-.012l-2.359,6.62-2.244-6.531a.951.951,0,0,0-1.8.618l3.127,9.1A.951.951,0,0,0,339.044,231.089Z" transform="translate(-292.491 -197.41)"/>
    </g>
  </g>
</svg>
