<svg xmlns="http://www.w3.org/2000/svg" width="120" height="120" viewBox="0 0 120 120">
  <g id="Grupo_1065453" data-name="Grupo 1065453" transform="translate(-242 -729)">
    <circle id="Elipse_8482" data-name="Elipse 8482" cx="60" cy="60" r="60" transform="translate(242 729)" fill="#2981b7"/>
    <g id="user" transform="translate(268 755)">
      <g id="Grupo_1065443" data-name="Grupo 1065443" transform="translate(17.289 0.997)">
        <g id="Grupo_1065438" data-name="Grupo 1065438" transform="translate(3.942)">
          <path id="Trazado_801381" data-name="Trazado 801381" d="M179.13,9.029H165.883a6.211,6.211,0,0,0-6.211,6.211v7.013h25.669V15.24a6.211,6.211,0,0,0-6.211-6.211Z" transform="translate(-159.672 -9.029)" fill="#a95e2c"/>
        </g>
        <g id="Grupo_1065439" data-name="Grupo 1065439" transform="translate(17.347)">
          <path id="Trazado_801382" data-name="Trazado 801382" d="M266.351,9.029h-5.865a6.4,6.4,0,0,1,6.4,6.4v6.825h5.865V15.428a6.4,6.4,0,0,0-6.4-6.4Z" transform="translate(-260.486 -9.029)" fill="#8f4e24"/>
        </g>
        <g id="Grupo_1065440" data-name="Grupo 1065440" transform="translate(0 7.593)">
          <path id="Trazado_801383" data-name="Trazado 801383" d="M159.88,74.7c-.083-.006-.163-.008-.242-.007V70.4a4.27,4.27,0,0,0-4.271-4.271H138.259a4.27,4.27,0,0,0-4.27,4.271V74.7a2.946,2.946,0,0,0-.421,0c-2.091.154-3.709,1.338-3.526,3.819.179,2.429,2.017,5.2,4.056,5.17a12.826,12.826,0,0,0,25.432,0c1.967-.129,3.7-2.808,3.877-5.166C163.589,76.036,161.971,74.852,159.88,74.7Z" transform="translate(-130.027 -66.132)" fill="#ffcbbe"/>
        </g>
        <g id="Grupo_1065441" data-name="Grupo 1065441" transform="translate(7.879 7.593)">
          <path id="Trazado_801384" data-name="Trazado 801384" d="M211.255,74.7c-.083-.006-.163-.008-.242-.007V70.4a4.27,4.27,0,0,0-4.271-4.271h-.621a4.264,4.264,0,0,1,.234,1.394V79.133a12.831,12.831,0,0,1-17.074,12.1A12.825,12.825,0,0,0,210.9,83.682c1.967-.129,3.7-2.808,3.877-5.166.183-2.481-1.435-3.665-3.526-3.819Z" transform="translate(-189.281 -66.132)" fill="#fdad9d"/>
        </g>
        <g id="Grupo_1065442" data-name="Grupo 1065442" transform="translate(12.732 25.989)">
          <path id="Trazado_801385" data-name="Trazado 801385" d="M232.606,206.481h-5.831a1,1,0,0,1,0-1.994h5.831a1,1,0,1,1,0,1.994Z" transform="translate(-225.778 -204.487)" fill="#fd7b65"/>
        </g>
      </g>
      <g id="Grupo_1065444" data-name="Grupo 1065444" transform="translate(0.997 50.818)">
        <path id="Trazado_801386" data-name="Trazado 801386" d="M72.253,399.575h-8.6l-4.316-.532-4.316.532H25.947l-4.316-.532-4.316.532H8.826A1.329,1.329,0,0,1,7.5,398.246v-5.881l.93-8.647H72.652l.93,8.647v5.881A1.329,1.329,0,0,1,72.253,399.575Z" transform="translate(-7.497 -383.718)" fill="#b1abb5"/>
      </g>
      <g id="Grupo_1065445" data-name="Grupo 1065445" transform="translate(0.997 24.863)">
        <path id="Trazado_801387" data-name="Trazado 801387" d="M73.582,223.119H7.5V189.847a1.33,1.33,0,0,1,1.33-1.33H72.253a1.33,1.33,0,0,1,1.33,1.33Z" transform="translate(-7.497 -188.517)" fill="#786e79"/>
      </g>
      <g id="Grupo_1065446" data-name="Grupo 1065446" transform="translate(57.365 49.622)">
        <path id="Trazado_801388" data-name="Trazado 801388" d="M432.75,374.722V389.25c0,1.93-.6,2.525-1.329,2.525h8.388a1.329,1.329,0,0,0,1.329-1.329v-5.881l-.93-8.647Z" transform="translate(-431.421 -374.722)" fill="#786e79"/>
      </g>
      <g id="Grupo_1065447" data-name="Grupo 1065447" transform="translate(57.365 24.863)">
        <path id="Trazado_801389" data-name="Trazado 801389" d="M439.809,188.517h-8.388a1.329,1.329,0,0,1,1.329,1.329v33.273h8.388V189.846A1.329,1.329,0,0,0,439.809,188.517Z" transform="translate(-431.421 -188.517)" fill="#453e43"/>
      </g>
      <g id="Grupo_1065448" data-name="Grupo 1065448" transform="translate(10.816 63.035)">
        <path id="Trazado_801390" data-name="Trazado 801390" d="M88.646,475.595H82.675a1.33,1.33,0,0,0-1.33,1.33v2.31h8.631v-2.31A1.33,1.33,0,0,0,88.646,475.595Z" transform="translate(-81.345 -475.595)" fill="#786e79"/>
      </g>
      <g id="Grupo_1065449" data-name="Grupo 1065449" transform="translate(48.525 63.035)">
        <path id="Trazado_801391" data-name="Trazado 801391" d="M372.239,475.595h-5.972a1.33,1.33,0,0,0-1.33,1.33v2.31h8.631v-2.31A1.33,1.33,0,0,0,372.239,475.595Z" transform="translate(-364.938 -475.595)" fill="#786e79"/>
      </g>
      <g id="Grupo_1065450" data-name="Grupo 1065450" transform="translate(15.527 63.035)">
        <path id="Trazado_801392" data-name="Trazado 801392" d="M119.363,475.595h-2.591a1.329,1.329,0,0,1,1.329,1.329v2.311h2.591v-2.311A1.329,1.329,0,0,0,119.363,475.595Z" transform="translate(-116.772 -475.595)" fill="#453e43"/>
      </g>
      <g id="Grupo_1065451" data-name="Grupo 1065451" transform="translate(53.235 63.035)">
        <path id="Trazado_801393" data-name="Trazado 801393" d="M402.956,475.595h-2.591a1.329,1.329,0,0,1,1.329,1.329v2.311h2.591v-2.311A1.329,1.329,0,0,0,402.956,475.595Z" transform="translate(-400.365 -475.595)" fill="#453e43"/>
      </g>
      <g id="Grupo_1065452" data-name="Grupo 1065452" transform="translate(0 0)">
        <circle id="Elipse_8480" data-name="Elipse 8480" cx="1.722" cy="1.722" r="1.722" transform="translate(26.192 20.065) rotate(-45)"/>
        <circle id="Elipse_8481" data-name="Elipse 8481" cx="1.722" cy="1.722" r="1.722" transform="translate(37.074 20.066) rotate(-45)"/>
        <path id="Trazado_801394" data-name="Trazado 801394" d="M66.107,61.994a1,1,0,0,0,1.972-.208V27.724A2.329,2.329,0,0,0,65.753,25.4H50.868a7.838,7.838,0,0,0,.794-2.818,4.241,4.241,0,0,0-3.766-4.8V8.737a7.171,7.171,0,0,0-2.01-4.993,1,1,0,0,0-1.437,1.382A5.186,5.186,0,0,1,45.9,8.737V10.27a5.24,5.24,0,0,0-3.274-1.145H25.521a5.241,5.241,0,0,0-3.293,1.161V8.737a5.217,5.217,0,0,1,5.212-5.212H40.691a1,1,0,1,0,0-1.994H27.439a7.213,7.213,0,0,0-7.205,7.205l.019,9.011a4.879,4.879,0,0,0-2.735,1.261,4.312,4.312,0,0,0-1.209,3.57A7.817,7.817,0,0,0,17.1,25.4H2.326A2.329,2.329,0,0,0,0,27.724V66.878A2.329,2.329,0,0,0,2.326,69.2H65.753a2.329,2.329,0,0,0,2.326-2.326,1,1,0,0,0-1.994,0,.333.333,0,0,1-.332.332h-7.6V65.9a2.329,2.329,0,0,0-2.326-2.326H49.854A2.329,2.329,0,0,0,47.528,65.9V67.21H20.444V65.9a2.329,2.329,0,0,0-2.326-2.326H12.145A2.329,2.329,0,0,0,9.819,65.9V67.21H2.326a.333.333,0,0,1-.332-.332V61.994ZM49.522,65.9a.333.333,0,0,1,.332-.332h5.973a.333.333,0,0,1,.332.332V67.21H49.522Zm-37.709,0a.333.333,0,0,1,.332-.332h5.973a.333.333,0,0,1,.332.332V67.21H11.813Zm7.494-40.655A6.023,6.023,0,0,1,18.3,22.433a2.406,2.406,0,0,1,.611-1.995,3.148,3.148,0,0,1,1.994-.757c.469.052,1.333-.139,1.344-.995V14.392a3.277,3.277,0,0,1,3.274-3.274H42.629A3.277,3.277,0,0,1,45.9,14.392V18.68a1.057,1.057,0,0,0,1.166,1c1.274.094,2.76.647,2.605,2.752A6.032,6.032,0,0,1,48.553,25.4H19.394a1,1,0,0,0-.087-.157ZM1.994,27.724a.333.333,0,0,1,.332-.332H65.753a.333.333,0,0,1,.332.332V60H1.994Z" transform="translate(0 -1.532)"/>
        <path id="Trazado_801395" data-name="Trazado 801395" d="M164.764,214.669a13.8,13.8,0,0,0-10.109,4.346,1,1,0,0,0,1.447,1.372,11.829,11.829,0,0,1,8.662-3.724,11.926,11.926,0,1,1-11.021,7.343,1,1,0,0,0-1.84-.768,13.932,13.932,0,1,0,12.86-8.568Z" transform="translate(-130.778 -186.329)"/>
      </g>
    </g>
  </g>
</svg>
