<svg xmlns="http://www.w3.org/2000/svg" width="80" height="80" viewBox="0 0 80 80">
  <g id="Grupo_1065487" data-name="Grupo 1065487" transform="translate(-285 -1584)">
    <rect id="Rectángulo_374183" data-name="Rectángulo 374183" width="80" height="80" rx="5" transform="translate(285 1584)" fill="#f7cd00"/>
    <g id="data-analytics" transform="translate(292 1591)">
      <path id="Trazado_801462" data-name="Trazado 801462" d="M41.075,35.044l-4.022-4.02a1.422,1.422,0,0,0-2.01,0l-4.02,4.02a1.422,1.422,0,0,0,0,2.01l4.022,4.022a1.422,1.422,0,0,0,2.01,0l4.022-4.022a1.422,1.422,0,0,0,0-2.01Z" transform="translate(11.638 11.638)" fill="#73c3f9"/>
      <path id="Trazado_801463" data-name="Trazado 801463" d="M49.465,37.4l-4.012-4.012a4.265,4.265,0,0,0-6.03,0l-6.032,6.032a4.265,4.265,0,0,0,0,6.03L37.4,49.465a4.265,4.265,0,0,0,6.032,0l6.03-6.03A4.265,4.265,0,0,0,49.465,37.4Z" transform="translate(12.286 12.286)" fill="#73c3f9"/>
      <circle id="Elipse_8489" data-name="Elipse 8489" cx="25.588" cy="25.588" r="25.588" transform="translate(3 3)" fill="#73c3f9"/>
      <circle id="Elipse_8490" data-name="Elipse 8490" cx="19.902" cy="19.902" r="19.902" transform="translate(8.686 8.686)" fill="#fff"/>
      <g id="Grupo_1065488" data-name="Grupo 1065488" transform="translate(3 3)">
        <path id="Trazado_801464" data-name="Trazado 801464" d="M7.265,42.529a4.265,4.265,0,1,1,4.265-4.265A4.265,4.265,0,0,1,7.265,42.529Zm0-5.686a1.422,1.422,0,1,0,1.422,1.422A1.422,1.422,0,0,0,7.265,36.843Z" transform="translate(-3 10.069)" fill="#232323"/>
        <path id="Trazado_801465" data-name="Trazado 801465" d="M17.265,47.529a4.265,4.265,0,1,1,4.265-4.265A4.265,4.265,0,0,1,17.265,47.529Zm0-5.686a1.422,1.422,0,1,0,1.422,1.422A1.422,1.422,0,0,0,17.265,41.843Z" transform="translate(1.216 12.177)" fill="#232323"/>
        <path id="Trazado_801466" data-name="Trazado 801466" d="M10.265,46.53a1.422,1.422,0,0,1-1.272-.786L6.15,40.057a1.422,1.422,0,0,1,2.545-1.271L11.051,43.5l6.037-1.207a1.422,1.422,0,1,1,.557,2.786L10.538,46.5a1.333,1.333,0,0,1-.273.028Z" transform="translate(-1.736 11.755)" fill="#232323"/>
        <path id="Trazado_801467" data-name="Trazado 801467" d="M40.265,11.529a4.265,4.265,0,1,1,4.265-4.265A4.265,4.265,0,0,1,40.265,11.529Zm0-5.686a1.422,1.422,0,1,0,1.422,1.422A1.422,1.422,0,0,0,40.265,5.843Z" transform="translate(10.912 -3)" fill="#232323"/>
        <path id="Trazado_801468" data-name="Trazado 801468" d="M43.265,19.529a4.265,4.265,0,1,1,4.265-4.265A4.265,4.265,0,0,1,43.265,19.529Zm0-5.686a1.422,1.422,0,1,0,1.422,1.422A1.422,1.422,0,0,0,43.265,13.843Z" transform="translate(12.177 0.373)" fill="#232323"/>
        <path id="Trazado_801469" data-name="Trazado 801469" d="M41.845,15.539a1.422,1.422,0,0,1-1.378-1.078L39.046,8.775A1.422,1.422,0,1,1,41.8,8.087l1.422,5.686A1.422,1.422,0,0,1,42.192,15.5a1.457,1.457,0,0,1-.347.043Z" transform="translate(12.175 -1.323)" fill="#232323"/>
      </g>
      <path id="Trazado_801470" data-name="Trazado 801470" d="M15.421,25.216a1.422,1.422,0,0,1-.2-2.829A19.077,19.077,0,0,0,29.779,11.8a1.423,1.423,0,1,1,2.559,1.244A21.921,21.921,0,0,1,15.62,25.2a1.371,1.371,0,0,1-.2.014Z" transform="translate(4.638 3.372)" fill="#fc5692"/>
      <path id="Trazado_801471" data-name="Trazado 801471" d="M29.529,19.529a1.422,1.422,0,0,1-1.378-1.078l-1.078-4.306-4.306,1.076a1.422,1.422,0,1,1-.691-2.758l5.686-1.422a1.422,1.422,0,0,1,1.724,1.035l1.422,5.686a1.422,1.422,0,0,1-1.033,1.723,1.457,1.457,0,0,1-.347.043Z" transform="translate(7.589 3.372)" fill="#fc5692"/>
      <path id="Trazado_801472" data-name="Trazado 801472" d="M27.422,35.059A1.422,1.422,0,0,1,26,33.637V19.422a1.422,1.422,0,0,1,2.843,0V33.637A1.422,1.422,0,0,1,27.422,35.059Z" transform="translate(9.696 6.324)" fill="#fcdd2e"/>
      <path id="Trazado_801473" data-name="Trazado 801473" d="M23.422,34.216A1.422,1.422,0,0,1,22,32.794V21.422a1.422,1.422,0,0,1,2.843,0V32.794A1.422,1.422,0,0,1,23.422,34.216Z" transform="translate(8.01 7.167)" fill="#fcdd2e"/>
      <path id="Trazado_801474" data-name="Trazado 801474" d="M19.422,33.373A1.422,1.422,0,0,1,18,31.951V23.422a1.422,1.422,0,0,1,2.843,0v8.529A1.422,1.422,0,0,1,19.422,33.373Z" transform="translate(6.324 8.01)" fill="#fcdd2e"/>
      <path id="Trazado_801475" data-name="Trazado 801475" d="M15.422,32.529A1.422,1.422,0,0,1,14,31.108V25.422a1.422,1.422,0,0,1,2.843,0v5.686A1.422,1.422,0,0,1,15.422,32.529Z" transform="translate(4.637 8.853)" fill="#fcdd2e"/>
      <path id="Trazado_801476" data-name="Trazado 801476" d="M28.588,54.177A25.588,25.588,0,1,1,54.177,28.588,25.588,25.588,0,0,1,28.588,54.177Zm0-48.333A22.745,22.745,0,1,0,51.333,28.588,22.745,22.745,0,0,0,28.588,5.843Z" transform="translate(0 0)" fill="#232323"/>
      <path id="Trazado_801477" data-name="Trazado 801477" d="M26.9,46.8A19.9,19.9,0,1,1,46.8,26.9a1.422,1.422,0,0,1-2.843,0A17.059,17.059,0,1,0,40.72,36.908a1.422,1.422,0,1,1,2.3,1.669A19.974,19.974,0,0,1,26.9,46.8Z" transform="translate(1.686 1.686)" fill="#232323"/>
      <path id="Trazado_801478" data-name="Trazado 801478" d="M40.42,50.7A4.252,4.252,0,0,1,37.4,49.453l-4.012-4.012a4.265,4.265,0,0,1,0-6.032l6.032-6.03a4.364,4.364,0,0,1,6.03,0l4.012,4.012a4.265,4.265,0,0,1,0,6.032l-6.03,6.03A4.252,4.252,0,0,1,40.42,50.7Zm2.019-15.728a1.412,1.412,0,0,0-1.005.417L35.4,41.421a1.422,1.422,0,0,0,0,2.009l4.012,4.013a1.422,1.422,0,0,0,2.012,0l6.03-6.03a1.422,1.422,0,0,0,0-2.012L43.443,35.39a1.412,1.412,0,0,0-1.005-.417Z" transform="translate(12.285 12.297)" fill="#232323"/>
      <path id="Trazado_801479" data-name="Trazado 801479" d="M36.049,41.492a1.421,1.421,0,0,1-1-.416l-4.02-4.022a1.422,1.422,0,0,1,0-2.01l4.02-4.02a1.422,1.422,0,0,1,2.01,0l4.022,4.022a1.422,1.422,0,0,1,0,2.01l-4.022,4.022A1.422,1.422,0,0,1,36.049,41.492Zm-2.01-5.443,2.01,2.012,2.012-2.012-2.012-2.01Z" transform="translate(11.638 11.638)" fill="#232323"/>
    </g>
  </g>
</svg>
