<svg xmlns="http://www.w3.org/2000/svg" width="120" height="120" viewBox="0 0 120 120">
  <g id="Grupo_1065454" data-name="Grupo 1065454" transform="translate(-412 -729)">
    <circle id="Elipse_8483" data-name="Elipse 8483" cx="60" cy="60" r="60" transform="translate(412 729)" fill="#2981b7"/>
    <g id="gpu" transform="translate(438 758)">
      <g id="Grupo_1065367" data-name="Grupo 1065367" transform="translate(46.75 51.915)">
        <path id="Trazado_801313" data-name="Trazado 801313" d="M351.588,413.411h6.584v3.539a1.186,1.186,0,0,1-1.186,1.186h-4.212a1.186,1.186,0,0,1-1.186-1.186v-3.539Z" transform="translate(-351.588 -413.411)" fill="#b1abb5"/>
      </g>
      <g id="Grupo_1065368" data-name="Grupo 1065368" transform="translate(36.078 51.915)">
        <path id="Trazado_801314" data-name="Trazado 801314" d="M271.329,413.411h6.584v3.539a1.186,1.186,0,0,1-1.186,1.186h-4.212a1.186,1.186,0,0,1-1.186-1.186v-3.539Z" transform="translate(-271.329 -413.411)" fill="#b1abb5"/>
      </g>
      <g id="Grupo_1065369" data-name="Grupo 1065369" transform="translate(25.406 51.915)">
        <path id="Trazado_801315" data-name="Trazado 801315" d="M191.069,413.411h6.584v3.539a1.186,1.186,0,0,1-1.186,1.186h-4.212a1.186,1.186,0,0,1-1.186-1.186v-3.539Z" transform="translate(-191.069 -413.411)" fill="#b1abb5"/>
      </g>
      <g id="Grupo_1065370" data-name="Grupo 1065370" transform="translate(14.734 51.915)">
        <path id="Trazado_801316" data-name="Trazado 801316" d="M110.809,413.411h6.584v3.539a1.186,1.186,0,0,1-1.186,1.186h-4.212a1.186,1.186,0,0,1-1.186-1.186v-3.539Z" transform="translate(-110.809 -413.411)" fill="#b1abb5"/>
      </g>
      <g id="Grupo_1065371" data-name="Grupo 1065371" transform="translate(14.734 5.329)">
        <path id="Trazado_801317" data-name="Trazado 801317" d="M117.394,67.777H110.81V64.238A1.186,1.186,0,0,1,112,63.052h4.212a1.186,1.186,0,0,1,1.186,1.186v3.539Z" transform="translate(-110.81 -63.052)" fill="#b1abb5"/>
      </g>
      <g id="Grupo_1065372" data-name="Grupo 1065372" transform="translate(25.406 5.329)">
        <path id="Trazado_801318" data-name="Trazado 801318" d="M197.653,67.777h-6.584V64.238a1.186,1.186,0,0,1,1.186-1.186h4.212a1.186,1.186,0,0,1,1.186,1.186v3.539Z" transform="translate(-191.069 -63.052)" fill="#b1abb5"/>
      </g>
      <g id="Grupo_1065373" data-name="Grupo 1065373" transform="translate(36.078 5.329)">
        <path id="Trazado_801319" data-name="Trazado 801319" d="M277.913,67.777h-6.584V64.238a1.186,1.186,0,0,1,1.186-1.186h4.212a1.186,1.186,0,0,1,1.186,1.186v3.539Z" transform="translate(-271.329 -63.052)" fill="#b1abb5"/>
      </g>
      <g id="Grupo_1065374" data-name="Grupo 1065374" transform="translate(46.75 5.329)">
        <path id="Trazado_801320" data-name="Trazado 801320" d="M358.173,67.777h-6.584V64.238a1.186,1.186,0,0,1,1.186-1.186h4.212a1.186,1.186,0,0,1,1.186,1.186v3.539Z" transform="translate(-351.589 -63.052)" fill="#b1abb5"/>
      </g>
      <g id="Grupo_1065375" data-name="Grupo 1065375" transform="translate(49.719 51.915)">
        <path id="Trazado_801321" data-name="Trazado 801321" d="M375.1,413.411v3.542a1.183,1.183,0,0,1-1.183,1.183h2.432a1.183,1.183,0,0,0,1.183-1.183v-3.542Z" transform="translate(-373.917 -413.411)" fill="#786e79"/>
      </g>
      <g id="Grupo_1065376" data-name="Grupo 1065376" transform="translate(39.047 51.915)">
        <path id="Trazado_801322" data-name="Trazado 801322" d="M294.84,413.411v3.542a1.183,1.183,0,0,1-1.183,1.183h2.432a1.183,1.183,0,0,0,1.183-1.183v-3.542Z" transform="translate(-293.657 -413.411)" fill="#786e79"/>
      </g>
      <g id="Grupo_1065377" data-name="Grupo 1065377" transform="translate(28.375 51.915)">
        <path id="Trazado_801323" data-name="Trazado 801323" d="M214.58,413.411v3.542a1.183,1.183,0,0,1-1.183,1.183h2.432a1.183,1.183,0,0,0,1.183-1.183v-3.542Z" transform="translate(-213.397 -413.411)" fill="#786e79"/>
      </g>
      <g id="Grupo_1065378" data-name="Grupo 1065378" transform="translate(17.703 51.915)">
        <path id="Trazado_801324" data-name="Trazado 801324" d="M134.321,413.411v3.542a1.183,1.183,0,0,1-1.183,1.183h2.432a1.183,1.183,0,0,0,1.183-1.183v-3.542Z" transform="translate(-133.138 -413.411)" fill="#786e79"/>
      </g>
      <g id="Grupo_1065379" data-name="Grupo 1065379" transform="translate(17.703 5.329)">
        <path id="Trazado_801325" data-name="Trazado 801325" d="M135.57,63.052h-2.432a1.183,1.183,0,0,1,1.183,1.183v3.542h2.432V64.235A1.183,1.183,0,0,0,135.57,63.052Z" transform="translate(-133.138 -63.052)" fill="#786e79"/>
      </g>
      <g id="Grupo_1065380" data-name="Grupo 1065380" transform="translate(28.375 5.329)">
        <path id="Trazado_801326" data-name="Trazado 801326" d="M215.829,63.052H213.4a1.183,1.183,0,0,1,1.183,1.183v3.542h2.432V64.235A1.183,1.183,0,0,0,215.829,63.052Z" transform="translate(-213.397 -63.052)" fill="#786e79"/>
      </g>
      <g id="Grupo_1065381" data-name="Grupo 1065381" transform="translate(39.047 5.329)">
        <path id="Trazado_801327" data-name="Trazado 801327" d="M296.089,63.052h-2.432a1.183,1.183,0,0,1,1.183,1.183v3.542h2.432V64.235A1.183,1.183,0,0,0,296.089,63.052Z" transform="translate(-293.657 -63.052)" fill="#786e79"/>
      </g>
      <g id="Grupo_1065382" data-name="Grupo 1065382" transform="translate(49.719 5.329)">
        <path id="Trazado_801328" data-name="Trazado 801328" d="M376.349,63.052h-2.432a1.183,1.183,0,0,1,1.183,1.183v3.542h2.432V64.235A1.183,1.183,0,0,0,376.349,63.052Z" transform="translate(-373.917 -63.052)" fill="#786e79"/>
      </g>
      <g id="Grupo_1065383" data-name="Grupo 1065383" transform="translate(5.196 43.7)">
        <path id="Trazado_801329" data-name="Trazado 801329" d="M43.8,351.631v6.584H40.265a1.186,1.186,0,0,1-1.186-1.186v-4.212a1.186,1.186,0,0,1,1.186-1.186H43.8Z" transform="translate(-39.079 -351.631)" fill="#b1abb5"/>
      </g>
      <g id="Grupo_1065384" data-name="Grupo 1065384" transform="translate(5.196 33.029)">
        <path id="Trazado_801330" data-name="Trazado 801330" d="M43.8,271.372v6.584H40.265a1.186,1.186,0,0,1-1.186-1.186v-4.212a1.186,1.186,0,0,1,1.186-1.186Z" transform="translate(-39.079 -271.372)" fill="#b1abb5"/>
      </g>
      <g id="Grupo_1065385" data-name="Grupo 1065385" transform="translate(5.196 22.357)">
        <path id="Trazado_801331" data-name="Trazado 801331" d="M43.8,191.112V197.7H40.265a1.186,1.186,0,0,1-1.186-1.186V192.3a1.186,1.186,0,0,1,1.186-1.186Z" transform="translate(-39.079 -191.112)" fill="#b1abb5"/>
      </g>
      <g id="Grupo_1065386" data-name="Grupo 1065386" transform="translate(5.196 11.685)">
        <path id="Trazado_801332" data-name="Trazado 801332" d="M43.8,110.852v6.584H40.265a1.186,1.186,0,0,1-1.186-1.186v-4.212a1.186,1.186,0,0,1,1.186-1.186H43.8Z" transform="translate(-39.079 -110.852)" fill="#b1abb5"/>
      </g>
      <g id="Grupo_1065387" data-name="Grupo 1065387" transform="translate(6.145 43.7)">
        <path id="Trazado_801333" data-name="Trazado 801333" d="M46.445,351.631a1.187,1.187,0,0,0-.235.024v6.537a1.189,1.189,0,0,0,.235.024h3.542v-6.584Z" transform="translate(-46.21 -351.631)" fill="#786e79"/>
      </g>
      <g id="Grupo_1065388" data-name="Grupo 1065388" transform="translate(6.145 33.029)">
        <path id="Trazado_801334" data-name="Trazado 801334" d="M46.445,271.372a1.192,1.192,0,0,0-.235.023v6.537a1.189,1.189,0,0,0,.235.024h3.542v-6.584Z" transform="translate(-46.21 -271.372)" fill="#786e79"/>
      </g>
      <g id="Grupo_1065389" data-name="Grupo 1065389" transform="translate(6.145 22.357)">
        <path id="Trazado_801335" data-name="Trazado 801335" d="M46.445,191.112a1.19,1.19,0,0,0-.235.024v6.537a1.189,1.189,0,0,0,.235.024h3.542v-6.584Z" transform="translate(-46.21 -191.112)" fill="#786e79"/>
      </g>
      <g id="Grupo_1065390" data-name="Grupo 1065390" transform="translate(6.145 11.685)">
        <path id="Trazado_801336" data-name="Trazado 801336" d="M46.445,110.852a1.19,1.19,0,0,0-.235.024v6.537a1.192,1.192,0,0,0,.235.024h3.542v-6.584Z" transform="translate(-46.21 -110.852)" fill="#786e79"/>
      </g>
      <g id="Grupo_1065391" data-name="Grupo 1065391" transform="translate(58.158 11.685)">
        <path id="Trazado_801337" data-name="Trazado 801337" d="M437.385,117.437v-6.584h3.539a1.186,1.186,0,0,1,1.186,1.186v4.212a1.186,1.186,0,0,1-1.186,1.186h-3.539Z" transform="translate(-437.385 -110.853)" fill="#b1abb5"/>
      </g>
      <g id="Grupo_1065392" data-name="Grupo 1065392" transform="translate(58.158 22.357)">
        <path id="Trazado_801338" data-name="Trazado 801338" d="M437.385,197.7v-6.584h3.539a1.186,1.186,0,0,1,1.186,1.186v4.212a1.186,1.186,0,0,1-1.186,1.186h-3.539Z" transform="translate(-437.385 -191.112)" fill="#b1abb5"/>
      </g>
      <g id="Grupo_1065393" data-name="Grupo 1065393" transform="translate(58.158 33.029)">
        <path id="Trazado_801339" data-name="Trazado 801339" d="M437.385,277.956v-6.584h3.539a1.186,1.186,0,0,1,1.186,1.186v4.212a1.186,1.186,0,0,1-1.186,1.186h-3.539Z" transform="translate(-437.385 -271.372)" fill="#b1abb5"/>
      </g>
      <g id="Grupo_1065394" data-name="Grupo 1065394" transform="translate(58.158 43.701)">
        <path id="Trazado_801340" data-name="Trazado 801340" d="M437.385,358.216v-6.584h3.539a1.186,1.186,0,0,1,1.186,1.186v4.212a1.186,1.186,0,0,1-1.186,1.186h-3.539Z" transform="translate(-437.385 -351.632)" fill="#b1abb5"/>
      </g>
      <g id="Grupo_1065395" data-name="Grupo 1065395" transform="translate(59.337 11.685)">
        <path id="Trazado_801341" data-name="Trazado 801341" d="M448.617,110.852h-2.363a1.183,1.183,0,0,1,1.183,1.183v4.217a1.183,1.183,0,0,1-1.183,1.183h2.363a1.183,1.183,0,0,0,1.183-1.183v-4.217A1.183,1.183,0,0,0,448.617,110.852Z" transform="translate(-446.254 -110.852)" fill="#786e79"/>
      </g>
      <g id="Grupo_1065396" data-name="Grupo 1065396" transform="translate(59.337 22.357)">
        <path id="Trazado_801342" data-name="Trazado 801342" d="M448.617,191.112h-2.363a1.183,1.183,0,0,1,1.183,1.183v4.217a1.183,1.183,0,0,1-1.183,1.183h2.363a1.183,1.183,0,0,0,1.183-1.183V192.3A1.183,1.183,0,0,0,448.617,191.112Z" transform="translate(-446.254 -191.112)" fill="#786e79"/>
      </g>
      <g id="Grupo_1065397" data-name="Grupo 1065397" transform="translate(59.337 33.029)">
        <path id="Trazado_801343" data-name="Trazado 801343" d="M448.617,271.372h-2.363a1.183,1.183,0,0,1,1.183,1.183v4.217a1.183,1.183,0,0,1-1.183,1.183h2.363a1.183,1.183,0,0,0,1.183-1.183v-4.217A1.183,1.183,0,0,0,448.617,271.372Z" transform="translate(-446.254 -271.372)" fill="#786e79"/>
      </g>
      <g id="Grupo_1065398" data-name="Grupo 1065398" transform="translate(59.337 43.7)">
        <path id="Trazado_801344" data-name="Trazado 801344" d="M448.617,351.631h-2.363a1.183,1.183,0,0,1,1.183,1.183v4.217a1.183,1.183,0,0,1-1.183,1.183h2.363a1.183,1.183,0,0,0,1.183-1.183v-4.217A1.183,1.183,0,0,0,448.617,351.631Z" transform="translate(-446.254 -351.631)" fill="#786e79"/>
      </g>
      <g id="Grupo_1065399" data-name="Grupo 1065399" transform="translate(9.156 9.272)">
        <path id="Trazado_801345" data-name="Trazado 801345" d="M72.849,92.7h41.778a3.989,3.989,0,0,1,3.989,3.989v35.448a3.989,3.989,0,0,1-3.989,3.989H72.849a3.989,3.989,0,0,1-3.989-3.989V96.693A3.989,3.989,0,0,1,72.849,92.7Z" transform="translate(-68.86 -92.704)" fill="#786e79"/>
      </g>
      <g id="Grupo_1065400" data-name="Grupo 1065400" transform="translate(9.156 9.272)">
        <path id="Trazado_801346" data-name="Trazado 801346" d="M114.635,92.7H113.28v34.11a3.98,3.98,0,0,1-3.98,3.98H68.86v1.356a3.98,3.98,0,0,0,3.98,3.98h41.795a3.98,3.98,0,0,0,3.98-3.98V96.684a3.981,3.981,0,0,0-3.98-3.98Z" transform="translate(-68.86 -92.704)" fill="#453e43"/>
      </g>
      <g id="Grupo_1065401" data-name="Grupo 1065401" transform="translate(0 0)">
        <path id="Trazado_801347" data-name="Trazado 801347" d="M61.7,52.911a2.181,2.181,0,0,0,2.178-2.178V49.619h3.206a1,1,0,0,0,0-1.99H63.878V46.515A2.181,2.181,0,0,0,61.7,44.337H59.907v-2.1H61.7a2.181,2.181,0,0,0,2.178-2.178V38.947h3.206a1,1,0,0,0,0-1.99H63.878V35.843A2.181,2.181,0,0,0,61.7,33.665h-2.39a1,1,0,0,0-.112.007,4.977,4.977,0,0,0-4.267-2.42h-.6V29.487a2.181,2.181,0,0,0-2.178-2.178H51.037V23.97a1,1,0,0,0-1.99,0v3.339H47.933a2.181,2.181,0,0,0-2.178,2.178v1.764h-2.1V29.487a2.181,2.181,0,0,0-2.178-2.178H40.365V23.97a1,1,0,1,0-1.99,0v3.339H37.261a2.181,2.181,0,0,0-2.178,2.178v1.764h-2.1V29.487a2.181,2.181,0,0,0-2.178-2.178H29.693V23.97a1,1,0,1,0-1.99,0v3.339H26.589a2.181,2.181,0,0,0-2.178,2.178v1.764h-2.1V29.487a2.181,2.181,0,0,0-2.178-2.178H19.021V23.97a1,1,0,1,0-1.99,0v3.339H15.918a2.181,2.181,0,0,0-2.178,2.178v1.764h-.6a4.977,4.977,0,0,0-4.279,2.441.993.993,0,0,0-.232-.028H6.38A2.181,2.181,0,0,0,4.2,35.843v1.114H1a1,1,0,0,0,0,1.99H4.2v1.114A2.181,2.181,0,0,0,6.38,42.239H8.161v2.1H6.38A2.181,2.181,0,0,0,4.2,46.515v1.114H1a1,1,0,0,0,0,1.99H4.2v1.114A2.181,2.181,0,0,0,6.38,52.911H8.161v2.1H6.38A2.181,2.181,0,0,0,4.2,57.187V58.3H1a1,1,0,0,0,0,1.99H4.2V61.4A2.181,2.181,0,0,0,6.38,63.583H8.161v2.1H6.38A2.181,2.181,0,0,0,4.2,67.859v1.114H1a1,1,0,0,0,0,1.99H4.2v1.114A2.181,2.181,0,0,0,6.38,74.255H8.873a4.977,4.977,0,0,0,4.263,2.413h.6v1.764a2.181,2.181,0,0,0,2.178,2.178h1.114v3.339a1,1,0,1,0,1.99,0V80.611h1.114a2.181,2.181,0,0,0,2.178-2.178V76.668h2.1v1.764a2.181,2.181,0,0,0,2.178,2.178H27.7v3.339a1,1,0,1,0,1.99,0V80.611h1.114a2.181,2.181,0,0,0,2.178-2.178V76.668h2.1v1.764a2.181,2.181,0,0,0,2.178,2.178h1.114v3.339a1,1,0,0,0,1.99,0V80.611h1.114a2.181,2.181,0,0,0,2.178-2.178V76.668h8.682v1.764a.188.188,0,0,1-.188.188h-2.9a1,1,0,0,0-.2,1.97v3.359a1,1,0,1,0,1.99,0V80.611H52.15a2.181,2.181,0,0,0,2.178-2.178V76.668h.6a4.977,4.977,0,0,0,4.263-2.413H61.7a2.181,2.181,0,0,0,2.178-2.178V70.963h3.206a1,1,0,1,0,0-1.99H63.878V67.859A2.181,2.181,0,0,0,61.7,65.681H59.906v-2.1H61.7A2.181,2.181,0,0,0,63.878,61.4V60.291h3.206a1,1,0,1,0,0-1.99H63.878V57.187A2.181,2.181,0,0,0,61.7,55.009H59.906v-2.1Zm0-6.584a.188.188,0,0,1,.188.188v4.217a.188.188,0,0,1-.188.188H59.907V46.327H61.7Zm0-10.672a.188.188,0,0,1,.188.188v4.217a.188.188,0,0,1-.188.188H59.907V36.227a5.021,5.021,0,0,0-.034-.572ZM47.745,29.487a.188.188,0,0,1,.188-.188H52.15a.188.188,0,0,1,.188.188v1.764H47.745Zm-10.672,0a.188.188,0,0,1,.188-.188h4.217a.188.188,0,0,1,.188.188v1.764H37.073Zm-10.672,0a.188.188,0,0,1,.188-.188h4.217a.188.188,0,0,1,.188.188v1.764H26.4Zm-10.672,0a.188.188,0,0,1,.188-.188h4.217a.188.188,0,0,1,.188.188v1.764H15.729ZM6.38,40.249a.188.188,0,0,1-.188-.188V35.843a.188.188,0,0,1,.188-.188H8.2a4.99,4.99,0,0,0-.034.572v4.022H6.38Zm0,10.672a.188.188,0,0,1-.188-.188V46.515a.188.188,0,0,1,.188-.188H8.161v4.594H6.38Zm0,10.672a.188.188,0,0,1-.188-.188V57.187A.188.188,0,0,1,6.38,57H8.161v4.594H6.38Zm0,10.672a.188.188,0,0,1-.188-.188V67.859a.188.188,0,0,1,.188-.188H8.161v4.022a4.991,4.991,0,0,0,.034.572H6.38Zm13.943,6.168a.188.188,0,0,1-.188.188H15.917a.188.188,0,0,1-.188-.188V76.668h4.594Zm10.672,0a.188.188,0,0,1-.188.188H26.589a.188.188,0,0,1-.188-.188V76.668h4.594Zm10.672,0a.188.188,0,0,1-.188.188H37.261a.188.188,0,0,1-.188-.188V76.668h4.594Zm16.25-6.74a2.989,2.989,0,0,1-2.985,2.985H13.136a2.989,2.989,0,0,1-2.985-2.985V36.227a2.989,2.989,0,0,1,2.985-2.985H54.931a2.989,2.989,0,0,1,2.985,2.985ZM61.7,67.671a.188.188,0,0,1,.188.188v4.217a.188.188,0,0,1-.188.188H59.873a4.99,4.99,0,0,0,.034-.572V67.671H61.7ZM61.7,57a.188.188,0,0,1,.188.188V61.4a.188.188,0,0,1-.188.188H59.907V57H61.7Z" transform="translate(0 -22.975)"/>
        <path id="Trazado_801348" data-name="Trazado 801348" d="M145.952,244.375h-3.621a1,1,0,1,0,0,1.99h2.559c-.282,2.048-1.478,4.063-4.162,4.063a5.046,5.046,0,0,1-3.393-1.307A1,1,0,0,0,136,250.6a7.033,7.033,0,0,0,4.728,1.821c3.662,0,6.22-2.9,6.22-7.048A1,1,0,0,0,145.952,244.375Z" transform="translate(-117.631 -214.936)"/>
        <path id="Trazado_801349" data-name="Trazado 801349" d="M127.735,200.844a5.03,5.03,0,0,1,2.827.863,1,1,0,1,0,1.114-1.649,7.049,7.049,0,0,0-10.99,5.844,1,1,0,0,0,1.99,0A5.064,5.064,0,0,1,127.735,200.844Z" transform="translate(-104.64 -175.468)"/>
        <path id="Trazado_801350" data-name="Trazado 801350" d="M377.325,198.853a1,1,0,0,0-1,1v2.565a1,1,0,1,0,1.99,0v-2.565A1,1,0,0,0,377.325,198.853Z" transform="translate(-326.291 -175.467)"/>
        <path id="Trazado_801351" data-name="Trazado 801351" d="M322.473,206.1a1,1,0,0,0-1,1v1.076a2.581,2.581,0,0,1-1.734,2.438,3.4,3.4,0,0,1-1.545.351h-.006a3.106,3.106,0,0,1-1.7-.482,2.572,2.572,0,0,1-1.44-2.3v-8.33a1,1,0,0,0-1.99,0v8.33a4.514,4.514,0,0,0,2.359,3.976,5.065,5.065,0,0,0,2.766.795h.009a5.373,5.373,0,0,0,2.44-.564,4.563,4.563,0,0,0,2.829-4.216v-1.076a1,1,0,0,0-1-1Z" transform="translate(-271.439 -175.468)"/>
        <path id="Trazado_801352" data-name="Trazado 801352" d="M238.674,198.852H235.3a1.006,1.006,0,0,0-1,1v12.106a1,1,0,1,0,1.99,0v-4.269c.78,0,1.833-.009,2.376-.009a4.412,4.412,0,1,0,0-8.823Zm0,6.833c-.54,0-1.579.005-2.358.009,0-.8-.009-1.879-.009-2.431,0-.466,0-1.588-.005-2.421h2.373a2.422,2.422,0,1,1,0,4.842Z" transform="translate(-203.153 -175.466)"/>
      </g>
    </g>
  </g>
</svg>
