<svg xmlns="http://www.w3.org/2000/svg" width="120" height="120" viewBox="0 0 120 120">
  <g id="Grupo_1065455" data-name="Grupo 1065455" transform="translate(-652 -729)">
    <circle id="Elipse_8484" data-name="Elipse 8484" cx="60" cy="60" r="60" transform="translate(652 729)" fill="#2981b7"/>
    <g id="ico" transform="translate(678 759)">
      <g id="Grupo_1065402" data-name="Grupo 1065402" transform="translate(21.54 19.693)">
        <ellipse id="Elipse_8479" data-name="Elipse 8479" cx="13.035" cy="13.035" rx="13.035" ry="13.035" fill="#fba615"/>
      </g>
      <g id="Grupo_1065403" data-name="Grupo 1065403" transform="translate(23.423 21.575)">
        <path id="Trazado_801353" data-name="Trazado 801353" d="M194.056,193.966a13.038,13.038,0,0,1-17.9,17.9,13.036,13.036,0,1,0,17.9-17.9Z" transform="translate(-176.153 -193.966)" fill="#f88604"/>
      </g>
      <g id="Grupo_1065404" data-name="Grupo 1065404" transform="translate(48.189 11.143)">
        <path id="Trazado_801354" data-name="Trazado 801354" d="M372.969,115.509H370.74a8.328,8.328,0,0,0-8.328,8.328v.067a.66.66,0,0,0,.66.66h17.567a.66.66,0,0,0,.66-.66v-.067A8.329,8.329,0,0,0,372.969,115.509Z" transform="translate(-362.412 -115.509)" fill="#b1abb5"/>
      </g>
      <g id="Grupo_1065405" data-name="Grupo 1065405" transform="translate(56.098 11.143)">
        <path id="Trazado_801355" data-name="Trazado 801355" d="M424.483,115.509h-2.105c-.161,0-.322.006-.481.015a8.39,8.39,0,0,1,7.91,8.376.664.664,0,0,1-.665.664h3.066a.664.664,0,0,0,.664-.664A8.39,8.39,0,0,0,424.483,115.509Z" transform="translate(-421.897 -115.509)" fill="#786e79"/>
      </g>
      <g id="Grupo_1065409" data-name="Grupo 1065409" transform="translate(52.568 1.005)">
        <g id="Grupo_1065407" data-name="Grupo 1065407">
          <g id="Grupo_1065406" data-name="Grupo 1065406">
            <path id="Trazado_801356" data-name="Trazado 801356" d="M404.4,44.2c-.025,0-.049,0-.074,0V42.7a3.431,3.431,0,0,0-3.431-3.431h-.917a3.431,3.431,0,0,0-3.431,3.431v1.5a.89.89,0,0,0-.128,0,1.025,1.025,0,0,0-1.069,1.158c.054.739.615,1.583,1.237,1.568a3.889,3.889,0,0,0,7.7,0c.6-.034,1.13-.849,1.182-1.567A1.025,1.025,0,0,0,404.4,44.2Z" transform="translate(-395.344 -39.267)" fill="#b1abb5"/>
          </g>
        </g>
        <g id="Grupo_1065408" data-name="Grupo 1065408" transform="translate(3.205 0.004)">
          <path id="Trazado_801357" data-name="Trazado 801357" d="M425.294,44.225c-.025,0-.049,0-.074,0v-1.5a3.43,3.43,0,0,0-3.284-3.427,3.429,3.429,0,0,1,1.68,2.95s-.039,3.443-.039,4.228a3.89,3.89,0,0,1-3.85,3.34c-.095,0-.189,0-.282-.011a3.889,3.889,0,0,0,5.737-2.852c.6-.034,1.13-.849,1.182-1.567a1.025,1.025,0,0,0-1.069-1.158Z" transform="translate(-419.445 -39.295)" fill="#786e79"/>
        </g>
      </g>
      <g id="Grupo_1065410" data-name="Grupo 1065410" transform="translate(1.005 11.143)">
        <path id="Trazado_801358" data-name="Trazado 801358" d="M18.113,115.509H15.884a8.328,8.328,0,0,0-8.328,8.328v.067a.66.66,0,0,0,.66.66H25.782a.66.66,0,0,0,.66-.66v-.067A8.329,8.329,0,0,0,18.113,115.509Z" transform="translate(-7.556 -115.509)" fill="#b1abb5"/>
      </g>
      <g id="Grupo_1065411" data-name="Grupo 1065411" transform="translate(8.914 11.143)">
        <path id="Trazado_801359" data-name="Trazado 801359" d="M69.627,115.509H67.522c-.161,0-.322.006-.481.015a8.39,8.39,0,0,1,7.91,8.376.664.664,0,0,1-.665.664h3.066a.664.664,0,0,0,.664-.664A8.39,8.39,0,0,0,69.627,115.509Z" transform="translate(-67.041 -115.509)" fill="#786e79"/>
      </g>
      <g id="Grupo_1065415" data-name="Grupo 1065415" transform="translate(5.384 1.005)">
        <g id="Grupo_1065413" data-name="Grupo 1065413">
          <g id="Grupo_1065412" data-name="Grupo 1065412">
            <path id="Trazado_801360" data-name="Trazado 801360" d="M49.542,44.2c-.025,0-.049,0-.074,0V42.7a3.431,3.431,0,0,0-3.431-3.431H45.12A3.431,3.431,0,0,0,41.689,42.7v1.5a.889.889,0,0,0-.128,0,1.025,1.025,0,0,0-1.069,1.158c.054.739.616,1.583,1.237,1.568a3.889,3.889,0,0,0,7.7,0c.6-.034,1.13-.849,1.182-1.567A1.025,1.025,0,0,0,49.542,44.2Z" transform="translate(-40.488 -39.267)" fill="#b1abb5"/>
          </g>
        </g>
        <g id="Grupo_1065414" data-name="Grupo 1065414" transform="translate(3.205 0.004)">
          <path id="Trazado_801361" data-name="Trazado 801361" d="M70.437,44.225c-.025,0-.049,0-.074,0v-1.5a3.43,3.43,0,0,0-3.284-3.427,3.429,3.429,0,0,1,1.68,2.95s-.039,3.443-.039,4.228a3.89,3.89,0,0,1-3.85,3.34c-.095,0-.189,0-.282-.011a3.889,3.889,0,0,0,5.737-2.852c.6-.034,1.13-.849,1.182-1.567a1.025,1.025,0,0,0-1.069-1.158Z" transform="translate(-64.588 -39.295)" fill="#786e79"/>
        </g>
      </g>
      <g id="Grupo_1065416" data-name="Grupo 1065416" transform="translate(48.189 49.587)">
        <path id="Trazado_801362" data-name="Trazado 801362" d="M372.969,404.635H370.74a8.328,8.328,0,0,0-8.328,8.328v.067a.66.66,0,0,0,.66.66h17.567a.66.66,0,0,0,.66-.66v-.067A8.329,8.329,0,0,0,372.969,404.635Z" transform="translate(-362.412 -404.635)" fill="#b1abb5"/>
      </g>
      <g id="Grupo_1065417" data-name="Grupo 1065417" transform="translate(56.098 49.587)">
        <path id="Trazado_801363" data-name="Trazado 801363" d="M424.483,404.635h-2.105c-.161,0-.322.006-.481.015a8.39,8.39,0,0,1,7.91,8.376.664.664,0,0,1-.665.664h3.066a.664.664,0,0,0,.664-.664A8.39,8.39,0,0,0,424.483,404.635Z" transform="translate(-421.897 -404.635)" fill="#786e79"/>
      </g>
      <g id="Grupo_1065421" data-name="Grupo 1065421" transform="translate(52.568 39.449)">
        <g id="Grupo_1065419" data-name="Grupo 1065419">
          <g id="Grupo_1065418" data-name="Grupo 1065418">
            <path id="Trazado_801364" data-name="Trazado 801364" d="M404.4,333.326c-.025,0-.049,0-.074,0v-1.5a3.431,3.431,0,0,0-3.431-3.431h-.917a3.431,3.431,0,0,0-3.431,3.431v1.5a.892.892,0,0,0-.128,0,1.025,1.025,0,0,0-1.069,1.158c.054.739.615,1.583,1.237,1.568a3.889,3.889,0,0,0,7.7,0c.6-.034,1.13-.849,1.182-1.567A1.025,1.025,0,0,0,404.4,333.326Z" transform="translate(-395.344 -328.393)" fill="#b1abb5"/>
          </g>
        </g>
        <g id="Grupo_1065420" data-name="Grupo 1065420" transform="translate(3.205 0.004)">
          <path id="Trazado_801365" data-name="Trazado 801365" d="M425.294,333.351c-.025,0-.049,0-.074,0v-1.5a3.43,3.43,0,0,0-3.284-3.427,3.429,3.429,0,0,1,1.68,2.95s-.039,3.443-.039,4.228a3.89,3.89,0,0,1-3.85,3.34c-.095,0-.189,0-.282-.011a3.889,3.889,0,0,0,5.737-2.851c.6-.034,1.13-.849,1.182-1.567A1.025,1.025,0,0,0,425.294,333.351Z" transform="translate(-419.445 -328.421)" fill="#786e79"/>
        </g>
      </g>
      <g id="Grupo_1065422" data-name="Grupo 1065422" transform="translate(1.005 49.587)">
        <path id="Trazado_801366" data-name="Trazado 801366" d="M18.113,404.635H15.884a8.328,8.328,0,0,0-8.328,8.328v.067a.66.66,0,0,0,.66.66H25.782a.66.66,0,0,0,.66-.66v-.067A8.329,8.329,0,0,0,18.113,404.635Z" transform="translate(-7.556 -404.635)" fill="#b1abb5"/>
      </g>
      <g id="Grupo_1065423" data-name="Grupo 1065423" transform="translate(8.914 49.587)">
        <path id="Trazado_801367" data-name="Trazado 801367" d="M69.627,404.635H67.522c-.161,0-.322.006-.481.015a8.39,8.39,0,0,1,7.91,8.376.664.664,0,0,1-.665.664h3.066a.664.664,0,0,0,.664-.664A8.39,8.39,0,0,0,69.627,404.635Z" transform="translate(-67.041 -404.635)" fill="#786e79"/>
      </g>
      <g id="Grupo_1065427" data-name="Grupo 1065427" transform="translate(5.384 39.449)">
        <g id="Grupo_1065425" data-name="Grupo 1065425">
          <g id="Grupo_1065424" data-name="Grupo 1065424">
            <path id="Trazado_801368" data-name="Trazado 801368" d="M49.542,333.326c-.025,0-.049,0-.074,0v-1.5a3.431,3.431,0,0,0-3.431-3.431H45.12a3.431,3.431,0,0,0-3.431,3.431v1.5a.892.892,0,0,0-.128,0,1.025,1.025,0,0,0-1.069,1.158c.054.739.616,1.583,1.237,1.568a3.889,3.889,0,0,0,7.7,0c.6-.034,1.13-.849,1.182-1.567A1.025,1.025,0,0,0,49.542,333.326Z" transform="translate(-40.488 -328.393)" fill="#b1abb5"/>
          </g>
        </g>
        <g id="Grupo_1065426" data-name="Grupo 1065426" transform="translate(3.205 0.004)">
          <path id="Trazado_801369" data-name="Trazado 801369" d="M70.437,333.351c-.025,0-.049,0-.074,0v-1.5a3.43,3.43,0,0,0-3.284-3.427,3.429,3.429,0,0,1,1.68,2.95s-.039,3.443-.039,4.228a3.89,3.89,0,0,1-3.85,3.34c-.095,0-.189,0-.282-.011a3.889,3.889,0,0,0,5.737-2.851c.6-.034,1.13-.849,1.182-1.567a1.025,1.025,0,0,0-1.069-1.158Z" transform="translate(-64.588 -328.421)" fill="#786e79"/>
        </g>
      </g>
      <g id="Grupo_1065428" data-name="Grupo 1065428" transform="translate(20.536 25.961)">
        <path id="Trazado_801370" data-name="Trazado 801370" d="M168.483,247.761a14.055,14.055,0,0,1-14.039-14.039,13.9,13.9,0,0,1,1.443-6.206,1,1,0,1,1,1.8.889,11.909,11.909,0,0,0-1.236,5.317,12.044,12.044,0,0,0,12.03,12.03,12.24,12.24,0,0,0,1.349-.075,1,1,0,1,1,.223,2,14.288,14.288,0,0,1-1.572.087Z" transform="translate(-154.444 -226.955)"/>
      </g>
      <g id="Grupo_1065429" data-name="Grupo 1065429" transform="translate(24.562 18.688)">
        <path id="Trazado_801371" data-name="Trazado 801371" d="M200.75,198.866a1,1,0,0,1-.465-1.9,12.032,12.032,0,1,0-13.866-19.37,1,1,0,0,1-1.389-1.452,14.041,14.041,0,1,1,16.184,22.6A1,1,0,0,1,200.75,198.866Z" transform="translate(-184.72 -172.255)"/>
      </g>
      <g id="Grupo_1065430" data-name="Grupo 1065430" transform="translate(47.184 0)">
        <path id="Trazado_801373" data-name="Trazado 801373" d="M374.082,52.913H356.525a1.671,1.671,0,0,1-1.669-1.669,9.432,9.432,0,0,1,6.3-8.872,4.891,4.891,0,0,1-.529-1.205,2.894,2.894,0,0,1-1.382-2.285,1.961,1.961,0,0,1,1.194-2.045v-.69a4.441,4.441,0,0,1,4.435-4.436h.917a4.441,4.441,0,0,1,4.435,4.436v.717a1.979,1.979,0,0,1,1.14,2.018,2.926,2.926,0,0,1-1.319,2.251,4.914,4.914,0,0,1-.548,1.254,9.392,9.392,0,0,1,6.253,8.858A1.671,1.671,0,0,1,374.082,52.913ZM356.873,50.9h16.861A7.378,7.378,0,0,0,367.784,44a1.127,1.127,0,0,1-1.153-.694A1,1,0,0,1,367,42.174a2.9,2.9,0,0,0,1.183-1.941,1,1,0,0,1,.872-.856,1.071,1.071,0,0,0,.3-.644.479.479,0,0,0,0-.057.594.594,0,0,0-.142-.026,1.034,1.034,0,0,1-1-1v-1.5a2.429,2.429,0,0,0-2.426-2.426h-.917a2.429,2.429,0,0,0-2.426,2.426v1.5a1.039,1.039,0,0,1-1.066,1,.583.583,0,0,0-.135.025.485.485,0,0,0,0,.057,1.082,1.082,0,0,0,.3.639,1,1,0,0,1,.932.862,2.892,2.892,0,0,0,1.213,1.961,1,1,0,0,1,.386,1.122,1.273,1.273,0,0,1-1.405.71A7.409,7.409,0,0,0,356.873,50.9Z" transform="translate(-354.856 -31.711)"/>
      </g>
      <g id="Grupo_1065431" data-name="Grupo 1065431" transform="translate(0 0)">
        <path id="Trazado_801374" data-name="Trazado 801374" d="M19.226,52.912H1.669A1.671,1.671,0,0,1,0,51.243a9.39,9.39,0,0,1,6.3-8.873,4.9,4.9,0,0,1-.529-1.2A2.894,2.894,0,0,1,4.386,38.88,1.979,1.979,0,0,1,5.58,36.838v-.692a4.441,4.441,0,0,1,4.436-4.436h.917a4.441,4.441,0,0,1,4.436,4.436v.717a1.979,1.979,0,0,1,1.14,2.018,2.926,2.926,0,0,1-1.319,2.251,4.9,4.9,0,0,1-.548,1.254,9.391,9.391,0,0,1,6.253,8.858A1.671,1.671,0,0,1,19.226,52.912ZM2.017,50.9H18.878a7.378,7.378,0,0,0-5.955-6.909,1.12,1.12,0,0,1-1.146-.7,1,1,0,0,1,.372-1.124,2.9,2.9,0,0,0,1.181-1.939,1,1,0,0,1,.872-.856,1.071,1.071,0,0,0,.3-.644.484.484,0,0,0,0-.057.587.587,0,0,0-.142-.026,1.037,1.037,0,0,1-1-1v-1.5a2.429,2.429,0,0,0-2.426-2.426h-.917a2.429,2.429,0,0,0-2.426,2.426v1.5a1.04,1.04,0,0,1-1.066,1,.584.584,0,0,0-.135.025.514.514,0,0,0,0,.057,1.081,1.081,0,0,0,.3.639,1,1,0,0,1,.932.862A2.9,2.9,0,0,0,8.8,42.172a1,1,0,0,1-.585,1.822H7.972A7.378,7.378,0,0,0,2.017,50.9Z" transform="translate(0 -31.71)"/>
      </g>
      <g id="Grupo_1065432" data-name="Grupo 1065432" transform="translate(47.184 38.444)">
        <path id="Trazado_801375" data-name="Trazado 801375" d="M374.082,342.039h-3.193a1,1,0,1,1,0-2.009h2.845a7.406,7.406,0,0,0-5.815-6.88,1.213,1.213,0,0,1-1.328-.706,1,1,0,0,1,.385-1.124,2.892,2.892,0,0,0,1.21-1.96,1,1,0,0,1,.872-.856,1.069,1.069,0,0,0,.3-.644.473.473,0,0,0,0-.057.593.593,0,0,0-.142-.026,1.034,1.034,0,0,1-1-1v-1.5a2.429,2.429,0,0,0-2.426-2.426h-.917a2.429,2.429,0,0,0-2.426,2.426v1.5a1.039,1.039,0,0,1-1.066,1,.584.584,0,0,0-.135.025.485.485,0,0,0,0,.057,1.082,1.082,0,0,0,.3.639,1,1,0,0,1,.932.862,2.9,2.9,0,0,0,1.2,1.949,1,1,0,0,1,.378,1.126,1.205,1.205,0,0,1-1.286.7,7.39,7.39,0,0,0-5.89,6.9h9.072a1,1,0,0,1,0,2.009h-9.42a1.671,1.671,0,0,1-1.669-1.669,9.407,9.407,0,0,1,6.3-8.873,4.9,4.9,0,0,1-.529-1.2,2.894,2.894,0,0,1-1.382-2.285,1.961,1.961,0,0,1,1.194-2.045v-.69a4.441,4.441,0,0,1,4.435-4.435h.917a4.441,4.441,0,0,1,4.436,4.435v.716a1.98,1.98,0,0,1,1.14,2.018,2.926,2.926,0,0,1-1.319,2.251,4.9,4.9,0,0,1-.549,1.255,9.428,9.428,0,0,1,6.253,8.857,1.671,1.671,0,0,1-1.669,1.669Z" transform="translate(-354.856 -320.837)"/>
      </g>
      <g id="Grupo_1065433" data-name="Grupo 1065433" transform="translate(0 38.445)">
        <path id="Trazado_801376" data-name="Trazado 801376" d="M19.226,342.04H1.669A1.671,1.671,0,0,1,0,340.371,9.4,9.4,0,0,1,6.3,331.5a4.905,4.905,0,0,1-.529-1.2,2.894,2.894,0,0,1-1.382-2.285,1.98,1.98,0,0,1,1.194-2.043v-.692a4.441,4.441,0,0,1,4.436-4.436h.917a4.441,4.441,0,0,1,4.436,4.436v.716a1.98,1.98,0,0,1,1.14,2.018,2.927,2.927,0,0,1-1.318,2.251,4.894,4.894,0,0,1-.549,1.255,9.433,9.433,0,0,1,6.253,8.856A1.671,1.671,0,0,1,19.226,342.04ZM2.017,340.03H18.878a7.41,7.41,0,0,0-5.794-6.876,1.231,1.231,0,0,1-1.355-.709,1,1,0,0,1,.387-1.123,2.892,2.892,0,0,0,1.214-1.962,1,1,0,0,1,.872-.856,1.071,1.071,0,0,0,.3-.644.484.484,0,0,0,0-.057.584.584,0,0,0-.142-.026,1.036,1.036,0,0,1-1-1v-1.5a2.429,2.429,0,0,0-2.426-2.426h-.917a2.429,2.429,0,0,0-2.426,2.426v1.5a1.039,1.039,0,0,1-1.066,1,.583.583,0,0,0-.135.025.514.514,0,0,0,0,.057,1.082,1.082,0,0,0,.3.639,1,1,0,0,1,.932.862,2.9,2.9,0,0,0,1.192,1.946,1,1,0,0,1,.376,1.127,1.178,1.178,0,0,1-1.261.7,7.386,7.386,0,0,0-5.91,6.9Z" transform="translate(0 -320.838)"/>
      </g>
      <g id="Grupo_1065434" data-name="Grupo 1065434" transform="translate(23.178 54.753)">
        <path id="Trazado_801377" data-name="Trazado 801377" d="M185.178,447.511a25.871,25.871,0,0,1-10.252-2.1,1,1,0,1,1,.792-1.847,24.107,24.107,0,0,0,18.739.077,1,1,0,1,1,.776,1.853A25.885,25.885,0,0,1,185.178,447.511Z" transform="translate(-174.316 -443.486)"/>
      </g>
      <g id="Grupo_1065435" data-name="Grupo 1065435" transform="translate(56.86 23.984)">
        <path id="Trazado_801378" data-name="Trazado 801378" d="M429.79,223.57l-.07,0a1,1,0,0,1-.933-1.071c.038-.552.057-1.113.057-1.668a24.01,24.01,0,0,0-1.171-7.428,1,1,0,1,1,1.911-.621,26.014,26.014,0,0,1,1.269,8.049c0,.6-.021,1.208-.062,1.806A1,1,0,0,1,429.79,223.57Z" transform="translate(-427.624 -212.085)"/>
      </g>
      <g id="Grupo_1065436" data-name="Grupo 1065436" transform="translate(7.99 23.959)">
        <path id="Trazado_801379" data-name="Trazado 801379" d="M61.166,223.619a1,1,0,0,1-1-.927c-.052-.67-.078-1.351-.078-2.024a26.014,26.014,0,0,1,1.277-8.075,1,1,0,1,1,1.91.623,24.009,24.009,0,0,0-1.178,7.452c0,.622.024,1.251.072,1.869a1,1,0,0,1-.924,1.079C61.218,223.618,61.192,223.619,61.166,223.619Z" transform="translate(-60.087 -211.9)"/>
      </g>
      <g id="Grupo_1065437" data-name="Grupo 1065437" transform="translate(20.748 6.678)">
        <path id="Trazado_801380" data-name="Trazado 801380" d="M157.048,87.157a1,1,0,0,1-.495-1.88,26.074,26.074,0,0,1,25.372-.1,1,1,0,0,1-.973,1.758,24.065,24.065,0,0,0-23.412.1A1,1,0,0,1,157.048,87.157Z" transform="translate(-156.042 -81.93)"/>
      </g>
    </g>
  </g>
</svg>
