<svg xmlns="http://www.w3.org/2000/svg" width="80" height="80" viewBox="0 0 80 80">
  <g id="Grupo_1065467" data-name="Grupo 1065467" transform="translate(-285 -1584)">
    <rect id="Rectángulo_374183" data-name="Rectángulo 374183" width="80" height="80" rx="5" transform="translate(285 1584)" fill="#f7cd00"/>
    <g id="colaboracion" transform="translate(294.443 1593)">
      <path id="Trazado_801403" data-name="Trazado 801403" d="M323.5,396.385l.06,3.912c0,.419.455.754,1,.754l15.551-.12a.9.9,0,0,0,.993-.766l-.06-3.912c0-.419-.455-.754-1-.754l-15.551.12A.9.9,0,0,0,323.5,396.385Z" transform="translate(-284.867 -348.19)" fill="#d1d0df"/>
      <path id="Trazado_801404" data-name="Trazado 801404" d="M446.1,395.7h2.931v4.857H446.1Z" transform="translate(-392.801 -348.366)" fill="#b5b5c6"/>
      <path id="Trazado_801405" data-name="Trazado 801405" d="M353.347,449.6H335.5c6.017,0,11.292-3.29,14.2-9.175l3.5-.024Z" transform="translate(-295.431 -387.719)" fill="#f9a01e"/>
      <path id="Trazado_801406" data-name="Trazado 801406" d="M328.394,440.6c-2.907,5.873-8.182,9.175-14.2,9.175h-2.763l-.132-9.031Z" transform="translate(-274.126 -387.895)" fill="#ffbb26"/>
      <path id="Trazado_801407" data-name="Trazado 801407" d="M252.208,75.33l-.586.239L249.517,69l-.024-.06a2.126,2.126,0,0,0-1.818-1.136,3.1,3.1,0,0,0-2.632,1.376l-.012.024a5.4,5.4,0,0,0-.646,3.469c.179,1.148.67,4.151.873,5.359a7.116,7.116,0,0,0-.8.526l-12.333,5.156-1.423.6-.813.347-.371.156-3.29-7.847c.1.012.191.012.3.024a6.776,6.776,0,0,0,3.565-.514c.156-.084.3-.167.443-.263a5.368,5.368,0,0,0,1.412-1.388,2.707,2.707,0,0,0,.156-.239c.036-.06.072-.132.108-.191a5.188,5.188,0,0,0,.5-1.268c.012-.048.024-.1.036-.156V72.95a5.24,5.24,0,0,0-9.713-3.624c-.251-.6-.538-1.292-.849-2.034V67.28c-.933-2.249-2.034-4.881-2.584-6.184l9.211-3.852a1,1,0,0,0-.1-1.878,3.809,3.809,0,1,1,4.474-5.443,6.779,6.779,0,0,1,.263,3.589,1.175,1.175,0,0,0,.072.574,1.086,1.086,0,0,0,1.423.586l8.744-3.66,9.33,22.321a1.526,1.526,0,0,1-.813,2Z" transform="translate(-193.395 -42.183)" fill="#ffbb26"/>
      <path id="Trazado_801408" data-name="Trazado 801408" d="M271.5,256.258l3.325,7.943,23.35-9.761a2.247,2.247,0,0,0,1.208-2.943l-.371-.9c-1,.49-2.034.957-3.074,1.4A55.741,55.741,0,0,1,271.5,256.258Z" transform="translate(-239.087 -220.623)" fill="#f9a01e"/>
      <path id="Trazado_801409" data-name="Trazado 801409" d="M339.058,231.018l-2.034,7.632-.012-.012-.024.1a2.574,2.574,0,0,1-.371.825s-.586.969-1.148,1.806l-14.953.012a6.416,6.416,0,0,1-2.093-4.617l-.024-1.089.706-.3,12.333-5.156a6.175,6.175,0,0,1,.8-.526c-.2-1.208-.694-4.2-.873-5.359v-.024l.455-.036a4.058,4.058,0,0,1,.144-1.136,3.03,3.03,0,0,1,.144-.431,5.038,5.038,0,0,1,.526-1.471c.706-1.1,2.56-1.555,3.218-.3Z" transform="translate(-280.377 -193.84)" fill="#efcdb1"/>
      <path id="Trazado_801410" data-name="Trazado 801410" d="M60.908,92.065l-.06-3.912c0-.419-.455-.754-1-.754l-15.551.12a.9.9,0,0,0-.993.766l.06,3.912c0,.419.455.754,1,.754l15.551-.12A.9.9,0,0,0,60.908,92.065Z" transform="translate(-38.184 -76.945)" fill="#d1d0df"/>
      <path id="Trazado_801411" data-name="Trazado 801411" d="M43.3,93h2.931v4.857H43.3Z" transform="translate(-38.184 -81.875)" fill="#b5b5c6"/>
      <path id="Trazado_801412" data-name="Trazado 801412" d="M29.3.1H47.147c-6.017,0-11.292,4.725-14.2,10.61l-3.517.024Z" transform="translate(-25.859 -0.088)" fill="#05becc"/>
      <path id="Trazado_801413" data-name="Trazado 801413" d="M59.8,10.7C62.707,4.825,67.982.1,74,.1h2.763l.132,10.467Z" transform="translate(-52.711 -0.088)" fill="#01c6e1"/>
      <path id="Trazado_801414" data-name="Trazado 801414" d="M101.652,173.019a7.371,7.371,0,0,1-4.019.443.365.365,0,0,0-.407.323.341.341,0,0,0,.024.191l3.541,7.919a1.612,1.612,0,0,1-.8,2.117c-2.309,1.029-6.5,2.907-8.278,3.708a.286.286,0,0,1-.371-.383,4.52,4.52,0,1,0-8.338-.55,7.24,7.24,0,0,0,2.7,3,.368.368,0,0,1,.1.514.416.416,0,0,1-.156.132l-9.318,4.175L73.9,189.179c7.883-5.79,13.134-16.149,13.134-27.967q0-.789-.036-1.579l1.974-.885a1.354,1.354,0,0,1,1.782.682c1.017,2.261,2.967,6.639,3.792,8.481a.281.281,0,0,0,.371.144.291.291,0,0,0,.156-.179,4.522,4.522,0,0,1,8.708,2.44A4.614,4.614,0,0,1,101.652,173.019Z" transform="translate(-65.124 -139.657)" fill="#c11f2f"/>
      <path id="Trazado_801415" data-name="Trazado 801415" d="M48.148,140.968l-9.594,4.294-1.208-.562c-.227.49-.478.969-.73,1.423-.036.072-.084.132-.12.2a4.686,4.686,0,0,1-.73.957A5.31,5.31,0,0,1,34.2,148.4l-.526.215.06.371.036.191c.012.048.73,4.414.957,5.861a3.881,3.881,0,0,1-.455,2.5,1.663,1.663,0,0,1-1.352.718.652.652,0,0,1-.586-.323L30,150.646l-.215-.694-.215-.694L29.2,148.11l1.974-7.416a3.092,3.092,0,0,1,.311-.706l.012-.024c0-.012.359-.586.778-1.244l14.546-.12A6.226,6.226,0,0,1,48.148,140.968Z" transform="translate(-25.771 -122.021)" fill="#efcdb1"/>
      <path id="Trazado_801416" data-name="Trazado 801416" d="M48.734,175.214a3.791,3.791,0,0,1-1.77,2.249,6.856,6.856,0,0,1-3.577.359,1.061,1.061,0,0,0-1.017.455,1.1,1.1,0,0,0-.383.825,1.008,1.008,0,0,0,.084.419l3.613,8.649a.844.844,0,0,1-.323.251c-1.962.885-5.287,2.368-7.333,3.29a5.237,5.237,0,1,0-10.036.383,7.018,7.018,0,0,0,2.476,3l-8.11,3.624L12.31,176.266a1.525,1.525,0,0,1,.778-2.022l.634-.287,2.321,7.261.036.06a2.126,2.126,0,0,0,1.818,1.136h.12a3.081,3.081,0,0,0,2.524-1.388l.012-.024a5.4,5.4,0,0,0,.646-3.469c-.179-1.16-.67-4.151-.873-5.359a6.771,6.771,0,0,0,2.357-2.225l10.742-4.809,1.4-.622.132-.06a.652.652,0,0,1,.263-.06.617.617,0,0,1,.574.371c.634,1.412,1.627,3.648,2.488,5.562v.012c.5,1.2.957,2.3,1.256,3a1.04,1.04,0,0,0,.634.574,1,1,0,0,0,1.256-.658,3.81,3.81,0,0,1,7-.682A4.22,4.22,0,0,1,48.734,175.214Z" transform="translate(-10.783 -144.734)" fill="#d22732"/>
      <g id="Grupo_1065466" data-name="Grupo 1065466" transform="translate(-0.073 0)">
        <path id="Trazado_801417" data-name="Trazado 801417" d="M60.954,30.6,51.062,6.95,41.54,10.933a7.261,7.261,0,0,0-.49-3.864A5.24,5.24,0,1,0,33.9,14.127l-9.582,4.007.048.12a1.842,1.842,0,0,0-.67.12,7.069,7.069,0,0,0-1.017-2.01,2.409,2.409,0,0,0,.347-.263,1.375,1.375,0,0,0,.407-.981l-.048-3.912L24.2,11.2a.712.712,0,0,0,.706-.73L24.769,0,23.334.024l.12,9.749-1.412.012a2.2,2.2,0,0,0-.395-.036L6.1,9.869a1.516,1.516,0,0,0-.407.048l-1.412.012L4.159,0,2.723.024l.132,10.634a.71.71,0,0,0,.718.706H4.4l.06,3.912a1.366,1.366,0,0,0,.574,1.089c-.275.443-.49.778-.526.849A4.238,4.238,0,0,0,4,18.326L1.922,26.161l.538,1.7-.778.347a2.971,2.971,0,0,0-1.5,3.924L10.822,55.887l9.964-4.462a1.028,1.028,0,0,0,.443-.371,1.092,1.092,0,0,0-.263-1.519,6.34,6.34,0,0,1-2.428-2.656,3.811,3.811,0,1,1,7.034.455,1.032,1.032,0,0,0-.024.861.994.994,0,0,0,1.316.5c1.782-.8,5.969-2.679,8.278-3.708a2.305,2.305,0,0,0,.969-.813l1.268-.514a7.15,7.15,0,0,0,1.292,3.3,1.77,1.77,0,0,0-.347.263,1.348,1.348,0,0,0-.407.969l.06,3.912h-.813a.72.72,0,0,0-.706.73l.132,9.031,1.435-.024L37.9,53.53l1.412-.012a2.016,2.016,0,0,0,.395.036h.012l15.551-.12a1.516,1.516,0,0,0,.407-.048l1.412-.012.12,8.493,1.435-.024-.132-9.2a.71.71,0,0,0-.718-.706l-.825.012v-.012l-.06-3.912a1.366,1.366,0,0,0-.574-1.089c.275-.443.49-.778.526-.849a4.421,4.421,0,0,0,.5-1.112l2.081-7.823-.766-2.392.694-.287A2.968,2.968,0,0,0,60.954,30.6ZM7.963,26.974,8,27.166c.012.048.73,4.414.957,5.861a3.881,3.881,0,0,1-.455,2.5,1.663,1.663,0,0,1-1.352.718.652.652,0,0,1-.586-.323L4.23,28.637l-.215-.694L3.8,27.249,3.429,26.1,5.4,18.685a3.092,3.092,0,0,1,.311-.706l.012-.024c0-.012.359-.586.778-1.244l14.546-.12a5.837,5.837,0,0,1,1.328,2.333l-9.594,4.294-1.208-.562c-.227.49-.478.969-.73,1.423-.036.072-.084.132-.12.2a4.686,4.686,0,0,1-.73.957,5.31,5.31,0,0,1-1.567,1.112l-.526.215ZM5.905,11.34l15.957-.132a.3.3,0,0,1,.084.048l.048,3.828a.465.465,0,0,1-.275.084h-.036l-15.515.12a.408.408,0,0,1-.287-.084V15.06l-.048-3.684.072-.036ZM34.566,43.685c-1.962.885-5.287,2.368-7.333,3.29a5.237,5.237,0,1,0-10.036.383,7.018,7.018,0,0,0,2.476,3l-8.11,3.624L1.515,31.532a1.525,1.525,0,0,1,.778-2.022l.634-.287,2.321,7.261.036.06A2.126,2.126,0,0,0,7.1,37.68h.12a3.081,3.081,0,0,0,2.524-1.388l.012-.024a5.328,5.328,0,0,0,.646-3.445V32.8c-.179-1.16-.67-4.151-.873-5.359a6.771,6.771,0,0,0,2.357-2.225l10.742-4.809.706-.311.694-.311.132-.06a.652.652,0,0,1,.263-.06.617.617,0,0,1,.574.371c.634,1.412,1.627,3.648,2.488,5.562v.012c.5,1.2.957,2.3,1.256,3a1.04,1.04,0,0,0,.634.574,1,1,0,0,0,1.256-.658,3.8,3.8,0,1,1,5.586,4.187,6.856,6.856,0,0,1-3.577.359,1.061,1.061,0,0,0-1.017.455,1.1,1.1,0,0,0-.383.825,1.008,1.008,0,0,0,.084.419l3.613,8.649a1.246,1.246,0,0,1-.371.263Zm20.886,8.29-15.957.132a.25.25,0,0,1-.072-.048l-.06-3.828a.465.465,0,0,1,.275-.084h.036l15.515-.12a.5.5,0,0,1,.287.084v.144l.048,3.684-.072.036Zm.5-7.357a3.092,3.092,0,0,1-.311.706l-.012.024c0,.012-.359.6-.778,1.244l-14.534.12A5.661,5.661,0,0,1,38.777,43.1l10.347-4.33c-.215.407-.431.837-.634,1.268l1.3.61c.263-.562.55-1.112.849-1.639a4.819,4.819,0,0,1,1.184-1.364,5.275,5.275,0,0,1,1.112-.706l.526-.215-.084-.514-.012-.06c0-.012-.048-.263-.108-.67-.215-1.292-.67-4.091-.849-5.192a3.867,3.867,0,0,1,.455-2.5,1.663,1.663,0,0,1,1.352-.718.652.652,0,0,1,.586.323l2.105,6.567.215.682.215.682.6,1.878Zm2.859-11.472-.586.239-2.105-6.567-.024-.06a2.126,2.126,0,0,0-1.818-1.136A3.1,3.1,0,0,0,51.648,27l-.012.024a5.314,5.314,0,0,0-.646,3.445v.024c.179,1.148.67,4.151.873,5.359a7.114,7.114,0,0,0-.8.526L38.729,41.532l-.706.3-.718.3-.813.347-.371.156-3.29-7.847c.1.012.191.012.3.024A6.776,6.776,0,0,0,36.7,34.3c.156-.084.3-.167.443-.263a4.628,4.628,0,0,0,.706-.574,5.84,5.84,0,0,0,.706-.825,2.707,2.707,0,0,0,.156-.239c.036-.06.072-.132.108-.191.1-.179.179-.359.263-.538a5.2,5.2,0,0,0,.239-.73c.012-.048.024-.1.036-.156v-.024a5.24,5.24,0,0,0-9.713-3.624c-.251-.6-.538-1.292-.849-2.034v-.012C27.855,22.836,26.755,20.2,26.2,18.9l9.211-3.852a1,1,0,0,0-.1-1.878,3.809,3.809,0,1,1,4.474-5.443,6.779,6.779,0,0,1,.263,3.589,1.175,1.175,0,0,0,.072.574,1.086,1.086,0,0,0,1.423.586L50.3,8.828l9.33,22.321a1.526,1.526,0,0,1-.813,2Z" transform="translate(0.073 0)"/>
        <path id="Trazado_801418" data-name="Trazado 801418" d="M0,0H1.435V3.613H0Z" transform="translate(14.766 56.907) rotate(-27.257)"/>
        <path id="Trazado_801419" data-name="Trazado 801419" d="M0,0H3.613V1.435H0Z" transform="translate(4.457 59.452) rotate(-62.743)"/>
        <path id="Trazado_801420" data-name="Trazado 801420" d="M0,0H3.613V1.435H0Z" transform="translate(10.339 61.964) rotate(-88.568)"/>
        <path id="Trazado_801421" data-name="Trazado 801421" d="M0,0H1.435V3.613H0Z" transform="translate(45.163 2.712) rotate(-27.257)"/>
        <path id="Trazado_801422" data-name="Trazado 801422" d="M0,0H3.613V1.435H0Z" transform="translate(55.473 5.256) rotate(-62.743)"/>
        <path id="Trazado_801423" data-name="Trazado 801423" d="M0,0H3.613V1.435H0Z" transform="translate(51.009 3.753) rotate(-88.568)"/>
      </g>
    </g>
  </g>
</svg>
