<svg xmlns="http://www.w3.org/2000/svg" width="80" height="80" viewBox="0 0 80 80">
  <g id="Grupo_1065470" data-name="Grupo 1065470" transform="translate(-285 -1584)">
    <rect id="Rectángulo_374183" data-name="Rectángulo 374183" width="80" height="80" rx="5" transform="translate(285 1584)" fill="#f7cd00"/>
    <g id="colaboracion_1_" data-name="colaboracion(1)" transform="translate(293.5 1592.901)">
      <path id="Trazado_801424" data-name="Trazado 801424" d="M17.673,405h-4.8a7.347,7.347,0,0,0-4.853,6.913v6.086H22.622v-6.086A7.3,7.3,0,0,0,17.673,405Zm0,0" transform="translate(-6.603 -355.797)" fill="#a477bd"/>
      <path id="Trazado_801425" data-name="Trazado 801425" d="M392.4,405h-4.8a7.347,7.347,0,0,0-4.853,6.913v6.086h14.606v-6.086A7.3,7.3,0,0,0,392.4,405Zm0,0" transform="translate(-335.811 -355.797)" fill="#e76e54"/>
      <path id="Trazado_801426" data-name="Trazado 801426" d="M204.036,75.852h-4.8a7.347,7.347,0,0,0-4.853,6.913V88.85h14.606V82.765a7.3,7.3,0,0,0-4.949-6.913Zm0,0" transform="translate(-170.326 -66.637)" fill="#00ddc2"/>
      <path id="Trazado_801427" data-name="Trazado 801427" d="M39.75,406.2a7.294,7.294,0,0,0-2.2-1.206h-4.8a7.374,7.374,0,0,0-2.1,1.206,6.074,6.074,0,0,0,9.109,0Zm0,0" transform="translate(-26.479 -355.797)" fill="#9562b7"/>
      <path id="Trazado_801428" data-name="Trazado 801428" d="M41.726,345.786a3.651,3.651,0,0,1-3.652-3.652v-1.826a3.652,3.652,0,1,1,7.3,0v1.826A3.651,3.651,0,0,1,41.726,345.786Zm0,0" transform="translate(-33.01 -295.759)" fill="#ecce93"/>
      <path id="Trazado_801429" data-name="Trazado 801429" d="M414.483,406.2a7.289,7.289,0,0,0-2.2-1.206h-4.8a7.368,7.368,0,0,0-2.1,1.206,6.074,6.074,0,0,0,9.109,0Zm0,0" transform="translate(-355.69 -355.797)" fill="#dd523c"/>
      <path id="Trazado_801430" data-name="Trazado 801430" d="M416.456,345.786a3.651,3.651,0,0,1-3.652-3.652v-1.826a3.652,3.652,0,1,1,7.3,0v1.826A3.651,3.651,0,0,1,416.456,345.786Zm0,0" transform="translate(-362.217 -295.759)" fill="#ecce93"/>
      <path id="Trazado_801431" data-name="Trazado 801431" d="M226.116,77.058a7.3,7.3,0,0,0-2.2-1.206h-4.8a7.392,7.392,0,0,0-2.1,1.206,6.074,6.074,0,0,0,9.109,0Zm0,0" transform="translate(-190.206 -66.637)" fill="#0ac1a7"/>
      <path id="Trazado_801432" data-name="Trazado 801432" d="M228.089,16.644a3.651,3.651,0,0,1-3.652-3.652V11.167a3.652,3.652,0,1,1,7.3,0v1.826A3.651,3.651,0,0,1,228.089,16.644Zm0,0" transform="translate(-196.733 -6.602)" fill="#ecce93"/>
      <path id="Trazado_801433" data-name="Trazado 801433" d="M28.555,473.926h1.826v4.625H28.555Zm0,0" transform="translate(-24.647 -416.353)"/>
      <path id="Trazado_801434" data-name="Trazado 801434" d="M12.551,338.006a4.537,4.537,0,0,0,.73-2.471v-1.826a4.565,4.565,0,0,0-9.129,0v1.826a4.538,4.538,0,0,0,.715,2.448A8.268,8.268,0,0,0,.5,345.272v6.086H2.326v-6.086a6.43,6.43,0,0,1,3.9-5.916,4.549,4.549,0,0,0,4.953.02,6.387,6.387,0,0,1,3.93,5.9v6.086h1.826v-6.086a8.215,8.215,0,0,0-4.381-7.267Zm-1.1-2.471a2.739,2.739,0,0,1-5.477,0v-1.826a2.739,2.739,0,1,1,5.477,0Zm0,0" transform="translate(0 -289.16)"/>
      <path id="Trazado_801435" data-name="Trazado 801435" d="M92.68,473.926h1.826v4.625H92.68Zm0,0" transform="translate(-80.982 -416.353)"/>
      <path id="Trazado_801436" data-name="Trazado 801436" d="M403.285,473.926h1.826v4.625h-1.826Zm0,0" transform="translate(-353.855 -416.353)"/>
      <path id="Trazado_801437" data-name="Trazado 801437" d="M387.282,338.006a4.537,4.537,0,0,0,.73-2.471v-1.826a4.565,4.565,0,0,0-9.129,0v1.826a4.538,4.538,0,0,0,.715,2.448,8.268,8.268,0,0,0-4.367,7.289v6.086h1.826v-6.086a6.43,6.43,0,0,1,3.9-5.916,4.549,4.549,0,0,0,4.953.02,6.387,6.387,0,0,1,3.929,5.9v6.086h1.826v-6.086A8.214,8.214,0,0,0,387.282,338.006Zm-1.1-2.471a2.739,2.739,0,0,1-5.477,0v-1.826a2.739,2.739,0,1,1,5.477,0Zm0,0" transform="translate(-329.208 -289.16)"/>
      <path id="Trazado_801438" data-name="Trazado 801438" d="M467.41,473.926h1.826v4.625H467.41Zm0,0" transform="translate(-410.19 -416.353)"/>
      <path id="Trazado_801439" data-name="Trazado 801439" d="M214.918,144.781h1.826v4.625h-1.826Zm0,0" transform="translate(-188.37 -127.193)"/>
      <path id="Trazado_801440" data-name="Trazado 801440" d="M188.69,16.128a6.431,6.431,0,0,1,3.9-5.916,4.549,4.549,0,0,0,4.953.02,6.388,6.388,0,0,1,3.929,5.9v6.086H203.3V16.128a8.213,8.213,0,0,0-4.381-7.266,4.538,4.538,0,0,0,.73-2.471V4.565a4.565,4.565,0,0,0-9.129,0V6.39a4.536,4.536,0,0,0,.715,2.448,8.269,8.269,0,0,0-4.367,7.289v6.086h1.826Zm3.652-11.563a2.739,2.739,0,0,1,5.477,0V6.39a2.739,2.739,0,1,1-5.477,0Zm0,0" transform="translate(-163.724)"/>
      <path id="Trazado_801441" data-name="Trazado 801441" d="M279.043,144.781h1.826v4.625h-1.826Zm0,0" transform="translate(-244.705 -127.193)"/>
      <path id="Trazado_801442" data-name="Trazado 801442" d="M182.224,443.321a26.163,26.163,0,0,1-5.718-.632l3.29-1.443-.733-1.672-6.688,2.933,4.688,5.6,1.4-1.173-2-2.386a28.076,28.076,0,0,0,10.527.192l-.309-1.8A26.357,26.357,0,0,1,182.224,443.321Zm0,0" transform="translate(-150.995 -386.174)"/>
      <path id="Trazado_801443" data-name="Trazado 801443" d="M304.367,460.915l.43,1.774c.609-.148,1.22-.318,1.818-.507l-.55-1.741C305.508,460.618,304.936,460.777,304.367,460.915Zm0,0" transform="translate(-266.953 -404.507)"/>
      <path id="Trazado_801444" data-name="Trazado 801444" d="M433.586,130.906l1.586-.9c-.31-.544-.643-1.085-.991-1.608l-1.52,1.011C432.985,129.893,433.3,130.4,433.586,130.906Zm0,0" transform="translate(-379.661 -112.797)"/>
      <path id="Trazado_801445" data-name="Trazado 801445" d="M351.631,55.317l1.449-1.111a28.266,28.266,0,0,0-2.435-2.776,27.844,27.844,0,0,0-8.3-5.734l-.748,1.666a26.03,26.03,0,0,1,7.76,5.359,26.486,26.486,0,0,1,2.277,2.6Zm0,0" transform="translate(-299.658 -40.144)"/>
      <path id="Trazado_801446" data-name="Trazado 801446" d="M447.752,157.791l1.694-.681c-.234-.582-.491-1.163-.763-1.727l-1.644.795C447.294,156.7,447.534,157.247,447.752,157.791Zm0,0" transform="translate(-392.293 -136.507)"/>
      <path id="Trazado_801447" data-name="Trazado 801447" d="M442.356,192.868c0,.375-.011.752-.027,1.128l-2.088-2.936-1.488,1.058,4.231,5.953,4.529-5.729-1.433-1.133-1.911,2.418c.007-.253.011-.506.011-.758a27.973,27.973,0,0,0-1.37-8.662l-1.737.564a26.121,26.121,0,0,1,1.281,8.1Zm0,0" transform="translate(-385.015 -161.829)"/>
      <path id="Trazado_801448" data-name="Trazado 801448" d="M25.586,194.29a26.243,26.243,0,0,1,1.152-11.654l-1.731-.582a28.061,28.061,0,0,0-1.232,12.466Zm0,0" transform="translate(-20.251 -159.938)"/>
      <path id="Trazado_801449" data-name="Trazado 801449" d="M57.306,127.541l-1.51-1.025c-.353.519-.691,1.056-1.007,1.6l1.577.921C56.661,128.528,56.978,128.026,57.306,127.541Zm0,0" transform="translate(-47.694 -111.146)"/>
      <path id="Trazado_801450" data-name="Trazado 801450" d="M43.405,154.158l-1.636-.811c-.278.561-.541,1.14-.781,1.719l1.687.7c.224-.541.469-1.081.729-1.606Zm0,0" transform="translate(-35.57 -134.718)"/>
      <path id="Trazado_801451" data-name="Trazado 801451" d="M78.677,32.715,78.313,34.5l2.867.583A27.869,27.869,0,0,0,74.5,40.026a28.393,28.393,0,0,0-2.266,2.558l1.438,1.126A26.464,26.464,0,0,1,75.8,41.317a26,26,0,0,1,6.793-4.9l-1.771,3.367,1.615.85,3.4-6.463Zm0,0" transform="translate(-63.023 -28.74)"/>
      <path id="Trazado_801452" data-name="Trazado 801452" d="M338.16,301.09h1.826v1.826H338.16Zm0,0" transform="translate(-296.641 -264.513)"/>
      <path id="Trazado_801453" data-name="Trazado 801453" d="M157.809,301.09h1.826v1.826h-1.826Zm0,0" transform="translate(-138.199 -264.513)"/>
      <path id="Trazado_801454" data-name="Trazado 801454" d="M308.1,273.535h1.826v8.52H308.1Zm0,0" transform="translate(-270.234 -240.306)"/>
      <path id="Trazado_801455" data-name="Trazado 801455" d="M187.867,273.535h1.826v8.52h-1.826Zm0,0" transform="translate(-164.606 -240.306)"/>
      <path id="Trazado_801456" data-name="Trazado 801456" d="M278.043,258.5h1.826v12.172h-1.826Zm0,0" transform="translate(-243.827 -227.101)"/>
      <path id="Trazado_801457" data-name="Trazado 801457" d="M217.926,258.5h1.826v12.172h-1.826Zm0,0" transform="translate(-191.013 -227.101)"/>
      <path id="Trazado_801458" data-name="Trazado 801458" d="M247.984,238.465h1.826v17.04h-1.826Zm0,0" transform="translate(-217.42 -209.496)"/>
      <g id="Grupo_1065471" data-name="Grupo 1065471" transform="translate(7.803 14.059)">
        <path id="Trazado_801459" data-name="Trazado 801459" d="M246.98,115.727h1.826v1.826H246.98Zm0,0" transform="translate(-224.341 -115.727)" fill="#fff"/>
        <path id="Trazado_801460" data-name="Trazado 801460" d="M435.348,446.371h1.826V448.2h-1.826Zm0,0" transform="translate(-389.826 -406.204)" fill="#fff"/>
        <path id="Trazado_801461" data-name="Trazado 801461" d="M60.617,446.371h1.826V448.2H60.617Zm0,0" transform="translate(-60.617 -406.204)" fill="#fff"/>
      </g>
    </g>
  </g>
</svg>
