<svg xmlns="http://www.w3.org/2000/svg" width="80" height="80" viewBox="0 0 80 80">
  <g id="Grupo_1065506" data-name="Grupo 1065506" transform="translate(-285 -1584)">
    <rect id="Rectángulo_374183" data-name="Rectángulo 374183" width="80" height="80" rx="5" transform="translate(285 1584)" fill="#f7cd00"/>
    <g id="analytics" transform="translate(296 1595)">
      <path id="Trazado_801498" data-name="Trazado 801498" d="M18.3,58.6H14.609A4.609,4.609,0,0,1,10,53.987V14.609A4.609,4.609,0,0,1,14.609,10H62.086A4.609,4.609,0,0,1,66.7,14.609V53.987A4.609,4.609,0,0,1,62.086,58.6H18.3Z" transform="translate(-8.848 -8.848)" fill="#fff"/>
      <path id="Trazado_801499" data-name="Trazado 801499" d="M62.086,10H14.609A4.609,4.609,0,0,0,10,14.609V18.3H66.7V14.609A4.609,4.609,0,0,0,62.086,10Z" transform="translate(-8.848 -8.848)" fill="#ff5a5a"/>
      <path id="Trazado_801500" data-name="Trazado 801500" d="M21,82H75.74" transform="translate(-18.584 -72.551)" fill="#231f20"/>
      <rect id="Rectángulo_374230" data-name="Rectángulo 374230" width="8" height="13" transform="translate(6 45)" fill="#a5dc69"/>
      <rect id="Rectángulo_374231" data-name="Rectángulo 374231" width="8" height="16" transform="translate(32 42)" fill="#78d2fa"/>
      <rect id="Rectángulo_374232" data-name="Rectángulo 374232" width="7.375" height="25.417" transform="translate(19.359 32.43)" fill="#f5c86e"/>
      <rect id="Rectángulo_374233" data-name="Rectángulo 374233" width="7.375" height="27.138" transform="translate(45.172 30.71)" fill="#ff5a5a"/>
      <circle id="Elipse_8491" data-name="Elipse 8491" cx="2.996" cy="2.996" r="2.996" transform="translate(19.402 16.817)" fill="#f5c86e"/>
      <circle id="Elipse_8492" data-name="Elipse 8492" cx="2.996" cy="2.996" r="2.996" transform="translate(32.85 30.537)" fill="#78d2fa"/>
      <circle id="Elipse_8493" data-name="Elipse 8493" cx="2.996" cy="2.996" r="2.996" transform="translate(45.863 16.817)" fill="#ff5a5a"/>
      <circle id="Elipse_8494" data-name="Elipse 8494" cx="2.996" cy="2.996" r="2.996" transform="translate(7.068 29.434)" fill="#a5dc69"/>
      <path id="Trazado_801501" data-name="Trazado 801501" d="M54.976,50.761A4.028,4.028,0,0,0,59,46.737V5.762A5.768,5.768,0,0,0,53.238,0H5.762A5.768,5.768,0,0,0,0,5.762V46.737a4.028,4.028,0,0,0,4.024,4.024H5.3V56.7H1.152a1.152,1.152,0,0,0,0,2.3h56.7a1.152,1.152,0,0,0,0-2.3H53.7V50.761ZM5.762,2.3H53.238A3.461,3.461,0,0,1,56.7,5.762V8.3H2.42c-.039,0-.078,0-.116.006V5.762A3.461,3.461,0,0,1,5.762,2.3ZM7.605,56.7V46.324h5.07V56.7Zm12.906,0V33.583h5.07V56.7Zm12.906,0V43.328h5.07V56.7Zm12.906,0V44.279a1.152,1.152,0,0,0-2.3,0V56.7H40.793V42.176a1.152,1.152,0,0,0-1.152-1.152H32.266a1.152,1.152,0,0,0-1.152,1.152V56.7H27.887V32.431a1.152,1.152,0,0,0-1.152-1.152H19.359a1.152,1.152,0,0,0-1.152,1.152V56.7H14.98V45.172a1.152,1.152,0,0,0-1.152-1.152H6.453A1.152,1.152,0,0,0,5.3,45.172v3.284H4.024A1.721,1.721,0,0,1,2.3,46.737V10.6c.038,0,.077.006.116.006H56.7V46.737a1.721,1.721,0,0,1-1.719,1.719H53.7V30.71a1.152,1.152,0,0,0-1.152-1.152H45.172A1.152,1.152,0,0,0,44.02,30.71v5.819a1.152,1.152,0,0,0,2.3,0V31.862h5.07V56.7Z"/>
      <path id="Trazado_801502" data-name="Trazado 801502" d="M213.217,38.3h26.035a1.152,1.152,0,0,0,0-2.3H213.217a1.152,1.152,0,0,0,0,2.3Z" transform="translate(-187.628 -31.852)"/>
      <path id="Trazado_801503" data-name="Trazado 801503" d="M95.152,38.3a1.153,1.153,0,1,0-.815-.338A1.161,1.161,0,0,0,95.152,38.3Z" transform="translate(-83.168 -31.852)"/>
      <path id="Trazado_801504" data-name="Trazado 801504" d="M55.152,38.3a1.153,1.153,0,1,0-.815-.338A1.161,1.161,0,0,0,55.152,38.3Z" transform="translate(-47.777 -31.852)"/>
      <path id="Trazado_801505" data-name="Trazado 801505" d="M135.152,38.3a1.153,1.153,0,1,0-.815-.338A1.161,1.161,0,0,0,135.152,38.3Z" transform="translate(-118.559 -31.852)"/>
      <path id="Trazado_801506" data-name="Trazado 801506" d="M383.152,342.64a1.153,1.153,0,1,0,.815.338A1.157,1.157,0,0,0,383.152,342.64Z" transform="translate(-337.98 -303.156)"/>
      <path id="Trazado_801507" data-name="Trazado 801507" d="M94.28,144.236a4.155,4.155,0,1,0-3.357-1.715l-7.654,7.654a4.138,4.138,0,0,0-3.826-.093L71.45,142.09a4.149,4.149,0,1,0-7.159.178l-6.8,6.8a4.152,4.152,0,1,0,1.63,1.63L66,143.816a4.139,4.139,0,0,0,3.818-.1l7.914,7.914a4.148,4.148,0,1,0,7.163.171l7.86-7.86A4.122,4.122,0,0,0,94.28,144.236Zm0-5.992a1.844,1.844,0,1,1-1.844,1.844A1.846,1.846,0,0,1,94.28,138.244Zm-38.8,16.3a1.844,1.844,0,1,1,1.844-1.844A1.846,1.846,0,0,1,55.485,154.549Zm12.334-12.617a1.844,1.844,0,1,1,1.844-1.844A1.846,1.846,0,0,1,67.819,141.931Zm13.448,13.72a1.844,1.844,0,1,1,1.844-1.844A1.846,1.846,0,0,1,81.266,155.651Z" transform="translate(-45.42 -120.274)"/>
      <path id="Trazado_801508" data-name="Trazado 801508" d="M132.412,128.325a1.151,1.151,0,1,0-.816-.338A1.163,1.163,0,0,0,132.412,128.325Z" transform="translate(-116.134 -111.498)"/>
      <path id="Trazado_801509" data-name="Trazado 801509" d="M47.152,128.326h5.531a1.152,1.152,0,0,0,0-2.3H47.152a1.152,1.152,0,0,0,0,2.3Z" transform="translate(-40.699 -111.499)"/>
      <path id="Trazado_801510" data-name="Trazado 801510" d="M52.684,176.326a1.152,1.152,0,0,0,0-2.3H47.152a1.152,1.152,0,0,0,0,2.3Z" transform="translate(-40.699 -153.968)"/>
    </g>
  </g>
</svg>
