<svg xmlns="http://www.w3.org/2000/svg" xmlns:xlink="http://www.w3.org/1999/xlink" width="350" height="350" viewBox="0 0 350 350">
  <defs>
    <clipPath id="clip-path">
      <rect id="Rectángulo_374317" data-name="Rectángulo 374317" width="344.313" height="321.72" fill="none"/>
    </clipPath>
    <clipPath id="clip-path-3">
      <rect id="Rectángulo_374278" data-name="Rectángulo 374278" width="170.276" height="112.584" fill="none"/>
    </clipPath>
    <clipPath id="clip-path-4">
      <rect id="Rectángulo_374279" data-name="Rectángulo 374279" width="158.927" height="201.702" fill="none"/>
    </clipPath>
    <clipPath id="clip-path-5">
      <rect id="Rectángulo_374280" data-name="Rectángulo 374280" width="169.278" height="97.921" fill="none"/>
    </clipPath>
    <clipPath id="clip-path-6">
      <rect id="Rectángulo_374281" data-name="Rectángulo 374281" width="3.347" height="10.593" fill="none"/>
    </clipPath>
    <clipPath id="clip-path-7">
      <rect id="Rectángulo_374282" data-name="Rectángulo 374282" width="13.53" height="14.064" fill="none"/>
    </clipPath>
    <clipPath id="clip-path-8">
      <rect id="Rectángulo_374283" data-name="Rectángulo 374283" width="13.53" height="14.063" fill="none"/>
    </clipPath>
    <clipPath id="clip-path-15">
      <rect id="Rectángulo_374290" data-name="Rectángulo 374290" width="28.82" height="16.64" fill="none"/>
    </clipPath>
    <clipPath id="clip-path-16">
      <rect id="Rectángulo_374291" data-name="Rectángulo 374291" width="14.412" height="27.06" fill="none"/>
    </clipPath>
    <clipPath id="clip-path-18">
      <rect id="Rectángulo_374293" data-name="Rectángulo 374293" width="14.412" height="34.844" fill="none"/>
    </clipPath>
    <clipPath id="clip-path-19">
      <rect id="Rectángulo_374294" data-name="Rectángulo 374294" width="14.411" height="34.841" fill="none"/>
    </clipPath>
    <clipPath id="clip-path-21">
      <rect id="Rectángulo_374296" data-name="Rectángulo 374296" width="14.412" height="17.691" fill="none"/>
    </clipPath>
    <clipPath id="clip-path-22">
      <rect id="Rectángulo_374297" data-name="Rectángulo 374297" width="14.412" height="17.69" fill="none"/>
    </clipPath>
    <clipPath id="clip-path-23">
      <rect id="Rectángulo_374298" data-name="Rectángulo 374298" width="26.395" height="21.222" fill="none"/>
    </clipPath>
    <clipPath id="clip-path-24">
      <rect id="Rectángulo_374299" data-name="Rectángulo 374299" width="29.864" height="23.635" fill="none"/>
    </clipPath>
    <clipPath id="clip-path-25">
      <rect id="Rectángulo_374300" data-name="Rectángulo 374300" width="16.556" height="15.009" fill="none"/>
    </clipPath>
    <clipPath id="clip-path-26">
      <rect id="Rectángulo_374301" data-name="Rectángulo 374301" width="26.398" height="26.582" fill="none"/>
    </clipPath>
    <clipPath id="clip-path-27">
      <rect id="Rectángulo_374302" data-name="Rectángulo 374302" width="29.862" height="23.635" fill="none"/>
    </clipPath>
    <clipPath id="clip-path-28">
      <rect id="Rectángulo_374303" data-name="Rectángulo 374303" width="3.301" height="20.974" fill="none"/>
    </clipPath>
    <clipPath id="clip-path-29">
      <rect id="Rectángulo_374304" data-name="Rectángulo 374304" width="7.213" height="4.165" fill="none"/>
    </clipPath>
    <clipPath id="clip-path-30">
      <rect id="Rectángulo_374305" data-name="Rectángulo 374305" width="3.607" height="4.172" fill="none"/>
    </clipPath>
    <clipPath id="clip-path-37">
      <rect id="Rectángulo_374312" data-name="Rectángulo 374312" width="9.886" height="23.327" fill="none"/>
    </clipPath>
    <clipPath id="clip-path-38">
      <rect id="Rectángulo_374313" data-name="Rectángulo 374313" width="26.546" height="42.934" fill="none"/>
    </clipPath>
    <clipPath id="clip-path-39">
      <rect id="Rectángulo_374314" data-name="Rectángulo 374314" width="7.798" height="4.652" fill="none"/>
    </clipPath>
    <clipPath id="clip-path-40">
      <rect id="Rectángulo_374315" data-name="Rectángulo 374315" width="28.618" height="44.891" fill="none"/>
    </clipPath>
  </defs>
  <g id="Grupo_1066167" data-name="Grupo 1066167" transform="translate(3739 8026)">
    <rect id="Rectángulo_374341" data-name="Rectángulo 374341" width="350" height="350" transform="translate(-3739 -8026)" fill="none"/>
    <g id="Grupo_1065983" data-name="Grupo 1065983" transform="translate(-3736 -8012)">
      <g id="Grupo_1066099" data-name="Grupo 1066099" clip-path="url(#clip-path)">
        <g id="Grupo_1066098" data-name="Grupo 1066098">
          <g id="Grupo_1066097" data-name="Grupo 1066097" clip-path="url(#clip-path)">
            <path id="Trazado_802480" data-name="Trazado 802480" d="M293.89,200.947c67.231,38.815,67.231,101.749,0,140.565s-176.235,38.816-243.465,0-67.231-101.749,0-140.565,176.234-38.816,243.465,0" transform="translate(0 -48.904)" fill="#fafafa"/>
            <path id="Trazado_802481" data-name="Trazado 802481" d="M383.134,350.341c13.469,7.776,13.469,20.385,0,28.161s-35.307,7.776-48.777,0-13.469-20.385,0-28.161,35.307-7.776,48.777,0" transform="translate(-92.283 -98.047)" fill="#e0e0e0"/>
            <path id="Trazado_802482" data-name="Trazado 802482" d="M47.334,314,19.052,297.671c-1.594-.92-1.594-2.413,0-3.333l164.5-94.974a6.38,6.38,0,0,1,5.774,0l28.282,16.328c1.595.92,1.595,2.413,0,3.333L53.108,314a6.38,6.38,0,0,1-5.774,0" transform="translate(-5.082 -56.542)" fill="#e0e0e0"/>
            <path id="Trazado_802483" data-name="Trazado 802483" d="M70.692,20.905,64.3,24.6a7.588,7.588,0,0,0,.054-.846V21.9c0-3.3-2.315-4.634-5.17-2.985A10,10,0,0,0,56.1,21.877c-.467-4.146-3.72-5.69-7.671-3.41a17.1,17.1,0,0,0-7.735,13.4v2.771a7.289,7.289,0,0,0,.655,3.211l-5.313,3.067a6.34,6.34,0,0,0-2.868,4.968c0,1.829,1.284,2.57,2.868,1.655L70.692,27.529a6.339,6.339,0,0,0,2.868-4.968c0-1.829-1.284-2.57-2.868-1.655" transform="translate(-9.439 -4.956)" fill="#ebebeb"/>
            <path id="Trazado_802484" data-name="Trazado 802484" d="M120.65,42.666l-4.827,2.786a5.714,5.714,0,0,0,.041-.639v-1.4c0-2.489-1.747-3.5-3.9-2.253a7.54,7.54,0,0,0-2.326,2.236c-.353-3.129-2.808-4.295-5.79-2.573a12.9,12.9,0,0,0-5.838,10.111V53.03a5.513,5.513,0,0,0,.494,2.423l-4.009,2.314a4.785,4.785,0,0,0-2.165,3.749c0,1.38.969,1.939,2.165,1.25l26.156-15.1a4.784,4.784,0,0,0,2.164-3.749c0-1.381-.969-1.94-2.164-1.25" transform="translate(-26.277 -11.393)" fill="#ebebeb"/>
            <path id="Trazado_802485" data-name="Trazado 802485" d="M184.435,290.928l24.312-14.058c2.506-1.447,3.759-3.342,3.759-5.239s.011-3.382.011-3.382l-25.226-14.224a5.351,5.351,0,0,1-2.419-4.192V219.859L142.407,244.4l0,29.975a5.349,5.349,0,0,0,2.42,4.192l21.458,12.365c5.012,2.893,13.139,2.893,18.151,0" transform="translate(-40.528 -62.572)" fill="#263238"/>
            <path id="Trazado_802486" data-name="Trazado 802486" d="M152.6,287.586v3.367l-7.783-4.485a5.357,5.357,0,0,1-2.417-4.192V252.3l8.09-4.667c.167,2.054.349,4.178.517,6.245l-5.672,3.284v23.419a5.316,5.316,0,0,0,2.417,4.192Z" transform="translate(-40.527 -70.478)"/>
            <path id="Trazado_802487" data-name="Trazado 802487" d="M146.5,274.621a5.347,5.347,0,0,0,2.42,4.191l18.525,10.672c5.013,2.893,13.14,2.894,18.153,0l24.324-14.056c5.013-2.892,5.014-7.583,0-10.477l-18.537-10.679a5.348,5.348,0,0,1-2.42-4.192V226.66L146.5,251.2Z" transform="translate(-41.694 -64.507)" fill="#37474f"/>
            <path id="Trazado_802488" data-name="Trazado 802488" d="M196.316,257.122v0l-4.929-2.846a5.348,5.348,0,0,1-2.42-4.192V226.66L146.5,251.2v23.422a5.347,5.347,0,0,0,2.42,4.191l4.844,2.8Z" transform="translate(-41.694 -64.507)" fill="#263238"/>
            <path id="Trazado_802489" data-name="Trazado 802489" d="M225.787,287.5v3.382c0,1.9-1.258,3.787-3.759,5.24l-24.316,14.049a18.194,18.194,0,0,1-8.663,2.152v-3.367a18.194,18.194,0,0,0,8.663-2.152l24.316-14.063c2.5-1.439,3.759-3.339,3.759-5.24" transform="translate(-53.803 -81.823)" fill="#455a64"/>
            <path id="Trazado_802490" data-name="Trazado 802490" d="M50.063,239.225a6.486,6.486,0,0,0,5.863-.109L220.152,144.3a6.685,6.685,0,0,0,3.024-5.24V5.779A6.489,6.489,0,0,0,220.339.647a6.491,6.491,0,0,0-5.863.109L50.253,95.57a6.685,6.685,0,0,0-3.025,5.24l0,133.284a6.486,6.486,0,0,0,2.838,5.132" transform="translate(-13.44 0)" fill="#455a64"/>
            <path id="Trazado_802491" data-name="Trazado 802491" d="M58.185,240.552l164.225-94.814a6.685,6.685,0,0,0,3.025-5.24V7.215c0-1.929-1.354-2.711-3.025-1.747L58.188,100.282a6.685,6.685,0,0,0-3.025,5.24l0,133.284c0,1.929,1.355,2.711,3.025,1.746" transform="translate(-15.698 -1.439)" fill="#27debf"/>
            <path id="Trazado_802492" data-name="Trazado 802492" d="M58.185,240.552l164.225-94.814a6.685,6.685,0,0,0,3.025-5.24V7.215c0-1.929-1.354-2.711-3.025-1.747L58.188,100.282a6.685,6.685,0,0,0-3.025,5.24l0,133.284c0,1.929,1.355,2.711,3.025,1.746" transform="translate(-15.698 -1.439)" fill="#37474f"/>
            <path id="Trazado_802493" data-name="Trazado 802493" d="M55.482,332.162a6.534,6.534,0,0,1-5.421-.112,6.5,6.5,0,0,1-2.837-5.142v-12.1l5.673,3.284v12.1c0,1.761,1.117,2.557,2.585,1.97" transform="translate(-13.44 -89.595)" fill="#263238"/>
            <path id="Trazado_802494" data-name="Trazado 802494" d="M55.154,280.283l.005,12.092c0,1.929,1.354,2.711,3.025,1.746L222.41,199.308a6.687,6.687,0,0,0,3.025-5.24V181.95Z" transform="translate(-15.697 -51.783)" fill="#37474f"/>
            <g id="Grupo_1065985" data-name="Grupo 1065985" transform="translate(39.462 130.167)" opacity="0.2">
              <g id="Grupo_1065984" data-name="Grupo 1065984">
                <g id="Grupo_1065983-2" data-name="Grupo 1065983" clip-path="url(#clip-path-3)">
                  <path id="Trazado_802495" data-name="Trazado 802495" d="M55.161,280.257v12.117c0,1.929,1.354,2.711,3.025,1.747l164.226-94.814a6.688,6.688,0,0,0,3.025-5.24V181.949Z" transform="translate(-55.161 -181.95)"/>
                </g>
              </g>
            </g>
            <path id="Trazado_802496" data-name="Trazado 802496" d="M63.092,218.462V111.105a4.013,4.013,0,0,1,1.815-3.144L220.2,18.3c1-.579,1.816-.109,1.816,1.048l.005,107.359a4.013,4.013,0,0,1-1.815,3.144L64.907,219.51c-1,.579-1.815.109-1.815-1.048" transform="translate(-17.956 -5.139)" fill="#27debf"/>
            <g id="Grupo_1065988" data-name="Grupo 1065988" transform="translate(45.136 12.918)" opacity="0.3">
              <g id="Grupo_1065987" data-name="Grupo 1065987">
                <g id="Grupo_1065986" data-name="Grupo 1065986" clip-path="url(#clip-path-4)">
                  <path id="Trazado_802497" data-name="Trazado 802497" d="M63.092,218.462V111.105a4.013,4.013,0,0,1,1.815-3.144L220.2,18.3c1-.579,1.816-.109,1.816,1.048l.005,107.359a4.013,4.013,0,0,1-1.815,3.144L64.907,219.51c-1,.579-1.815.109-1.815-1.048" transform="translate(-63.092 -18.057)"/>
                </g>
              </g>
            </g>
            <path id="Trazado_802498" data-name="Trazado 802498" d="M173.036,255.9a6.275,6.275,0,0,0-2.839,4.916c0,1.81,1.271,2.544,2.839,1.639a6.274,6.274,0,0,0,2.839-4.917c0-1.81-1.271-2.543-2.839-1.638" transform="translate(-48.438 -72.719)" fill="#455a64"/>
            <path id="Trazado_802499" data-name="Trazado 802499" d="M53.79,140A6.432,6.432,0,0,0,52.9,143V267.414l-5.673-3.284V139.725a6.268,6.268,0,0,1,.894-2.989Z" transform="translate(-13.44 -38.915)" fill="#263238"/>
            <path id="Trazado_802500" data-name="Trazado 802500" d="M258.57,7.127a1.49,1.49,0,0,0-1.543.122L93.353,101.776a4.687,4.687,0,0,0-2.12,3.672V215.795a2.063,2.063,0,0,0,.894,1.842c.347.187,2.168,1.246,2.708,1.537a1.214,1.214,0,0,0,1.228-.071l163.67-94.563a4.676,4.676,0,0,0,2.122-3.669V10.009a1.466,1.466,0,0,0-.657-1.392c-.381-.2-2.237-1.256-2.628-1.489" transform="translate(-25.965 -1.982)" fill="#27debf"/>
            <path id="Trazado_802501" data-name="Trazado 802501" d="M96.584,219.7c-.587,0-1.065-.726-1.065-1.618V107.736a4.365,4.365,0,0,1,1.941-3.363L261.134,9.847A1.577,1.577,0,0,1,261.9,9.6c.511,0,.816.432.816,1.155V121.622a4.35,4.35,0,0,1-1.942,3.359L97.1,219.545a1.052,1.052,0,0,1-.521.156" transform="translate(-27.185 -2.733)" fill="#fafafa"/>
            <path id="Trazado_802502" data-name="Trazado 802502" d="M261.76,9.819c.4,0,.458.5.458.8V121.48a3.955,3.955,0,0,1-1.764,3.05L96.784,219.091a.71.71,0,0,1-.343.109c-.376,0-.706-.589-.706-1.261V107.594a3.962,3.962,0,0,1,1.762-3.053L261.171,10.014a1.206,1.206,0,0,1,.589-.195m0-.715a1.912,1.912,0,0,0-.946.29L97.139,103.922a4.685,4.685,0,0,0-2.12,3.672V217.94c0,1.069.594,1.977,1.422,1.977a1.4,1.4,0,0,0,.7-.2l163.67-94.563a4.677,4.677,0,0,0,2.122-3.669V10.618c0-.959-.478-1.514-1.173-1.514" transform="translate(-27.042 -2.591)" fill="#e0e0e0"/>
            <path id="Trazado_802503" data-name="Trazado 802503" d="M92.123,259.553c.23.122,1.878,1.062,2.6,1.474a2.161,2.161,0,0,1-.781-1.781V155.836l-2.714-1.588V257.713a2.062,2.062,0,0,0,.894,1.84" transform="translate(-25.964 -43.899)" fill="#f0f0f0"/>
            <path id="Trazado_802504" data-name="Trazado 802504" d="M262.931,10.6c-.009-1.339-.953-1.881-2.118-1.208L97.139,103.922a4.685,4.685,0,0,0-2.12,3.671l0,6.934,167.91-96.968Z" transform="translate(-27.042 -2.591)" fill="#27debf"/>
            <g id="Grupo_1065991" data-name="Grupo 1065991" transform="translate(65.912 4.982)" opacity="0.4">
              <g id="Grupo_1065990" data-name="Grupo 1065990">
                <g id="Grupo_1065989" data-name="Grupo 1065989" clip-path="url(#clip-path-5)">
                  <path id="Trazado_802505" data-name="Trazado 802505" d="M259.991,8.784,96.32,103.312a4.355,4.355,0,0,0-1.493,1.573l-2.694-1.56a4.227,4.227,0,0,1,1.474-1.547L257.284,7.251a1.491,1.491,0,0,1,1.54-.127c.38.234,2.14,1.234,2.587,1.474a1.533,1.533,0,0,0-1.42.187" transform="translate(-92.133 -6.964)" fill="#fff"/>
                </g>
              </g>
            </g>
            <g id="Grupo_1065994" data-name="Grupo 1065994" transform="translate(65.265 101.344)" opacity="0.15">
              <g id="Grupo_1065993" data-name="Grupo 1065993">
                <g id="Grupo_1065992" data-name="Grupo 1065992" clip-path="url(#clip-path-6)">
                  <path id="Trazado_802506" data-name="Trazado 802506" d="M91.229,150.673V143.78a4.374,4.374,0,0,1,.647-2.12l2.7,1.554a4.283,4.283,0,0,0-.634,2.106v6.934Z" transform="translate(-91.229 -141.66)"/>
                </g>
              </g>
            </g>
            <path id="Trazado_802507" data-name="Trazado 802507" d="M95.021,117.892l0,12.487L262.932,33.431V20.923Z" transform="translate(-27.042 -5.955)" fill="#ebebeb"/>
            <path id="Trazado_802508" data-name="Trazado 802508" d="M104.794,152.688l10.859-6.239v6.224l-10.863,6.272Z" transform="translate(-29.823 -41.679)" fill="#e0e0e0"/>
            <path id="Trazado_802509" data-name="Trazado 802509" d="M123.723,143v2.46l5.417-3.128v-2.46Z" transform="translate(-35.211 -39.807)" fill="#e0e0e0"/>
            <path id="Trazado_802510" data-name="Trazado 802510" d="M123.723,148.308v2.46l5.417-3.128v-2.46Z" transform="translate(-35.211 -41.318)" fill="#e0e0e0"/>
            <path id="Trazado_802511" data-name="Trazado 802511" d="M135.08,136.44v2.46l5.417-3.128v-2.46Z" transform="translate(-38.444 -37.941)" fill="#e0e0e0"/>
            <path id="Trazado_802512" data-name="Trazado 802512" d="M135.08,141.75v2.46l5.417-3.128v-2.46Z" transform="translate(-38.444 -39.452)" fill="#e0e0e0"/>
            <path id="Trazado_802513" data-name="Trazado 802513" d="M146.437,129.881v2.46l5.417-3.128v-2.46Z" transform="translate(-41.676 -36.074)" fill="#e0e0e0"/>
            <path id="Trazado_802514" data-name="Trazado 802514" d="M146.437,135.192v2.46l5.417-3.128v-2.46Z" transform="translate(-41.676 -37.585)" fill="#e0e0e0"/>
            <path id="Trazado_802515" data-name="Trazado 802515" d="M180.5,110.215v2.46l5.417-3.128v-2.46Z" transform="translate(-51.371 -30.477)" fill="#e0e0e0"/>
            <path id="Trazado_802516" data-name="Trazado 802516" d="M180.5,115.525v2.46l5.417-3.128V112.4Z" transform="translate(-51.371 -31.988)" fill="#e0e0e0"/>
            <path id="Trazado_802517" data-name="Trazado 802517" d="M191.862,103.656v2.46l5.417-3.128v-2.46Z" transform="translate(-54.604 -28.611)" fill="#e0e0e0"/>
            <path id="Trazado_802518" data-name="Trazado 802518" d="M191.862,108.967v2.46l5.417-3.128v-2.46Z" transform="translate(-54.604 -30.122)" fill="#e0e0e0"/>
            <path id="Trazado_802519" data-name="Trazado 802519" d="M203.219,97.1v2.46l5.417-3.128v-2.46Z" transform="translate(-57.836 -26.744)" fill="#e0e0e0"/>
            <path id="Trazado_802520" data-name="Trazado 802520" d="M203.219,102.408v2.46l5.417-3.128v-2.46Z" transform="translate(-57.836 -28.255)" fill="#e0e0e0"/>
            <path id="Trazado_802521" data-name="Trazado 802521" d="M157.791,121.461l13.542-7.819V119.9l-13.539,7.817Z" transform="translate(-44.907 -32.343)" fill="#e0e0e0"/>
            <path id="Trazado_802522" data-name="Trazado 802522" d="M214.58,89.3l10.859-6.239V89.29l-10.863,6.272Z" transform="translate(-61.068 -23.64)" fill="#e0e0e0"/>
            <path id="Trazado_802523" data-name="Trazado 802523" d="M233.509,79.614v2.46l5.417-3.128v-2.46Z" transform="translate(-66.457 -21.768)" fill="#e0e0e0"/>
            <path id="Trazado_802524" data-name="Trazado 802524" d="M233.509,84.925v2.46l5.417-3.128V81.8Z" transform="translate(-66.457 -23.279)" fill="#e0e0e0"/>
            <path id="Trazado_802525" data-name="Trazado 802525" d="M244.866,73.056v2.46l5.417-3.128v-2.46Z" transform="translate(-69.689 -19.902)" fill="#e0e0e0"/>
            <path id="Trazado_802526" data-name="Trazado 802526" d="M244.866,78.366v2.46l5.417-3.128v-2.46Z" transform="translate(-69.689 -21.413)" fill="#e0e0e0"/>
            <path id="Trazado_802527" data-name="Trazado 802527" d="M256.223,66.5v2.46l5.417-3.128V63.37Z" transform="translate(-72.921 -18.035)" fill="#e0e0e0"/>
            <path id="Trazado_802528" data-name="Trazado 802528" d="M256.223,71.808v2.46l5.417-3.128v-2.46Z" transform="translate(-72.921 -19.546)" fill="#e0e0e0"/>
            <path id="Trazado_802529" data-name="Trazado 802529" d="M290.293,46.827v2.46l5.417-3.128V43.7Z" transform="translate(-82.617 -12.437)" fill="#e0e0e0"/>
            <path id="Trazado_802530" data-name="Trazado 802530" d="M290.293,52.137V54.6l5.417-3.128V49.01Z" transform="translate(-82.617 -13.948)" fill="#e0e0e0"/>
            <path id="Trazado_802531" data-name="Trazado 802531" d="M301.65,40.269v2.46l5.417-3.128v-2.46Z" transform="translate(-85.849 -10.57)" fill="#e0e0e0"/>
            <path id="Trazado_802532" data-name="Trazado 802532" d="M301.65,45.579v2.46l5.417-3.128v-2.46Z" transform="translate(-85.849 -12.082)" fill="#e0e0e0"/>
            <path id="Trazado_802533" data-name="Trazado 802533" d="M313.007,33.71v2.46l5.417-3.128v-2.46Z" transform="translate(-89.082 -8.704)" fill="#e0e0e0"/>
            <path id="Trazado_802534" data-name="Trazado 802534" d="M313.007,39.021v2.46l5.417-3.128v-2.46Z" transform="translate(-89.082 -10.215)" fill="#e0e0e0"/>
            <path id="Trazado_802535" data-name="Trazado 802535" d="M267.581,58.077l13.542-7.819v6.255l-13.539,7.817Z" transform="translate(-76.153 -14.304)" fill="#e0e0e0"/>
            <path id="Trazado_802536" data-name="Trazado 802536" d="M93.943,155.836l-2.714-1.587v12.512l2.711,1.562Z" transform="translate(-25.964 -43.899)" fill="#e0e0e0"/>
            <path id="Trazado_802537" data-name="Trazado 802537" d="M269.161,40.6v.46c0,.737.517,1.035,1.154.667l32.9-18.994a2.552,2.552,0,0,0,1.155-2v-.461c0-.736-.517-1.034-1.155-.667L270.316,38.6a2.553,2.553,0,0,0-1.155,2" transform="translate(-76.603 -5.535)" fill="#f5f5f5"/>
            <path id="Trazado_802538" data-name="Trazado 802538" d="M316.22,20.736v-.461c0-.736-.516-1.035-1.155-.667L310.8,22.069V25.2l4.262-2.46a2.553,2.553,0,0,0,1.155-2" transform="translate(-88.454 -5.536)" fill="#455a64"/>
            <path id="Trazado_802539" data-name="Trazado 802539" d="M98.805,138.782l162.5-93.8v6.239L112.342,137.225l0,81.309-13.535,7.814Z" transform="translate(-28.12 -12.801)" fill="#f0f0f0"/>
            <path id="Trazado_802540" data-name="Trazado 802540" d="M117.728,170.814,131.258,163v6.239l-13.53,7.824Z" transform="translate(-33.505 -46.39)" fill="#27debf"/>
            <path id="Trazado_802541" data-name="Trazado 802541" d="M117.728,240.746l13.53-7.811v6.239L117.728,247Z" transform="translate(-33.505 -66.293)" fill="#27debf"/>
            <path id="Trazado_802542" data-name="Trazado 802542" d="M117.728,249.489l13.53-7.811v6.239l-13.53,7.824Z" transform="translate(-33.505 -68.781)" fill="#27debf"/>
            <g id="Grupo_1065997" data-name="Grupo 1065997" transform="translate(84.223 172.896)" opacity="0.8">
              <g id="Grupo_1065996" data-name="Grupo 1065996">
                <g id="Grupo_1065995" data-name="Grupo 1065995" clip-path="url(#clip-path-7)">
                  <path id="Trazado_802543" data-name="Trazado 802543" d="M117.728,249.489l13.53-7.811v6.239l-13.53,7.824Z" transform="translate(-117.728 -241.677)" fill="#fff"/>
                </g>
              </g>
            </g>
            <path id="Trazado_802544" data-name="Trazado 802544" d="M231.287,175.176l13.53-7.811V173.6l-13.53,7.824Z" transform="translate(-65.824 -47.632)" fill="#27debf"/>
            <g id="Grupo_1066000" data-name="Grupo 1066000" transform="translate(165.463 119.733)" opacity="0.3">
              <g id="Grupo_1065999" data-name="Grupo 1065999">
                <g id="Grupo_1065998" data-name="Grupo 1065998" clip-path="url(#clip-path-8)">
                  <path id="Trazado_802545" data-name="Trazado 802545" d="M231.287,175.176l13.53-7.811V173.6l-13.53,7.824Z" transform="translate(-231.287 -167.365)"/>
                </g>
              </g>
            </g>
            <path id="Trazado_802546" data-name="Trazado 802546" d="M231.287,183.919l13.53-7.811v6.239l-13.53,7.824Z" transform="translate(-65.824 -50.12)" fill="#27debf"/>
            <g id="Grupo_1066003" data-name="Grupo 1066003" transform="translate(165.463 125.988)" opacity="0.4">
              <g id="Grupo_1066002" data-name="Grupo 1066002">
                <g id="Grupo_1066001" data-name="Grupo 1066001" clip-path="url(#clip-path-8)">
                  <path id="Trazado_802547" data-name="Trazado 802547" d="M231.287,183.919l13.53-7.811v6.239l-13.53,7.824Z" transform="translate(-231.287 -176.108)"/>
                </g>
              </g>
            </g>
            <path id="Trazado_802548" data-name="Trazado 802548" d="M231.287,192.663l13.53-7.811v6.239l-13.53,7.824Z" transform="translate(-65.824 -52.609)" fill="#27debf"/>
            <g id="Grupo_1066006" data-name="Grupo 1066006" transform="translate(165.463 132.243)" opacity="0.5">
              <g id="Grupo_1066005" data-name="Grupo 1066005">
                <g id="Grupo_1066004" data-name="Grupo 1066004" clip-path="url(#clip-path-8)">
                  <path id="Trazado_802549" data-name="Trazado 802549" d="M231.287,192.663l13.53-7.811v6.239l-13.53,7.824Z" transform="translate(-231.287 -184.851)"/>
                </g>
              </g>
            </g>
            <path id="Trazado_802550" data-name="Trazado 802550" d="M231.287,201.406l13.53-7.811v6.239l-13.53,7.824Z" transform="translate(-65.824 -55.097)" fill="#27debf"/>
            <g id="Grupo_1066009" data-name="Grupo 1066009" transform="translate(165.463 138.498)" opacity="0.3">
              <g id="Grupo_1066008" data-name="Grupo 1066008">
                <g id="Grupo_1066007" data-name="Grupo 1066007" clip-path="url(#clip-path-8)">
                  <path id="Trazado_802551" data-name="Trazado 802551" d="M231.287,201.406l13.53-7.811v6.239l-13.53,7.824Z" transform="translate(-231.287 -193.595)"/>
                </g>
              </g>
            </g>
            <path id="Trazado_802552" data-name="Trazado 802552" d="M212.375,116.163l13.53-7.811v31.272l-13.53,7.824Z" transform="translate(-60.442 -30.837)" fill="#27debf"/>
            <path id="Trazado_802553" data-name="Trazado 802553" d="M212.375,168.622l13.53-7.811v43.781l-13.53,7.824Z" transform="translate(-60.442 -45.767)" fill="#27debf"/>
            <path id="Trazado_802554" data-name="Trazado 802554" d="M136.641,212.334l13.53-7.811v6.239l-13.53,7.824Z" transform="translate(-38.888 -58.207)" fill="#27debf"/>
            <g id="Grupo_1066012" data-name="Grupo 1066012" transform="translate(97.752 146.315)" opacity="0.3">
              <g id="Grupo_1066011" data-name="Grupo 1066011">
                <g id="Grupo_1066010" data-name="Grupo 1066010" clip-path="url(#clip-path-8)">
                  <path id="Trazado_802555" data-name="Trazado 802555" d="M136.641,212.334l13.53-7.811v6.239l-13.53,7.824Z" transform="translate(-136.64 -204.522)"/>
                </g>
              </g>
            </g>
            <path id="Trazado_802556" data-name="Trazado 802556" d="M174.519,146.763l13.53-7.811v6.239l-13.53,7.824Z" transform="translate(-49.668 -39.545)" fill="#27debf"/>
            <g id="Grupo_1066015" data-name="Grupo 1066015" transform="translate(124.851 99.406)" opacity="0.6">
              <g id="Grupo_1066014" data-name="Grupo 1066014">
                <g id="Grupo_1066013" data-name="Grupo 1066013" clip-path="url(#clip-path-8)">
                  <path id="Trazado_802557" data-name="Trazado 802557" d="M174.519,146.763l13.53-7.811v6.239l-13.53,7.824Z" transform="translate(-174.519 -138.951)" fill="#fff"/>
                </g>
              </g>
            </g>
            <path id="Trazado_802558" data-name="Trazado 802558" d="M269.166,144.577l13.53-7.811V143l-13.53,7.824Z" transform="translate(-76.604 -38.923)" fill="#27debf"/>
            <g id="Grupo_1066018" data-name="Grupo 1066018" transform="translate(192.562 97.842)" opacity="0.8">
              <g id="Grupo_1066017" data-name="Grupo 1066017">
                <g id="Grupo_1066016" data-name="Grupo 1066016" clip-path="url(#clip-path-7)">
                  <path id="Trazado_802559" data-name="Trazado 802559" d="M269.166,144.577l13.53-7.811V143l-13.53,7.824Z" transform="translate(-269.166 -136.765)" fill="#fff"/>
                </g>
              </g>
            </g>
            <path id="Trazado_802560" data-name="Trazado 802560" d="M269.166,162.069l13.53-7.811V160.5l-13.53,7.824Z" transform="translate(-76.604 -43.902)" fill="#27debf"/>
            <path id="Trazado_802561" data-name="Trazado 802561" d="M98.506,138.265l-.167.1V226.7l163-94.109.167-.1V44.158Zm162.329-12.394-12.87,7.431v-5.486l12.87-7.43ZM99.006,145l12.873-7.432v5.486l-12.873,7.432Zm80.583-8.988V141.5l-12.875,7.434v-5.486Zm-12.875,6.664v-5.487l12.875-7.434v5.487Zm13.542-7.05,12.875-7.433v5.486l-12.875,7.433Zm0-.769V129.37l12.875-7.433v5.486Zm0-6.256v-5.487l12.875-7.433v5.486Zm0-6.257v-5.486l12.875-7.433v5.486Zm-.667.385-12.875,7.434v-5.486l12.875-7.434Zm0,.77v5.486l-12.875,7.434v-5.486ZM166.047,136.8l-12.875,7.433V138.75l12.875-7.433Zm0,.769v5.487l-12.875,7.433v-5.486Zm0,6.257v5.486l-12.875,7.433v-5.486Zm0,6.255v5.487l-12.875,7.433V157.52Zm.667-.385,12.875-7.434v5.487l-12.875,7.434Zm12.875-1.178v5.486l-12.875,7.434v-5.486Zm.667-.385,12.875-7.433v5.486l-12.875,7.433Zm0-.77v-5.486l12.875-7.433v5.486Zm13.542-13.3,12.875-7.434v5.486L193.8,139.551Zm0-.77v-5.486l12.875-7.434v5.486Zm0-6.256v-5.486l12.875-7.434V119.6Zm0-6.256V115.3l12.875-7.434v5.486Zm0-6.256V109.04l12.875-7.434v5.486Zm0-6.256v-5.486l12.875-7.434v5.486Zm-.667.385-12.875,7.433V110.6l12.875-7.433Zm-13.542,7.819-12.875,7.433V118.42l12.875-7.434Zm-13.542,7.819-12.875,7.433v-5.486l12.875-7.434Zm0,.769v5.486l-12.875,7.434v-5.486Zm-13.542,13.305L139.63,145.8v-5.486l12.876-7.434Zm0,.769v5.487l-12.876,7.434V146.57Zm0,6.257v5.486l-12.876,7.434v-5.486Zm0,6.256v5.486l-12.876,7.434v-5.486Zm0,6.256v5.486l-12.876,7.434v-5.486Zm0,6.256v5.486l-12.876,7.434v-5.486Zm.667-.385,12.875-7.433v5.486l-12.875,7.434Zm12.875-1.178v5.487l-12.875,7.433v-5.486Zm.667-.385,12.875-7.434v5.487L166.714,167.7Zm13.542-7.819,12.875-7.433v5.486l-12.875,7.434Zm13.542-7.818,12.875-7.433v5.486L193.8,152.063Zm0-.77v-5.486l12.875-7.434v5.486ZM207.339,132.5l12.876-7.434v5.486l-12.876,7.434Zm0-.77v-5.486l12.876-7.434V124.3Zm0-6.256V119.99l12.876-7.434v5.486Zm0-6.256v-5.486l12.876-7.434v5.486Zm0-6.256v-5.486l12.876-7.434v5.486Zm0-6.256v-5.486l12.876-7.434v5.486Zm0-6.256V94.965l12.876-7.434v5.486Zm0-6.256V88.709l12.876-7.434v5.486Zm-.667.385L193.8,102.013V96.528l12.875-7.434ZM193.131,102.4l-12.875,7.433v-5.486l12.875-7.433Zm-13.542,7.818-12.875,7.434v-5.486l12.875-7.433Zm-13.542,7.819-12.875,7.434v-5.486l12.875-7.434Zm-13.542,7.819-12.876,7.434V127.8l12.876-7.434Zm0,.77v5.486l-12.876,7.434v-5.486Zm-13.543,13.305-12.875,7.434v-5.487l12.875-7.433Zm0,.77v5.486l-12.875,7.433v-5.486Zm0,6.255v5.487l-12.875,7.434v-5.487Zm0,6.257V158.7l-12.875,7.434v-5.487Zm0,6.256v5.486l-12.875,7.434V166.9Zm0,6.256v5.486l-12.875,7.434v-5.487Zm0,6.256v5.486L126.088,184.9v-5.486Zm0,6.256v5.486l-12.875,7.434v-5.487Zm.667-.385,12.876-7.434V175.9l-12.876,7.434Zm12.876-1.178v5.486l-12.876,7.434v-5.487Zm.667-.385,12.875-7.434v5.487l-12.875,7.434Zm13.542-7.819,12.875-7.433v5.486l-12.875,7.434Zm13.542-7.819,12.875-7.433V158.7l-12.875,7.434Zm13.542-7.818,12.875-7.434v5.487L193.8,158.32Zm13.542-7.818,12.876-7.434v5.486L207.339,150.5Zm0-.77v-5.487l12.876-7.434v5.486Zm13.543-13.306,12.874-7.433v5.486l-12.874,7.433Zm0-.77v-5.486l12.874-7.433v5.486Zm0-6.256v-5.486l12.874-7.433v5.486Zm0-6.256v-5.486l12.874-7.433v5.486Zm0-6.256v-5.486l12.874-7.433v5.486Zm0-6.256V99.659l12.874-7.433v5.486Zm0-6.256V93.4l12.874-7.433v5.486Zm0-6.256V87.146l12.874-7.433V85.2Zm0-6.256V80.89l12.874-7.433v5.486Zm0-6.256V74.634L233.756,67.2v5.486Zm-.667.385-12.876,7.434V82.453l12.876-7.434Zm-13.543,7.819L193.8,95.758V90.271l12.875-7.434Zm-13.542,7.819-12.875,7.433V98.089l12.875-7.433Zm-13.542,7.818-12.875,7.434v-5.486l12.875-7.433Zm-13.542,7.819-12.875,7.434v-5.486l12.875-7.433ZM152.505,119.6l-12.876,7.434v-5.486l12.876-7.434Zm-13.543,7.819-12.875,7.433v-5.486l12.875-7.434Zm0,.77v5.486l-12.875,7.433V135.62Zm-13.541,13.3-12.876,7.434v-5.486L125.422,136Zm0,.77v5.487l-12.876,7.434v-5.487Zm0,6.256V154l-12.876,7.434V155.95Zm0,6.256v5.487l-12.876,7.434v-5.487Zm0,6.256v5.487l-12.876,7.434v-5.487Zm0,6.257v5.486l-12.876,7.434v-5.486Zm0,6.255v5.487l-12.876,7.434v-5.487Zm0,6.256v5.487l-12.876,7.434v-5.486Zm0,6.256v5.487l-12.876,7.434v-5.487Zm0,6.257V197.8l-12.876,7.434v-5.487Zm.666-.386,12.875-7.433v5.487l-12.875,7.433Zm12.875-1.177v5.486l-12.875,7.434v-5.486Zm.667-.385,12.876-7.434v5.486L139.63,195.85Zm13.543-7.819,12.875-7.433V180.6l-12.875,7.433Zm13.542-7.818,12.875-7.434v5.486l-12.875,7.434Zm13.542-7.819,12.875-7.434v5.486l-12.875,7.433Zm13.542-7.819,12.875-7.433v5.486L193.8,164.576Zm13.542-7.818,12.876-7.434v5.486l-12.876,7.434Zm13.543-7.819,12.874-7.434v5.486l-12.874,7.433Zm0-.77V137.2l12.874-7.433v5.486Zm13.541-13.3,12.876-7.434v5.486l-12.876,7.434Zm0-.77v-5.486l12.876-7.434v5.486Zm0-6.256v-5.486l12.876-7.434v5.486Zm0-6.256v-5.486l12.876-7.434v5.486Zm0-6.256v-5.486L247.3,96.92v5.486Zm0-6.256V98.1L247.3,90.663V96.15Zm0-6.256V91.84L247.3,84.407v5.486Zm0-6.257V85.585L247.3,78.151v5.486Zm0-6.256V79.329L247.3,71.895v5.486Zm0-6.256V73.072L247.3,65.639v5.486Zm0-6.256V66.816L247.3,59.382v5.486Zm0-6.255V60.563L247.3,53.129v5.484Zm-.667.385-12.874,7.433V68.381l12.874-7.433Zm-13.541,7.818-12.876,7.434V76.2l12.876-7.433Zm-13.543,7.819L193.8,89.5V84.018l12.875-7.433Zm-13.542,7.819-12.875,7.433V91.837L193.131,84.4ZM179.589,97.7l-12.875,7.434V99.655l12.875-7.434Zm-13.542,7.819-12.875,7.434v-5.484l12.875-7.433Zm-13.542,7.819-12.876,7.434v-5.483l12.876-7.434Zm-13.543,7.819-12.875,7.433V123.11l12.875-7.433Zm-13.541,7.818-12.876,7.434v-5.483l12.876-7.434Zm0,.771v5.486l-12.876,7.434v-5.486ZM99.006,151.256l12.873-7.432v5.486l-12.874,7.432Zm0,6.256,12.874-7.432v5.486L99.005,163Zm0,6.256,12.874-7.433v5.486l-12.874,7.433Zm0,6.255,12.874-7.432v5.487l-12.874,7.432Zm0,6.257,12.874-7.433v5.487l-12.874,7.433Zm0,6.256,12.874-7.432v5.486l-12.874,7.432Zm0,6.256,12.874-7.433v5.487L99.005,194.28Zm0,6.256,12.874-7.432V193.1L99,200.535Zm0,6.256,12.874-7.433v5.487L99,206.792Zm0,6.256,12.874-7.432v5.486L99,213.048Zm0,6.257,12.874-7.433v5.486L99,219.3ZM112.546,206l12.876-7.434v5.486l-12.876,7.434Zm12.876-1.178v5.467l-12.876,7.434v-5.467Zm.666-.385L138.963,197v5.466L126.088,209.9Zm13.542-7.818,12.876-7.434v5.466l-12.876,7.434Zm13.543-7.819,12.875-7.434v5.466l-12.875,7.434Zm13.542-7.819,12.875-7.434v5.466l-12.875,7.434Zm13.542-7.819,12.875-7.433V171.2l-12.875,7.434Zm13.542-7.818,12.875-7.434v5.466L193.8,170.811Zm13.542-7.819,12.876-7.434v5.466l-12.876,7.434Zm13.543-7.819,12.874-7.433v5.465l-12.874,7.434Zm13.541-7.818,12.876-7.434v5.465l-12.876,7.434Zm0-.77v-5.486L247.3,128.2v5.486Zm26.413-21.506-12.87,7.431v-5.486l12.87-7.43Zm0-6.256-12.87,7.431V115.3l12.87-7.43Zm0-6.256-12.87,7.431v-5.486l12.87-7.431Zm0-6.256-12.87,7.431v-5.486l12.87-7.431Zm0-6.256-12.87,7.431V96.535l12.87-7.431Zm0-6.256-12.87,7.431V90.278l12.871-7.431Zm0-6.256-12.871,7.431V84.022l12.871-7.431Zm0-6.257-12.871,7.431V77.766l12.871-7.431Zm0-6.256L247.966,77V71.51l12.871-7.431Zm0-6.256-12.871,7.431V65.254l12.871-7.431Zm0-6.256-12.871,7.431V59l12.871-7.431Zm0-6.256-12.871,7.432V52.744l12.871-7.432ZM111.879,131.315V136.8l-12.873,7.432v-5.482ZM99,220.074l12.874-7.433v5.467L99,225.541Zm148.961-80.537v-5.465l12.87-7.43v5.465Z" transform="translate(-27.987 -12.567)" fill="#e0e0e0"/>
            <path id="Trazado_802562" data-name="Trazado 802562" d="M250.2,84.968l54.192-31.262V84.987L250.2,116.24Z" transform="translate(-71.207 -15.285)" fill="#fafafa"/>
            <path id="Trazado_802563" data-name="Trazado 802563" d="M250.2,84.968l54.192-31.262V84.987L250.2,116.24Z" transform="translate(-71.207 -15.285)" fill="none" stroke="#e0e0e0" stroke-miterlimit="10" stroke-width="1"/>
            <path id="Trazado_802564" data-name="Trazado 802564" d="M254.03,115.055l7.324-20,8.1,4.842,8.142-8.294,8.12,5.353,8.12-19.993,8.12,4.165" transform="translate(-72.297 -21.904)" fill="none" stroke="#455a64" stroke-linecap="round" stroke-linejoin="round" stroke-width="0.75"/>
            <path id="Trazado_802565" data-name="Trazado 802565" d="M263.941,100.886a1.809,1.809,0,0,0-.816,1.419c0,.524.366.735.816.473a1.812,1.812,0,0,0,.816-1.419c0-.522-.366-.733-.816-.473" transform="translate(-74.885 -28.68)" fill="#27debf"/>
            <path id="Trazado_802566" data-name="Trazado 802566" d="M275.291,107.654a1.809,1.809,0,0,0-.816,1.419c0,.523.366.735.816.473a1.813,1.813,0,0,0,.816-1.419c0-.522-.366-.733-.816-.473" transform="translate(-78.115 -30.606)" fill="#27debf"/>
            <path id="Trazado_802567" data-name="Trazado 802567" d="M286.642,96.065a1.809,1.809,0,0,0-.816,1.419c0,.523.366.735.816.473a1.813,1.813,0,0,0,.816-1.419c0-.522-.366-.733-.816-.473" transform="translate(-81.346 -27.308)" fill="#27debf"/>
            <path id="Trazado_802568" data-name="Trazado 802568" d="M297.992,103.54a1.809,1.809,0,0,0-.816,1.419c0,.523.366.735.816.473a1.813,1.813,0,0,0,.816-1.419c0-.522-.366-.733-.816-.473" transform="translate(-84.576 -29.436)" fill="#27debf"/>
            <path id="Trazado_802569" data-name="Trazado 802569" d="M309.342,75.6a1.809,1.809,0,0,0-.816,1.419c0,.523.366.735.816.473a1.813,1.813,0,0,0,.816-1.419c0-.522-.366-.733-.816-.473" transform="translate(-87.806 -21.483)" fill="#27debf"/>
            <path id="Trazado_802570" data-name="Trazado 802570" d="M320.692,81.418a1.809,1.809,0,0,0-.816,1.419c0,.523.366.735.816.473a1.813,1.813,0,0,0,.816-1.419c0-.522-.366-.733-.816-.473" transform="translate(-91.036 -23.14)" fill="#27debf"/>
            <path id="Trazado_802571" data-name="Trazado 802571" d="M351.73,214.749l-14.409,8.319,14.41,8.32,14.41-8.319Z" transform="translate(-96.001 -61.117)" fill="#455a64"/>
            <path id="Trazado_802572" data-name="Trazado 802572" d="M371.876,226.353v33.09l-14.41,8.319v-33.07Z" transform="translate(-101.734 -64.42)" fill="#37474f"/>
            <path id="Trazado_802573" data-name="Trazado 802573" d="M351.731,234.693v33.07l-14.41-8.321V226.355Z" transform="translate(-96.001 -64.42)" fill="#263238"/>
            <path id="Trazado_802574" data-name="Trazado 802574" d="M325.231,250.105l-14.409,8.319,14.41,8.32,14.41-8.319Z" transform="translate(-88.46 -71.18)" fill="#27debf"/>
            <g id="Grupo_1066021" data-name="Grupo 1066021" transform="translate(222.362 178.925)" opacity="0.3">
              <g id="Grupo_1066020" data-name="Grupo 1066020">
                <g id="Grupo_1066019" data-name="Grupo 1066019" clip-path="url(#clip-path-15)">
                  <path id="Trazado_802575" data-name="Trazado 802575" d="M325.231,250.105l-14.409,8.319,14.41,8.32,14.41-8.319Z" transform="translate(-310.822 -250.105)" fill="#fff"/>
                </g>
              </g>
            </g>
            <path id="Trazado_802576" data-name="Trazado 802576" d="M345.376,261.709V280.45l-14.41,8.32V270.048Z" transform="translate(-94.192 -74.482)" fill="#27debf"/>
            <path id="Trazado_802577" data-name="Trazado 802577" d="M325.232,270.049v18.722l-14.41-8.321V261.711Z" transform="translate(-88.459 -74.483)" fill="#27debf"/>
            <g id="Grupo_1066024" data-name="Grupo 1066024" transform="translate(222.362 187.228)" opacity="0.1">
              <g id="Grupo_1066023" data-name="Grupo 1066023">
                <g id="Grupo_1066022" data-name="Grupo 1066022" clip-path="url(#clip-path-16)">
                  <path id="Trazado_802578" data-name="Trazado 802578" d="M325.232,270.049v18.722l-14.41-8.321V261.711Z" transform="translate(-310.821 -261.711)"/>
                </g>
              </g>
            </g>
            <path id="Trazado_802579" data-name="Trazado 802579" d="M298.731,254.526l-14.409,8.319,14.41,8.321,14.41-8.319Z" transform="translate(-80.918 -72.438)" fill="#27debf"/>
            <g id="Grupo_1066027" data-name="Grupo 1066027" transform="translate(203.404 182.089)" opacity="0.88">
              <g id="Grupo_1066026" data-name="Grupo 1066026">
                <g id="Grupo_1066025" data-name="Grupo 1066025" clip-path="url(#clip-path-15)">
                  <path id="Trazado_802580" data-name="Trazado 802580" d="M298.731,254.526l-14.409,8.319,14.41,8.321,14.41-8.319Z" transform="translate(-284.322 -254.527)" fill="#fff"/>
                </g>
              </g>
            </g>
            <path id="Trazado_802581" data-name="Trazado 802581" d="M318.876,266.13v26.524l-14.41,8.319v-26.5Z" transform="translate(-86.65 -75.74)" fill="#27debf"/>
            <g id="Grupo_1066030" data-name="Grupo 1066030" transform="translate(217.814 190.39)" opacity="0.75">
              <g id="Grupo_1066029" data-name="Grupo 1066029">
                <g id="Grupo_1066028" data-name="Grupo 1066028" clip-path="url(#clip-path-18)">
                  <path id="Trazado_802582" data-name="Trazado 802582" d="M318.876,266.13v26.524l-14.41,8.319v-26.5Z" transform="translate(-304.464 -266.13)" fill="#fff"/>
                </g>
              </g>
            </g>
            <path id="Trazado_802583" data-name="Trazado 802583" d="M298.732,274.47v26.5l-14.41-8.321V266.132Z" transform="translate(-80.918 -75.741)" fill="#27debf"/>
            <g id="Grupo_1066033" data-name="Grupo 1066033" transform="translate(203.404 190.392)" opacity="0.6">
              <g id="Grupo_1066032" data-name="Grupo 1066032">
                <g id="Grupo_1066031" data-name="Grupo 1066031" clip-path="url(#clip-path-19)">
                  <path id="Trazado_802584" data-name="Trazado 802584" d="M298.732,274.47v26.5l-14.41-8.321V266.132Z" transform="translate(-284.322 -266.133)" fill="#fff"/>
                </g>
              </g>
            </g>
            <path id="Trazado_802585" data-name="Trazado 802585" d="M272.231,293.8l-14.409,8.319,14.41,8.321,14.41-8.319Z" transform="translate(-73.376 -83.616)" fill="#27debf"/>
            <g id="Grupo_1066036" data-name="Grupo 1066036" transform="translate(184.446 210.186)" opacity="0.3">
              <g id="Grupo_1066035" data-name="Grupo 1066035">
                <g id="Grupo_1066034" data-name="Grupo 1066034" clip-path="url(#clip-path-15)">
                  <path id="Trazado_802586" data-name="Trazado 802586" d="M272.231,293.8l-14.409,8.319,14.41,8.321,14.41-8.319Z" transform="translate(-257.822 -293.802)"/>
                </g>
              </g>
            </g>
            <path id="Trazado_802587" data-name="Trazado 802587" d="M292.377,305.405v9.372l-14.41,8.319v-9.352Z" transform="translate(-79.109 -86.918)" fill="#27debf"/>
            <g id="Grupo_1066039" data-name="Grupo 1066039" transform="translate(198.856 218.488)" opacity="0.4">
              <g id="Grupo_1066038" data-name="Grupo 1066038">
                <g id="Grupo_1066037" data-name="Grupo 1066037" clip-path="url(#clip-path-21)">
                  <path id="Trazado_802588" data-name="Trazado 802588" d="M292.377,305.405v9.372l-14.41,8.319v-9.352Z" transform="translate(-277.965 -305.406)"/>
                </g>
              </g>
            </g>
            <path id="Trazado_802589" data-name="Trazado 802589" d="M272.232,313.746V323.1l-14.41-8.321v-9.369Z" transform="translate(-73.376 -86.919)" fill="#27debf"/>
            <g id="Grupo_1066042" data-name="Grupo 1066042" transform="translate(184.446 218.489)" opacity="0.55">
              <g id="Grupo_1066041" data-name="Grupo 1066041">
                <g id="Grupo_1066040" data-name="Grupo 1066040" clip-path="url(#clip-path-22)">
                  <path id="Trazado_802590" data-name="Trazado 802590" d="M272.232,313.746V323.1l-14.41-8.321v-9.369Z" transform="translate(-257.822 -305.408)"/>
                </g>
              </g>
            </g>
            <path id="Trazado_802591" data-name="Trazado 802591" d="M166.1,369.336v5.454l-5.387-14.641V354.7l.006.007Z" transform="translate(-45.74 -100.947)" fill="#263238"/>
            <path id="Trazado_802592" data-name="Trazado 802592" d="M168.251,372.1v5.451l22.221-7.708v-5.451Z" transform="translate(-47.884 -103.704)" fill="#37474f"/>
            <path id="Trazado_802593" data-name="Trazado 802593" d="M160.718,354.608l5.39,14.64,22.221-7.708c-6.1-5.323-16.707-7.985-27.611-6.931" transform="translate(-45.74 -100.856)" fill="#455a64"/>
            <path id="Trazado_802594" data-name="Trazado 802594" d="M128.263,376.574a1.439,1.439,0,0,0-.006.167v-.167Z" transform="translate(-36.502 -107.173)" fill="#27debf"/>
            <path id="Trazado_802595" data-name="Trazado 802595" d="M154.652,382.508l-3.3,15.521c-13.468-1.313-23.2-8.127-23.089-15.914l-.007.013v-5.32c0,7.726,9.708,14.467,23.1,15.774l2.266-10.667Z" transform="translate(-36.502 -107.239)" fill="#27debf"/>
            <g id="Grupo_1066045" data-name="Grupo 1066045" transform="translate(91.755 269.568)" opacity="0.4">
              <g id="Grupo_1066044" data-name="Grupo 1066044">
                <g id="Grupo_1066043" data-name="Grupo 1066043" clip-path="url(#clip-path-23)">
                  <path id="Trazado_802596" data-name="Trazado 802596" d="M154.652,382.508l-3.3,15.521c-13.468-1.313-23.2-8.127-23.089-15.914l-.007.013v-5.32c0,7.726,9.708,14.467,23.1,15.774l2.266-10.667Z" transform="translate(-128.257 -376.807)"/>
                </g>
              </g>
            </g>
            <path id="Trazado_802597" data-name="Trazado 802597" d="M164.075,391.9v5.451a43,43,0,0,0,16.4-2.243c6.351-2.2,10.835-5.7,12.628-9.852a9.8,9.8,0,0,0,.834-3.806c.006-.517,0-5.634,0-5.634a5.786,5.786,0,0,1-3.342-2.043l-4.161,1.443-19.058,6.612Z" transform="translate(-46.696 -106.375)" fill="#27debf"/>
            <g id="Grupo_1066048" data-name="Grupo 1066048" transform="translate(117.379 267.395)" opacity="0.6">
              <g id="Grupo_1066047" data-name="Grupo 1066047">
                <g id="Grupo_1066046" data-name="Grupo 1066046" clip-path="url(#clip-path-24)">
                  <path id="Trazado_802598" data-name="Trazado 802598" d="M164.075,391.9v5.451a43,43,0,0,0,16.4-2.243c6.351-2.2,10.835-5.7,12.628-9.852a9.8,9.8,0,0,0,.834-3.806c.006-.517,0-5.634,0-5.634a5.786,5.786,0,0,1-3.342-2.043l-4.161,1.443-19.058,6.612Z" transform="translate(-164.075 -373.77)" fill="#fff"/>
                </g>
              </g>
            </g>
            <path id="Trazado_802599" data-name="Trazado 802599" d="M140.894,365.695l16.555,9.558V369.8l-16.555-9.559Z" transform="translate(-40.098 -102.525)" fill="#27debf"/>
            <g id="Grupo_1066051" data-name="Grupo 1066051" transform="translate(100.796 257.719)" opacity="0.1">
              <g id="Grupo_1066050" data-name="Grupo 1066050">
                <g id="Grupo_1066049" data-name="Grupo 1066049" clip-path="url(#clip-path-25)">
                  <path id="Trazado_802600" data-name="Trazado 802600" d="M140.894,365.695l16.555,9.558V369.8l-16.555-9.559Z" transform="translate(-140.894 -360.243)"/>
                </g>
              </g>
            </g>
            <path id="Trazado_802601" data-name="Trazado 802601" d="M128.462,370.541c-1.812,8.52,8.375,16.323,22.889,17.741l3.3-15.523L135.5,361.7c-4,2.5-6.3,5.4-7.035,8.842" transform="translate(-36.501 -102.939)" fill="#27debf"/>
            <g id="Grupo_1066054" data-name="Grupo 1066054" transform="translate(91.753 258.76)" opacity="0.3">
              <g id="Grupo_1066053" data-name="Grupo 1066053">
                <g id="Grupo_1066052" data-name="Grupo 1066052" clip-path="url(#clip-path-26)">
                  <path id="Trazado_802602" data-name="Trazado 802602" d="M128.462,370.541c-1.812,8.52,8.375,16.323,22.889,17.741l3.3-15.523L135.5,361.7c-4,2.5-6.3,5.4-7.035,8.842" transform="translate(-128.254 -361.699)"/>
                </g>
              </g>
            </g>
            <path id="Trazado_802603" data-name="Trazado 802603" d="M164.172,389.275l-.1.454a43.023,43.023,0,0,0,16.4-2.243c6.351-2.2,10.835-5.7,12.628-9.853,1.689-3.912.8-7.961-2.507-11.484l-4.161,1.444L167.377,374.2Z" transform="translate(-46.696 -104.206)" fill="#27debf"/>
            <g id="Grupo_1066057" data-name="Grupo 1066057" transform="translate(117.379 261.944)" opacity="0.75">
              <g id="Grupo_1066056" data-name="Grupo 1066056">
                <g id="Grupo_1066055" data-name="Grupo 1066055" clip-path="url(#clip-path-27)">
                  <path id="Trazado_802604" data-name="Trazado 802604" d="M164.172,389.275l-.1.454a43.023,43.023,0,0,0,16.4-2.243c6.351-2.2,10.835-5.7,12.628-9.853,1.689-3.912.8-7.961-2.507-11.484l-4.161,1.444L167.377,374.2Z" transform="translate(-164.075 -366.15)" fill="#fff"/>
                </g>
              </g>
            </g>
            <path id="Trazado_802605" data-name="Trazado 802605" d="M140.894,358.786l16.555,9.558-4.868-13.222a33.93,33.93,0,0,0-11.688,3.664" transform="translate(-40.098 -101.067)" fill="#27debf"/>
            <path id="Trazado_802606" data-name="Trazado 802606" d="M163.841,382.609v-5.451l-3.3,15.523v5.451Z" transform="translate(-45.689 -107.339)" fill="#27debf"/>
            <g id="Grupo_1066060" data-name="Grupo 1066060" transform="translate(114.85 269.819)" opacity="0.55">
              <g id="Grupo_1066059" data-name="Grupo 1066059">
                <g id="Grupo_1066058" data-name="Grupo 1066058" clip-path="url(#clip-path-28)">
                  <path id="Trazado_802607" data-name="Trazado 802607" d="M163.841,382.609v-5.451l-3.3,15.523v5.451Z" transform="translate(-160.54 -377.158)"/>
                </g>
              </g>
            </g>
            <path id="Trazado_802608" data-name="Trazado 802608" d="M193.241,343.266l-3.606,2.083,3.606,2.083,3.607-2.083Z" transform="translate(-53.97 -97.693)" fill="#27debf"/>
            <g id="Grupo_1066063" data-name="Grupo 1066063" transform="translate(135.664 245.573)" opacity="0.3">
              <g id="Grupo_1066062" data-name="Grupo 1066062">
                <g id="Grupo_1066061" data-name="Grupo 1066061" clip-path="url(#clip-path-29)">
                  <path id="Trazado_802609" data-name="Trazado 802609" d="M193.241,343.266l-3.606,2.083,3.606,2.083,3.607-2.083Z" transform="translate(-189.634 -343.266)"/>
                </g>
              </g>
            </g>
            <path id="Trazado_802610" data-name="Trazado 802610" d="M198.283,346.17v2.09l-3.607,2.082v-2.085Z" transform="translate(-55.405 -98.52)" fill="#27debf"/>
            <g id="Grupo_1066066" data-name="Grupo 1066066" transform="translate(139.271 247.65)" opacity="0.4">
              <g id="Grupo_1066065" data-name="Grupo 1066065">
                <g id="Grupo_1066064" data-name="Grupo 1066064" clip-path="url(#clip-path-30)">
                  <path id="Trazado_802611" data-name="Trazado 802611" d="M198.283,346.17v2.09l-3.607,2.082v-2.085Z" transform="translate(-194.676 -346.17)"/>
                </g>
              </g>
            </g>
            <path id="Trazado_802612" data-name="Trazado 802612" d="M193.241,348.258v2.085l-3.607-2.083v-2.089Z" transform="translate(-53.97 -98.52)" fill="#27debf"/>
            <g id="Grupo_1066069" data-name="Grupo 1066069" transform="translate(135.664 247.651)" opacity="0.55">
              <g id="Grupo_1066068" data-name="Grupo 1066068">
                <g id="Grupo_1066067" data-name="Grupo 1066067" clip-path="url(#clip-path-30)">
                  <path id="Trazado_802613" data-name="Trazado 802613" d="M193.241,348.258v2.085l-3.607-2.083v-2.089Z" transform="translate(-189.634 -346.171)"/>
                </g>
              </g>
            </g>
            <path id="Trazado_802614" data-name="Trazado 802614" d="M202.123,337.8l13.363-7.715a3.092,3.092,0,0,1,2.8-.051c.748.431.708,1.155-.089,1.615l-13.362,7.715a3.1,3.1,0,0,1-2.8.051c-.748-.432-.708-1.155.089-1.615" transform="translate(-57.346 -93.838)" fill="#e0e0e0"/>
            <path id="Trazado_802615" data-name="Trazado 802615" d="M204.6,349.823l-3.606,2.083,3.607,2.083,3.606-2.083Z" transform="translate(-57.202 -99.559)" fill="#27debf"/>
            <g id="Grupo_1066072" data-name="Grupo 1066072" transform="translate(143.79 250.264)" opacity="0.88">
              <g id="Grupo_1066071" data-name="Grupo 1066071">
                <g id="Grupo_1066070" data-name="Grupo 1066070" clip-path="url(#clip-path-29)">
                  <path id="Trazado_802616" data-name="Trazado 802616" d="M204.6,349.823l-3.606,2.083,3.607,2.083,3.606-2.083Z" transform="translate(-200.992 -349.823)" fill="#fff"/>
                </g>
              </g>
            </g>
            <path id="Trazado_802617" data-name="Trazado 802617" d="M209.64,352.727v2.09l-3.607,2.083v-2.085Z" transform="translate(-58.637 -100.386)" fill="#27debf"/>
            <g id="Grupo_1066075" data-name="Grupo 1066075" transform="translate(147.396 252.342)" opacity="0.75">
              <g id="Grupo_1066074" data-name="Grupo 1066074">
                <g id="Grupo_1066073" data-name="Grupo 1066073" clip-path="url(#clip-path-30)">
                  <path id="Trazado_802618" data-name="Trazado 802618" d="M209.64,352.727v2.09l-3.607,2.083v-2.085Z" transform="translate(-206.033 -352.727)" fill="#fff"/>
                </g>
              </g>
            </g>
            <path id="Trazado_802619" data-name="Trazado 802619" d="M204.6,354.815V356.9l-3.606-2.083v-2.089Z" transform="translate(-57.202 -100.386)" fill="#27debf"/>
            <g id="Grupo_1066078" data-name="Grupo 1066078" transform="translate(143.79 252.342)" opacity="0.6">
              <g id="Grupo_1066077" data-name="Grupo 1066077">
                <g id="Grupo_1066076" data-name="Grupo 1066076" clip-path="url(#clip-path-30)">
                  <path id="Trazado_802620" data-name="Trazado 802620" d="M204.6,354.815V356.9l-3.606-2.083v-2.089Z" transform="translate(-200.992 -352.728)" fill="#fff"/>
                </g>
              </g>
            </g>
            <path id="Trazado_802621" data-name="Trazado 802621" d="M213.481,344.352l13.362-7.715a3.094,3.094,0,0,1,2.8-.052c.748.431.708,1.155-.089,1.615l-13.362,7.715a3.1,3.1,0,0,1-2.8.052c-.748-.432-.708-1.155.089-1.615" transform="translate(-60.579 -95.704)" fill="#e0e0e0"/>
            <path id="Trazado_802622" data-name="Trazado 802622" d="M215.956,356.38l-3.606,2.083,3.606,2.083,3.607-2.083Z" transform="translate(-60.434 -101.425)" fill="#27debf"/>
            <g id="Grupo_1066081" data-name="Grupo 1066081" transform="translate(151.915 254.955)" opacity="0.3">
              <g id="Grupo_1066080" data-name="Grupo 1066080">
                <g id="Grupo_1066079" data-name="Grupo 1066079" clip-path="url(#clip-path-29)">
                  <path id="Trazado_802623" data-name="Trazado 802623" d="M215.956,356.38l-3.606,2.083,3.606,2.083,3.607-2.083Z" transform="translate(-212.349 -356.38)" fill="#fff"/>
                </g>
              </g>
            </g>
            <path id="Trazado_802624" data-name="Trazado 802624" d="M221,359.285v2.09l-3.607,2.083v-2.085Z" transform="translate(-61.869 -102.252)" fill="#27debf"/>
            <path id="Trazado_802625" data-name="Trazado 802625" d="M215.956,361.372v2.085l-3.606-2.083v-2.089Z" transform="translate(-60.434 -102.252)" fill="#27debf"/>
            <g id="Grupo_1066084" data-name="Grupo 1066084" transform="translate(151.915 257.033)" opacity="0.1">
              <g id="Grupo_1066083" data-name="Grupo 1066083">
                <g id="Grupo_1066082" data-name="Grupo 1066082" clip-path="url(#clip-path-30)">
                  <path id="Trazado_802626" data-name="Trazado 802626" d="M215.956,361.372v2.085l-3.606-2.083v-2.089Z" transform="translate(-212.349 -359.285)"/>
                </g>
              </g>
            </g>
            <path id="Trazado_802627" data-name="Trazado 802627" d="M224.839,350.909l13.363-7.715a3.094,3.094,0,0,1,2.8-.052c.748.431.708,1.155-.089,1.615l-13.362,7.715a3.1,3.1,0,0,1-2.8.051c-.748-.432-.708-1.155.089-1.615" transform="translate(-63.811 -97.57)" fill="#e0e0e0"/>
            <path id="Trazado_802628" data-name="Trazado 802628" d="M227.313,362.938l-3.606,2.082,3.607,2.083,3.606-2.083Z" transform="translate(-63.667 -103.292)" fill="#455a64"/>
            <path id="Trazado_802629" data-name="Trazado 802629" d="M232.355,365.842v2.09l-3.607,2.083v-2.085Z" transform="translate(-65.102 -104.118)" fill="#37474f"/>
            <path id="Trazado_802630" data-name="Trazado 802630" d="M227.313,367.93v2.085l-3.607-2.083v-2.089Z" transform="translate(-63.666 -104.118)" fill="#263238"/>
            <path id="Trazado_802631" data-name="Trazado 802631" d="M236.2,357.467l13.362-7.715a3.094,3.094,0,0,1,2.8-.051c.748.431.708,1.155-.089,1.615L238.9,359.031a3.1,3.1,0,0,1-2.8.051c-.748-.432-.708-1.155.089-1.615" transform="translate(-67.043 -99.436)" fill="#e0e0e0"/>
            <path id="Trazado_802632" data-name="Trazado 802632" d="M386.827,205.032c4.959-.027,7.312,1.394,9.1,6.143s6.522,15.629,6.613,18.864c.1,3.356-10.707,13.527-10.32,13.352.119-.054-3.292-6.165-3.292-6.165L395,229.78l-3.483-10.111Z" transform="translate(-110.091 -58.352)" fill="#ffa8a7"/>
            <path id="Trazado_802633" data-name="Trazado 802633" d="M390.113,357.635c.3.29.361.571.351,1.628s.438,2.24-.106,3.226c-.406.738-2.477,1.246-3.531.7A10.926,10.926,0,0,1,384.4,361a17.278,17.278,0,0,0-2.127-2.056c-.893-.665-1.93-1.108-2.862-1.718a5.713,5.713,0,0,1-2.593-4.285,2.809,2.809,0,0,1,.332-1.632,1.86,1.86,0,0,1,1.867-.611,25.757,25.757,0,0,1,5.216,2.618c.991.685,5.567,4.015,5.881,4.314" transform="translate(-107.239 -99.8)" fill="#263238"/>
            <path id="Trazado_802634" data-name="Trazado 802634" d="M386.341,353.941c-.032.76-3.234-1.017-4.545-.844a.155.155,0,0,0-.036.017c-1.217.586-.207,2.294.929,3.168s4.833,3.593,4.833,3.593l.758-4.388Z" transform="translate(-108.491 -100.488)" fill="#ffa8a7"/>
            <path id="Trazado_802635" data-name="Trazado 802635" d="M361.359,371.557c.593,0,.857,1.942.966,3.442.085,1.16.524,3.05.114,3.9s-1.972,1.384-4.383,1.335c-1.562-.033-4.009,1-5.688,1.9a8.667,8.667,0,0,1-5.418.68c-2.143-.28-4.349-1.552-4.684-2.445s.116-1.315,5.2-3.4c.046-.019,5.363-2.338,7.844-5.006Z" transform="translate(-97.384 -105.745)" fill="#263238"/>
            <path id="Trazado_802636" data-name="Trazado 802636" d="M348.82,377.119c-.7.289-1.311.544-1.847.775-.137.481.047,1.242,2.293,1.616,3.424.571,13.485-7,13.485-7s-1.442.4-1.713-.428l-4.373.033c-2.482,2.668-7.8,4.986-7.844,5.006" transform="translate(-98.738 -105.894)" fill="#ffa8a7"/>
            <path id="Trazado_802637" data-name="Trazado 802637" d="M387.245,303.327a43.618,43.618,0,0,0-.983-9.923s.6-12.774.665-20.805c.136-15.88-.168-18.211-3.681-25.063,0,0-20.509-2.4-21.373,7.6-1.077,12.447-2.328,33.277-2.295,39.205.024,4.414.524,9.2.768,19.206.156,6.41.832,15.468-.086,23.053,1.16,1.943,4.3,1.909,6.086.395.515-7.427,4.2-21.647,4.772-26.61a42.014,42.014,0,0,0-.438-10.722s2.717-21.2,3.194-24.428a59.743,59.743,0,0,1,1.19,10.355c-.014,1.408.487,6.131,1.293,14.073.491,4.838,3.914,23.738,4.655,29.813,1.716,1.658,3.935.515,4.035-.207.574-7.414,2.2-21.311,2.2-25.938" transform="translate(-102.336 -70.376)" fill="#ffa8a7"/>
            <g id="Grupo_1066087" data-name="Grupo 1066087" transform="translate(271.54 190.32)" opacity="0.15">
              <g id="Grupo_1066086" data-name="Grupo 1066086">
                <g id="Grupo_1066085" data-name="Grupo 1066085" clip-path="url(#clip-path-37)">
                  <path id="Trazado_802638" data-name="Trazado 802638" d="M379.564,280.567l1.813-10.3a14.077,14.077,0,0,0,8.073-4.239s-1.086,4.118-6.416,5.519l-2.12,9.316-.359,8.492Z" transform="translate(-379.564 -266.032)"/>
                </g>
              </g>
            </g>
            <path id="Trazado_802639" data-name="Trazado 802639" d="M372.371,199.6l.856,9.333,8.2-.5-.628-10.35Z" transform="translate(-105.976 -56.375)" fill="#ffa8a7"/>
            <path id="Trazado_802640" data-name="Trazado 802640" d="M385.349,238.018a37.839,37.839,0,0,0-3.545-7.088c3.5-11.286,4.626-15.087,3.945-19.913-.434-3.07-2.845-6.138-5.835-5.979,0,0-1.615,0-2.295,0-.134,2.14-6.078,2.244-8.333.772l-2.076.055c-1.469.52-6.464,7.837-7.014,12.694-.447,3.947,2.643,7.367,2.643,7.367a37.441,37.441,0,0,1-.293,5s.016,9.551,0,14.3c0,0,1.159,3.661,13.188,2.516,10.7-1.019,10.963-4.675,10.963-4.675a22.638,22.638,0,0,0-1.349-5.051" transform="translate(-102.499 -58.352)" fill="#27debf"/>
            <g id="Grupo_1066090" data-name="Grupo 1066090" transform="translate(257.653 146.68)" opacity="0.3">
              <g id="Grupo_1066089" data-name="Grupo 1066089">
                <g id="Grupo_1066088" data-name="Grupo 1066088" clip-path="url(#clip-path-38)">
                  <path id="Trazado_802641" data-name="Trazado 802641" d="M385.349,238.018a37.839,37.839,0,0,0-3.545-7.088c3.5-11.286,4.626-15.087,3.945-19.913-.434-3.07-2.845-6.138-5.835-5.979,0,0-1.615,0-2.295,0-.134,2.14-6.078,2.244-8.333.772l-2.076.055c-1.469.52-6.464,7.837-7.014,12.694-.447,3.947,2.643,7.367,2.643,7.367a37.441,37.441,0,0,1-.293,5s.016,9.551,0,14.3c0,0,1.159,3.661,13.188,2.516,10.7-1.019,10.963-4.675,10.963-4.675a22.638,22.638,0,0,0-1.349-5.051" transform="translate(-360.152 -205.032)"/>
                </g>
              </g>
            </g>
            <path id="Trazado_802642" data-name="Trazado 802642" d="M370.784,169.659a7.621,7.621,0,0,0-6.592,2.389c-4.2,4.725.4,8.2.4,8.2Z" transform="translate(-103.146 -48.267)" fill="#263238"/>
            <path id="Trazado_802643" data-name="Trazado 802643" d="M363.271,185.868s-1.822,2.739-1.586,3.03a4.33,4.33,0,0,0,1.389.6Z" transform="translate(-102.929 -52.898)" fill="#f28f8f"/>
            <path id="Trazado_802644" data-name="Trazado 802644" d="M369.363,173.451c-1.767.907-4.82,2.583-5.622,9.081-.822,6.67.657,8.993,1.564,9.87.613.592,3.78.814,5.434.305,2.07-.637,6.555-2.838,8.664-6.276,2.481-4.045,3.006-9.443.16-11.568a10.655,10.655,0,0,0-10.2-1.411" transform="translate(-103.452 -49.161)" fill="#ffa8a7"/>
            <path id="Trazado_802645" data-name="Trazado 802645" d="M369.322,180.047c-3.7-1.882-2.754-6.788-2.754-6.788s5.282-7.545,15.021-2.665c3.37,1.688,5.392,5.523,5.31,10.012a10.571,10.571,0,0,1-10.572,10.571,6.163,6.163,0,0,1-6.163-6.162v-.408l.312.1a3.132,3.132,0,0,0,2.877-.769c1.621-1.4,1.816-4.136-.237-4.828s-3.126,1.686-3.126,1.686l0,0-.795,2.181a1.553,1.553,0,0,1-.927-1.99,1.524,1.524,0,0,1,1.055-.939" transform="translate(-104.294 -48.083)" fill="#263238"/>
            <path id="Trazado_802646" data-name="Trazado 802646" d="M332.223,186.566l-17.585,8.808,8.269,23.831,16.421-8.844Z" transform="translate(-89.546 -53.096)" fill="#27debf"/>
            <path id="Trazado_802647" data-name="Trazado 802647" d="M332.177,189.789l-14.753,7.389,7.328,20.491,13.776-7.419Z" transform="translate(-90.339 -54.014)" fill="#f5f5f5"/>
            <g id="Grupo_1066093" data-name="Grupo 1066093" transform="translate(230.919 136.99)" opacity="0.15">
              <g id="Grupo_1066092" data-name="Grupo 1066092">
                <g id="Grupo_1066091" data-name="Grupo 1066091" clip-path="url(#clip-path-39)">
                  <path id="Trazado_802648" data-name="Trazado 802648" d="M330.58,192.418l-.271-.729c-.15-.4-1.371-.185-2.728.488l-2.6,1.286c-1.357.672-2.336,1.544-2.186,1.947l.271.729Z" transform="translate(-322.782 -191.487)"/>
                </g>
              </g>
            </g>
            <path id="Trazado_802649" data-name="Trazado 802649" d="M329.766,188.615c-.092-.252-.623-.22-1.185.072l-1.018.528s-.6-1.575-2.932-.531-1.839,2.867-1.839,2.867l-1.08.572c-.6.316-1.025.779-.958,1.034l.123.463,9.059-4.536s-.078-.217-.17-.469" transform="translate(-91.284 -53.597)" fill="#37474f"/>
            <path id="Trazado_802650" data-name="Trazado 802650" d="M329.511,190.039c-.842.4-1.174.589-.944,1.21.263.709.51,1.219.51,1.219l-4.007,2.012s-.316-.9-.455-1.249-.427-.519-1.065-.2l-.231-.253,6.318-3.09Z" transform="translate(-92.016 -53.986)" fill="#263238"/>
            <path id="Trazado_802651" data-name="Trazado 802651" d="M330.817,192.475l-.271-.729c-.15-.4-1.371-.185-2.728.488l-2.6,1.286c-1.357.672-2.336,1.544-2.186,1.947l.271.729Z" transform="translate(-91.931 -54.513)" fill="#37474f"/>
            <path id="Trazado_802652" data-name="Trazado 802652" d="M361.718,206.194c-2.769-.046-4.443.2-8.223,5.808s-10.785,15.936-11.607,17.273a7.167,7.167,0,0,0-.469,6.46c.869,1.627,2.4,2.192,6.751-2.435,3.225-3.427,10-12.527,10-12.527s5.273-9.83,3.547-14.579" transform="translate(-97.006 -58.682)" fill="#ffa8a7"/>
            <path id="Trazado_802653" data-name="Trazado 802653" d="M335.33,237.572c-2.283.7-10.655-9.262-12.984-12.26a34.527,34.527,0,0,0-6.539-6.635c-3.226-2.467-2.689-6.165-1.208-9.54.514-1.168,2.173-.375,2.173-.375l.563,1.622.975,2.809c.681.654,1.071.87,1.12.679.093-.358-.477-1.87-.436-3.435.049-1.882,1.346-.623,1.729.044a23.527,23.527,0,0,1,1.34,3.133c.63,1.7.329,3.4,1.111,4.559s12.155,10.609,12.155,10.609Z" transform="translate(-89.202 -59.339)" fill="#ffa8a7"/>
            <path id="Trazado_802654" data-name="Trazado 802654" d="M381.436,241.232s-8.023,4.739-19.256,0a165.827,165.827,0,0,0-2.037,17.8c-.4,7.595-1.281,23.9-1.281,23.9s3.318,3.867,15.149,3.083c11.371-.753,13.379-3.717,13.379-3.717s.026-14.646.086-21.048c.077-8.188-1.072-12.662-6.039-20.021" transform="translate(-102.131 -68.654)" fill="#27debf"/>
            <g id="Grupo_1066096" data-name="Grupo 1066096" transform="translate(256.73 172.578)" opacity="0.5">
              <g id="Grupo_1066095" data-name="Grupo 1066095">
                <g id="Grupo_1066094" data-name="Grupo 1066094" clip-path="url(#clip-path-40)">
                  <path id="Trazado_802655" data-name="Trazado 802655" d="M381.436,241.232s-8.023,4.739-19.256,0a165.827,165.827,0,0,0-2.037,17.8c-.4,7.595-1.281,23.9-1.281,23.9s3.318,3.867,15.149,3.083c11.371-.753,13.379-3.717,13.379-3.717s.026-14.646.086-21.048c.077-8.188-1.072-12.662-6.039-20.021" transform="translate(-358.861 -241.232)"/>
                </g>
              </g>
            </g>
            <path id="Trazado_802656" data-name="Trazado 802656" d="M394.99,179.949l1.876-1.718a1.639,1.639,0,0,0-2.777,1.587c-.232-.021-.467-.036-.705-.036v15.085a7.835,7.835,0,0,0,7.835,7.835V187.618a7.837,7.837,0,0,0-6.228-7.668" transform="translate(-111.956 -50.573)" fill="#263238"/>
          </g>
        </g>
      </g>
    </g>
  </g>
</svg>
