<svg xmlns="http://www.w3.org/2000/svg" xmlns:xlink="http://www.w3.org/1999/xlink" width="162" height="87" viewBox="0 0 162 87">
  <defs>
    <clipPath id="clip-path">
      <circle id="circle23115" cx="33.31" cy="33.31" r="33.31" transform="translate(0 0)" fill="#0054a6"/>
    </clipPath>
  </defs>
  <g id="Grupo_1065970" data-name="Grupo 1065970" transform="translate(-360 -3978)">
    <rect id="Rectángulo_374258" data-name="Rectángulo 374258" width="162" height="50" transform="translate(360 4015)" fill="#f7cd00"/>
    <g id="logo_1_" data-name="logo (1)" transform="translate(383.568 3950.699)">
      <path id="circle" d="M60.742,27.3A33.3,33.3,0,0,0,31.429,76.422a2.924,2.924,0,0,1,.554.2A3.553,3.553,0,0,1,33.6,77.961a2.173,2.173,0,0,1,.31,1.009,1.733,1.733,0,0,1-.265,1.006A33.308,33.308,0,1,0,60.742,27.3Z" transform="translate(0 0)" fill="#0054a6"/>
      <path id="tongue" d="M513.567,159.057l1.7-.791,1.149-3.14,1.206.422-1.036,2.808,2.869.989-.433,1.176-3.2-1.119-1.767.813" transform="translate(-422.024 -110.968)" fill="#0054a6" fill-rule="evenodd"/>
      <g id="Grupo_1065534" data-name="Grupo 1065534" transform="translate(27.432 27.301)" clip-path="url(#clip-path)">
        <path id="snake" d="M99.391,130.683c-2.294-3.138-6.828-4.963-10.718-5.82s-6.256-1.519-8.147-2.542a7.452,7.452,0,0,1-3.192-7.6,9.121,9.121,0,0,1,10-7.389,8.668,8.668,0,0,1,5.744,3.379l5.291,6.951c3.024,3.895,6.424,5.054,10.123,3.215l1.8-.851a.744.744,0,0,1,.624-.116c.293.093.437.346.6.642s.339.569.648.643a1.136,1.136,0,0,0,.943-.169c1.371-1.307,4.152-3.968,4.152-3.968.752-.644.531-1.235.531-1.235l-1.036-2.358s-.283-.565-1.262-.435l-5.759.529a.957.957,0,0,0-.762.61.907.907,0,0,0-.026.594l.206.663a.661.661,0,0,1-.015.434.64.64,0,0,1-.361.365l-1.628.689a4.187,4.187,0,0,1-4.935-1.221l-1.479-1.964-4.209-5.586a12.94,12.94,0,0,0-8.572-5.038,13.09,13.09,0,0,0-14.777,11.023,10.983,10.983,0,0,0,2.667,9.677c2.7,3.086,7.945,4.261,12.491,5.3.486.115,1.855.453,2.664.746a13.394,13.394,0,0,1,3.874,2.053h0a7.863,7.863,0,0,1,2.184,6.684,8.03,8.03,0,0,1-9.067,6.764,7.93,7.93,0,0,1-5.265-3.091l-5.054-6.707a6.744,6.744,0,0,0-9.429-1.321l-10.556,7.878a7.731,7.731,0,0,0,2.221,3.566l10.883-8.16a2.509,2.509,0,0,1,3.4.556l5.346,7.184a12.252,12.252,0,0,0,7.821,4.4,12.378,12.378,0,0,0,13.971-10.427,12.118,12.118,0,0,0-1.942-8.552" transform="translate(-53.698 -93.001)" fill="#fff" fill-rule="evenodd"/>
      </g>
    </g>
  </g>
</svg>
