<svg xmlns="http://www.w3.org/2000/svg" width="162" height="87" viewBox="0 0 162 87">
  <g id="Grupo_1065969" data-name="Grupo 1065969" transform="translate(-180 -3978)">
    <rect id="Rectángulo_374257" data-name="Rectángulo 374257" width="162" height="50" transform="translate(180 4015)" fill="#f7cd00"/>
    <g id="Layer_1" data-name="Layer 1" transform="translate(169.63 3934.95)">
      <path id="Trazado_801565" data-name="Trazado 801565" d="M102.091,98.54l-12.5-6.31L75.87,99.077l12.839,6.448Z" transform="translate(-15.975 -40.29)" fill="#4dabcf"/>
      <path id="Trazado_801566" data-name="Trazado 801566" d="M192.121,143.14l13.107,6.616-13.6,6.829-12.859-6.458Z" transform="translate(-100.275 -81.998)" fill="#4dabcf"/>
      <path id="Trazado_801567" data-name="Trazado 801567" d="M296.391,92.76l13.465,6.751-12.042,6.048L284.68,98.935Z" transform="translate(-187.041 -40.725)" fill="#4dabcf"/>
      <path id="Trazado_801568" data-name="Trazado 801568" d="M208.123,49.127,196,43.05,184.01,49.033l12.49,6.3Z" transform="translate(-104.568)" fill="#4dabcf"/>
      <path id="Trazado_801569" data-name="Trazado 801569" d="M264.98,332.2v16.541l14.685-7.328-.016-16.548Z" transform="translate(-170.902 -230.871)" fill="#4dabcf"/>
      <path id="Trazado_801570" data-name="Trazado 801570" d="M279.643,218.695l-.016-16.375L264.98,209.6v16.38Z" transform="translate(-170.902 -130.481)" fill="#4dabcf"/>
      <path id="Trazado_801571" data-name="Trazado 801571" d="M386.824,275.93v16.606L374.3,298.787l-.009-16.53Z" transform="translate(-260.454 -190.785)" fill="#4dabcf"/>
      <path id="Trazado_801572" data-name="Trazado 801572" d="M386.758,170.062V153.79l-12.548,6.238.011,16.407Z" transform="translate(-260.388 -90.723)" fill="#4dabcf"/>
      <path id="Trazado_801573" data-name="Trazado 801573" d="M88.894,167.4,79,162.429v21.494s-12.1-25.738-13.217-28.05a2.46,2.46,0,0,0-.891-.7c-2.169-1.139-8.525-4.358-8.525-4.358v37.973l8.792,4.7V173.634s11.968,23,12.089,23.249a10.761,10.761,0,0,0,2.607,3.527c1.71,1.132,9.038,5.538,9.038,5.538Z" transform="translate(0 -88.282)" fill="#4d77cf"/>
    </g>
  </g>
</svg>
