<svg xmlns="http://www.w3.org/2000/svg" width="251.256" height="116.06" viewBox="0 0 251.256 116.06">
  <g id="Grupo_1065524" data-name="Grupo 1065524" transform="translate(-220.188 -3123.116)">
    <line id="Línea_1733" data-name="Línea 1733" x2="145.955" transform="translate(323.572 3124.616)" fill="none" stroke="#12263f" stroke-linecap="round" stroke-width="3"/>
    <g id="Grupo_1065523" data-name="Grupo 1065523" transform="translate(220.188 3123.956)">
      <path id="Trazado_801529" data-name="Trazado 801529" d="M21.973,65.379,37.925,21.594h7.061l-20.249,54.4H19.47L10.317,52.527H3.405V46.774H15.173Z" transform="translate(44.18 34.657)" fill="#12263f"/>
      <path id="Trazado_801525" data-name="Trazado 801525" d="M10.715,31.7-1.15,47.285H19.609v2.534H-4.927V47.577L7.6,31.313-4.927,16.585V14.344h23.22v2.534H-.931L10.715,30.825Z" transform="translate(115.026 14.255)" fill="#12263f"/>
      <path id="Trazado_801526" data-name="Trazado 801526" d="M6.82,13.028l-.312,1.65a5.365,5.365,0,0,1,4.171-1.9,3.4,3.4,0,0,1,2.924,1.41,5.628,5.628,0,0,1,.7,3.827L12.784,27.1H9.7l1.533-9.122a4.668,4.668,0,0,0,.013-1.04,1.657,1.657,0,0,0-1.845-1.585,3.743,3.743,0,0,0-3.08,1.728L4.572,27.1H1.492l2.43-14.06Z" transform="translate(113.945 -3.778)" fill="#12263f"/>
      <path id="Trazado_801523" data-name="Trazado 801523" d="M6.82,13.028l-.312,1.65a5.365,5.365,0,0,1,4.171-1.9,3.4,3.4,0,0,1,2.924,1.41,5.628,5.628,0,0,1,.7,3.827L12.784,27.1H9.7l1.533-9.122a4.668,4.668,0,0,0,.013-1.04,1.657,1.657,0,0,0-1.845-1.585,3.743,3.743,0,0,0-3.08,1.728L4.572,27.1H1.492l2.43-14.06Z" transform="translate(162.597 88.12)" fill="#12263f"/>
      <path id="Trazado_801527" data-name="Trazado 801527" d="M-18.257-2.76h-2.948l1.68-9.666h2.948Zm-1.01-12.105a1.363,1.363,0,0,1,.46-1.09,1.652,1.652,0,0,1,1.157-.438A1.706,1.706,0,0,1-16.5-16a1.34,1.34,0,0,1,.478,1.027,1.366,1.366,0,0,1-.456,1.094,1.657,1.657,0,0,1-1.161.433,1.727,1.727,0,0,1-1.139-.389A1.324,1.324,0,0,1-19.266-14.865ZM-2.346-9.21h-8.273v-2.323h8.273Zm0,3.922h-8.273V-7.611h8.273ZM10.974-2.76H7.955v-9.613l-2.966.867v-2.287L10.7-15.767h.277Z" transform="translate(126.083 86.377)" fill="#12263f"/>
      <path id="Trazado_801530" data-name="Trazado 801530" d="M19.761,16.467l-3.106.026.52.793a5.369,5.369,0,0,1,.9,3.2,7.746,7.746,0,0,1-2.255,5.1,6.623,6.623,0,0,1-4.905,1.839,5.467,5.467,0,0,1-4.262-1.832A6.516,6.516,0,0,1,5.194,20.9l.039-.6.039-.286a7.79,7.79,0,0,1,2.41-5.009A7.581,7.581,0,0,1,12.9,13.063l.013.039v-.026l7.459.013ZM9.469,21.1q-.182,2.916,1.741,2.968a2.074,2.074,0,0,0,1.949-1.2,8.8,8.8,0,0,0,.819-3.794l.013-.56q-.065-1.978-1.494-2.07a2.462,2.462,0,0,0-2.339,1.471A7.487,7.487,0,0,0,9.469,21.1Zm30.524-3.335H27.961V14.388H39.993Zm0,5.7H27.961V20.093H39.993Z" transform="translate(-5.188 64.578)" fill="#12263f"/>
      <path id="Trazado_801521" data-name="Trazado 801521" d="M28.992,23.083a19.858,19.858,0,0,1,.845-5.9,14.237,14.237,0,0,1,2.333-4.626,8.284,8.284,0,0,1,3.307-2.651l.832,2.157a8.472,8.472,0,0,0-2.813,4.178,20.376,20.376,0,0,0-1.007,6.66v.572a20.774,20.774,0,0,0,.994,6.783,8.436,8.436,0,0,0,2.826,4.21l-.832,2.157a8.2,8.2,0,0,1-3.307-2.657,14.022,14.022,0,0,1-2.333-4.607,19.954,19.954,0,0,1-.845-5.692Zm12.956,5.224a10.949,10.949,0,0,1-.8,1.137,4.848,4.848,0,0,1-.825.812,3.09,3.09,0,0,1-.9.481,3.247,3.247,0,0,1-1.02.156,3.986,3.986,0,0,1-.552-.032,3.873,3.873,0,0,1-.383-.071,1.82,1.82,0,0,1-.312-.117V28.787a.979.979,0,0,0,.234.117,1.326,1.326,0,0,0,.286.084,2.082,2.082,0,0,0,.39.032,1.309,1.309,0,0,0,.552-.11,1.778,1.778,0,0,0,.487-.351,4.428,4.428,0,0,0,.52-.63q.273-.39.637-.936l3.716-5.588-5.744-9.265h2.677l3.807,6.549a13.138,13.138,0,0,1,.663,1.3h.052a14.347,14.347,0,0,1,.728-1.351l2.456-4.015a12.491,12.491,0,0,1,.786-1.137,4.543,4.543,0,0,1,.8-.806,3.173,3.173,0,0,1,.877-.481,3.013,3.013,0,0,1,1.007-.162,3.358,3.358,0,0,1,.546.039q.234.039.39.078a3.272,3.272,0,0,1,.312.1v1.884a.979.979,0,0,0-.234-.117q-.117-.039-.286-.078a1.745,1.745,0,0,0-.39-.039,1.354,1.354,0,0,0-.559.11,1.739,1.739,0,0,0-.494.351,4.921,4.921,0,0,0-.526.624q-.279.383-.63.942L46.769,21.38l5.939,9.4H50.043l-4.288-7.134a6.4,6.4,0,0,1-.429-.923h-.052c-.078.225-.442.9-.442.9Zm35.28-4h-7.81V20.926h7.81Zm22.455-7.589L98.331,24.98l-.052.949q0,1.65,1.481,1.689a3.024,3.024,0,0,0,2.521-1.17l1.728-9.733h4.262l-2.43,14.06H102l.078-.7a4.515,4.515,0,0,1-2.755.988,4.084,4.084,0,0,1-1.91-.481l-1.092,5.6H92.029l3.379-19.466Zm17.8,6.731a18.529,18.529,0,0,1-.9,5.8,14.8,14.8,0,0,1-2.475,4.711,8.241,8.241,0,0,1-3.411,2.67l-.832-2.157a8.556,8.556,0,0,0,2.794-4.158,20.073,20.073,0,0,0,1.027-6.458v-.793a20.774,20.774,0,0,0-.994-6.783,8.436,8.436,0,0,0-2.826-4.21l.832-2.157a8.392,8.392,0,0,1,3.385,2.644,14.615,14.615,0,0,1,2.469,4.639,18.373,18.373,0,0,1,.929,5.685Z" transform="translate(117.632 17.289)" fill="#12263f"/>
      <path id="Trazado_801528" data-name="Trazado 801528" d="M1.592-1.7H-4.02l.2-1.319L-.87-5.754l.4-.4A2.348,2.348,0,0,0,.4-7.96a.65.65,0,0,0-.682-.677.9.9,0,0,0-.742.355,1.819,1.819,0,0,0-.378.958l-1.859.011a2.839,2.839,0,0,1,.472-1.424,2.94,2.94,0,0,1,1.14-1.009A3.249,3.249,0,0,1-.125-10.1a2.689,2.689,0,0,1,1.876.657,2.02,2.02,0,0,1,.58,1.714,2.8,2.8,0,0,1-.418,1.239A6.388,6.388,0,0,1,.847-5.226l-.864.8L-1.3-3.19l3.127.011Z" transform="translate(236.294 29.806)" fill="#12263f"/>
      <path id="Trazado_801524" data-name="Trazado 801524" d="M0-2.76H-2.943l1.68-9.666H1.684ZM-1-14.865a1.363,1.363,0,0,1,.46-1.09,1.652,1.652,0,0,1,1.157-.438A1.706,1.706,0,0,1,1.76-16a1.34,1.34,0,0,1,.478,1.027,1.366,1.366,0,0,1-.456,1.094,1.657,1.657,0,0,1-1.161.433,1.727,1.727,0,0,1-1.139-.389A1.324,1.324,0,0,1-1-14.865Z" transform="translate(175.403 57.062)" fill="#12263f"/>
      <path id="Trazado_801522" data-name="Trazado 801522" d="M0,0H158.014" transform="translate(91.742 90.271)" fill="none" stroke="#12263f" stroke-linecap="round" stroke-width="3"/>
      <path id="Trazado_801520" data-name="Trazado 801520" d="M21.2,0h7.065L7.065,58.289H0Z" transform="translate(81.353)" fill="#12263f"/>
    </g>
  </g>
</svg>
