<svg xmlns="http://www.w3.org/2000/svg" width="279.853" height="93.199" viewBox="0 0 279.853 93.199">
  <g id="Grupo_1065530" data-name="Grupo 1065530" transform="translate(-539.797 -3300.529)">
    <path id="Trazado_801531" data-name="Trazado 801531" d="M8.906,29.7-1.587,43.475H16.771v2.241h-21.7V43.734L6.148,29.351-4.927,16.326V14.344H15.608v2.241h-17l10.3,12.335Z" transform="translate(603.765 3303.517)" fill="#12263f"/>
    <path id="Trazado_801532" data-name="Trazado 801532" d="M6.2,13l-.276,1.459a4.745,4.745,0,0,1,3.689-1.678A3.006,3.006,0,0,1,12.2,14.028a4.977,4.977,0,0,1,.621,3.384l-1.345,8.033H8.755l1.356-8.067a4.128,4.128,0,0,0,.011-.919,1.465,1.465,0,0,0-1.632-1.4,3.31,3.31,0,0,0-2.724,1.528l-1.551,8.86H1.492L3.641,13.011Z" transform="translate(602.067 3287.75)" fill="#12263f"/>
    <path id="Trazado_801533" data-name="Trazado 801533" d="M6.2,13l-.276,1.459a4.745,4.745,0,0,1,3.689-1.678A3.006,3.006,0,0,1,12.2,14.028a4.977,4.977,0,0,1,.621,3.384l-1.345,8.033H8.755l1.356-8.067a4.128,4.128,0,0,0,.011-.919,1.465,1.465,0,0,0-1.632-1.4,3.31,3.31,0,0,0-2.724,1.528l-1.551,8.86H1.492L3.641,13.011Z" transform="translate(689.22 3368.284)" fill="#12263f"/>
    <path id="Trazado_801534" data-name="Trazado 801534" d="M-18.6-4.336h-2.607l1.485-8.548h2.607Zm-.893-10.705a1.205,1.205,0,0,1,.407-.964,1.461,1.461,0,0,1,1.023-.387,1.508,1.508,0,0,1,1.015.348,1.185,1.185,0,0,1,.423.909,1.208,1.208,0,0,1-.4.968,1.465,1.465,0,0,1-1.027.383,1.527,1.527,0,0,1-1.007-.344A1.171,1.171,0,0,1-19.491-15.042Zm14.964,5h-7.316v-2.054h7.316Zm0,3.468h-7.316V-8.626h7.316ZM7.253-4.336H4.582v-8.5l-2.623.766v-2.023L7.008-15.84h.245Z" transform="translate(615.425 3370.117)" fill="#12263f"/>
    <path id="Trazado_801535" data-name="Trazado 801535" d="M-16.815-13.927l-2.747.023.46.7a4.748,4.748,0,0,1,.793,2.827A6.85,6.85,0,0,1-20.3-5.865a5.857,5.857,0,0,1-4.338,1.626,4.835,4.835,0,0,1-3.769-1.62A5.763,5.763,0,0,1-29.7-10.008l.034-.529.034-.253a6.889,6.889,0,0,1,2.132-4.43,6.7,6.7,0,0,1,4.614-1.718l.011.034v-.023l6.6.011Zm-9.1,4.1q-.161,2.579,1.54,2.625a1.834,1.834,0,0,0,1.724-1.065,7.785,7.785,0,0,0,.724-3.355l.011-.5q-.057-1.75-1.322-1.83a2.177,2.177,0,0,0-2.069,1.3A6.621,6.621,0,0,0-25.917-9.829Zm38.6-2.949H2.043v-2.988H12.684Zm0,5.045H2.043V-10.72H12.684Z" transform="translate(569.5 3384.235)" fill="#12263f"/>
    <path id="Trazado_801536" data-name="Trazado 801536" d="M2.873,12.156a4.538,4.538,0,0,1-.331.471,2.009,2.009,0,0,1-.342.337,1.281,1.281,0,0,1-.374.2,1.346,1.346,0,0,1-.423.065,1.652,1.652,0,0,1-.229-.013,1.606,1.606,0,0,1-.159-.03.754.754,0,0,1-.129-.048v-.781a.406.406,0,0,0,.1.048.55.55,0,0,0,.119.035.863.863,0,0,0,.162.013.543.543,0,0,0,.229-.046.737.737,0,0,0,.2-.145A1.836,1.836,0,0,0,1.908,12q.113-.162.264-.388L3.713,9.3,1.332,5.454h1.11L4.02,8.169a5.446,5.446,0,0,1,.275.539h.022a5.948,5.948,0,0,1,.3-.56L5.636,6.483a5.178,5.178,0,0,1,.326-.471,1.883,1.883,0,0,1,.331-.334,1.315,1.315,0,0,1,.364-.2,1.249,1.249,0,0,1,.417-.067,1.392,1.392,0,0,1,.226.016q.1.016.162.032a1.356,1.356,0,0,1,.129.043v.781a.406.406,0,0,0-.1-.048q-.048-.016-.119-.032a.723.723,0,0,0-.162-.016.561.561,0,0,0-.232.046.721.721,0,0,0-.2.145,2.04,2.04,0,0,0-.218.259q-.116.159-.261.391L4.871,9.284l2.462,3.895h-1.1L4.451,10.222a2.652,2.652,0,0,1-.178-.382H4.252a2.286,2.286,0,0,1-.183.372Zm8.366-2.887L13.9,5.336h1.207l-3.518,4.972-.5,2.871H10.086l.517-2.984L8.852,5.336h1.1Z" transform="translate(552.951 3370.805)" fill="#12263f"/>
    <path id="Trazado_801537" data-name="Trazado 801537" d="M0,0H223.583" transform="translate(592.532 3373.319)" fill="none" stroke="#12263f" stroke-linecap="round" stroke-width="3"/>
    <path id="Trazado_801539" data-name="Trazado 801539" d="M4.047,21.559a17.562,17.562,0,0,1,.747-5.217,12.591,12.591,0,0,1,2.063-4.091A7.326,7.326,0,0,1,9.781,9.906l.735,1.908a7.492,7.492,0,0,0-2.488,3.695,18.02,18.02,0,0,0-.891,5.89V21.9a18.371,18.371,0,0,0,.879,6,7.46,7.46,0,0,0,2.5,3.723l-.735,1.908a7.253,7.253,0,0,1-2.925-2.35,12.4,12.4,0,0,1-2.063-4.074,17.646,17.646,0,0,1-.747-5.033ZM15.5,26.179a9.682,9.682,0,0,1-.707,1.006,4.287,4.287,0,0,1-.73.718,2.733,2.733,0,0,1-.8.425,2.871,2.871,0,0,1-.9.138,3.525,3.525,0,0,1-.488-.029,3.426,3.426,0,0,1-.339-.063,1.609,1.609,0,0,1-.276-.1V26.6a.866.866,0,0,0,.207.1,1.173,1.173,0,0,0,.253.075,1.841,1.841,0,0,0,.345.029,1.158,1.158,0,0,0,.488-.1,1.572,1.572,0,0,0,.431-.31,3.916,3.916,0,0,0,.46-.557q.241-.345.563-.827L17.3,20.076l-5.079-8.194h2.367l3.367,5.792a11.617,11.617,0,0,1,.586,1.149h.046a12.689,12.689,0,0,1,.644-1.2L21.4,14.078a11.046,11.046,0,0,1,.7-1.006,4.017,4.017,0,0,1,.707-.712,2.806,2.806,0,0,1,.776-.425,2.664,2.664,0,0,1,.891-.144,2.97,2.97,0,0,1,.483.034q.207.034.345.069a2.894,2.894,0,0,1,.276.092v1.666a.866.866,0,0,0-.207-.1q-.1-.034-.253-.069a1.543,1.543,0,0,0-.345-.034,1.2,1.2,0,0,0-.494.1,1.538,1.538,0,0,0-.437.31,4.352,4.352,0,0,0-.465.552q-.247.339-.557.833l-3.045,4.815,5.252,8.309H22.663l-3.792-6.309a5.657,5.657,0,0,1-.379-.816h-.046a4.877,4.877,0,0,1-.391.793Zm31.2-3.539H39.8V19.651H46.7Zm19.858-6.711-1.2,7.309-.046.839q0,1.459,1.31,1.494a2.674,2.674,0,0,0,2.229-1.034l1.528-8.607h3.769L72.009,28.362h-3.4l.069-.621a3.993,3.993,0,0,1-2.436.873,3.611,3.611,0,0,1-1.689-.425l-.965,4.953H59.793l2.988-17.215Zm21.547,5.953a16.386,16.386,0,0,1-.793,5.125,13.086,13.086,0,0,1-2.189,4.166,7.288,7.288,0,0,1-3.017,2.362l-.735-1.908a7.567,7.567,0,0,0,2.471-3.677,17.752,17.752,0,0,0,.908-5.711v-.7a18.371,18.371,0,0,0-.879-6,7.46,7.46,0,0,0-2.5-3.723l.735-1.908A7.422,7.422,0,0,1,85.1,12.245a12.925,12.925,0,0,1,2.183,4.1,16.248,16.248,0,0,1,.822,5.028Z" transform="translate(632.648 3310.758)" fill="#12263f"/>
    <path id="Trazado_801543" data-name="Trazado 801543" d="M-.336-4.336H-2.943l1.485-8.548H1.149Zm-.893-10.705a1.205,1.205,0,0,1,.407-.964A1.461,1.461,0,0,1,.2-16.393a1.508,1.508,0,0,1,1.015.348,1.185,1.185,0,0,1,.423.909,1.208,1.208,0,0,1-.4.968,1.465,1.465,0,0,1-1.027.383A1.527,1.527,0,0,1-.8-14.129,1.171,1.171,0,0,1-1.229-15.042Z" transform="translate(662.445 3350.443)" fill="#12263f"/>
    <path id="Trazado_801540" data-name="Trazado 801540" d="M-2.572-3.817a4.538,4.538,0,0,1-.331.471,2.009,2.009,0,0,1-.342.337,1.281,1.281,0,0,1-.374.2,1.346,1.346,0,0,1-.423.065,1.652,1.652,0,0,1-.229-.013,1.606,1.606,0,0,1-.159-.03.754.754,0,0,1-.129-.048v-.781a.406.406,0,0,0,.1.048.55.55,0,0,0,.119.035.863.863,0,0,0,.162.013.543.543,0,0,0,.229-.046.737.737,0,0,0,.2-.145,1.835,1.835,0,0,0,.215-.261q.113-.162.264-.388l1.541-2.316-2.381-3.841H-3L-1.424-7.8a5.446,5.446,0,0,1,.275.539h.022a5.948,5.948,0,0,1,.3-.56L.192-9.49a5.178,5.178,0,0,1,.326-.471,1.883,1.883,0,0,1,.331-.334,1.315,1.315,0,0,1,.364-.2,1.249,1.249,0,0,1,.417-.067,1.392,1.392,0,0,1,.226.016q.1.016.162.032a1.356,1.356,0,0,1,.129.043v.781a.406.406,0,0,0-.1-.048Q2-9.754,1.932-9.77a.723.723,0,0,0-.162-.016.561.561,0,0,0-.232.046.721.721,0,0,0-.2.145,2.04,2.04,0,0,0-.218.259Q1-9.177.854-8.945L-.573-6.688,1.889-2.794H.784L-.993-5.751a2.652,2.652,0,0,1-.178-.382h-.022a2.286,2.286,0,0,1-.183.372Z" transform="translate(709.575 3349.085)" fill="#12263f"/>
    <path id="Trazado_801538" data-name="Trazado 801538" d="M5.086,16.559a17.562,17.562,0,0,1,.747-5.217A12.591,12.591,0,0,1,7.9,7.251,7.326,7.326,0,0,1,10.82,4.906l.735,1.908a7.492,7.492,0,0,0-2.488,3.695,18.02,18.02,0,0,0-.891,5.89V16.9a18.371,18.371,0,0,0,.879,6,7.46,7.46,0,0,0,2.5,3.723l-.735,1.908A7.253,7.253,0,0,1,7.9,26.183a12.4,12.4,0,0,1-2.063-4.074,17.646,17.646,0,0,1-.747-5.033Zm13.951-1.54L24.725,6.63H27.3L19.8,17.237l-1.069,6.125H16.578L17.681,17,13.946,6.63H16.29Zm27.178,2.62H39.308V14.651h6.907Zm19.858-6.711-1.2,7.309-.046.839q0,1.459,1.31,1.494a2.674,2.674,0,0,0,2.229-1.034L69.9,10.928h3.769L71.52,23.362h-3.4l.069-.621a3.993,3.993,0,0,1-2.436.873,3.611,3.611,0,0,1-1.689-.425L63.1,28.143H59.3l2.988-17.215ZM87.62,16.881a16.386,16.386,0,0,1-.793,5.125,13.086,13.086,0,0,1-2.189,4.166,7.288,7.288,0,0,1-3.017,2.362l-.735-1.908a7.567,7.567,0,0,0,2.471-3.677,17.752,17.752,0,0,0,.908-5.711v-.7a18.371,18.371,0,0,0-.879-6,7.46,7.46,0,0,0-2.5-3.723l.735-1.908a7.422,7.422,0,0,1,2.994,2.339,12.925,12.925,0,0,1,2.183,4.1,16.248,16.248,0,0,1,.822,5.028Z" transform="translate(732.03 3315.758)" fill="#12263f"/>
    <path id="Trazado_801541" data-name="Trazado 801541" d="M-.336-4.336H-2.943l1.485-8.548H1.149Zm-.893-10.705a1.205,1.205,0,0,1,.407-.964A1.461,1.461,0,0,1,.2-16.393a1.508,1.508,0,0,1,1.015.348,1.185,1.185,0,0,1,.423.909,1.208,1.208,0,0,1-.4.968,1.465,1.465,0,0,1-1.027.383A1.527,1.527,0,0,1-.8-14.129,1.171,1.171,0,0,1-1.229-15.042Z" transform="translate(762.102 3354.121)" fill="#12263f"/>
    <path id="Trazado_801542" data-name="Trazado 801542" d="M-1.4-3.567.676-7.925H1.753l-3.458,6.8A2.093,2.093,0,0,1-3.558.274a3.175,3.175,0,0,1-.587-.1l.086-.808.253.027a1.278,1.278,0,0,0,.8-.207,1.911,1.911,0,0,0,.6-.741l.35-.668-1.007-5.7H-2.05Z" transform="translate(809.122 3349.858)" fill="#12263f"/>
  </g>
</svg>
