<svg xmlns="http://www.w3.org/2000/svg" width="190" height="90" viewBox="0 0 190 90">
  <g id="Grupo_1063897" data-name="Grupo 1063897" transform="translate(-180 -446)">
    <path id="Rectángulo_373435" data-name="Rectángulo 373435" d="M5,0H140a50,50,0,0,1,50,50V85a5,5,0,0,1-5,5H5a5,5,0,0,1-5-5V5A5,5,0,0,1,5,0Z" transform="translate(180 446)" fill="#f7cd00"/>
    <path id="Rectángulo_374157" data-name="Rectángulo 374157" d="M5,0h5a0,0,0,0,1,0,0V90a0,0,0,0,1,0,0H5a5,5,0,0,1-5-5V5A5,5,0,0,1,5,0Z" transform="translate(180 446)" fill="#2981b7"/>
    <g id="FILLED_OUTLINE" data-name="FILLED OUTLINE" transform="translate(229.953 445.476)">
      <path id="Trazado_802426" data-name="Trazado 802426" d="M49.072,102.173,46.361,92.064a1.971,1.971,0,0,0-1.446-1.407l-10.9-2.6a1.971,1.971,0,0,0-1.814.486l-8.137,7.71a1.971,1.971,0,0,0-.548,1.942L26.223,108.3a1.971,1.971,0,0,0,1.446,1.407l10.9,2.6a1.971,1.971,0,0,0,1.814-.486l8.137-7.71a1.971,1.971,0,0,0,.548-1.942Z" transform="translate(-7.016 -63.172)" fill="#57b584"/>
      <path id="Trazado_802427" data-name="Trazado 802427" d="M139.733,124.352l-2.711-10.108a1.969,1.969,0,0,0-.579-.948l-8.711,8.323a1.969,1.969,0,0,1-.885.485l3.322,12.38a1.969,1.969,0,0,0,.88-.481l8.137-7.71a1.971,1.971,0,0,0,.548-1.942Z" transform="translate(-97.677 -85.351)" fill="#4aa071"/>
      <path id="Trazado_802428" data-name="Trazado 802428" d="M45.553,90.658l-10.9-2.6a1.971,1.971,0,0,0-1.814.486L24.7,96.25a1.969,1.969,0,0,0-.526.847l11.712,2.831a1.971,1.971,0,0,0,1.824-.489l8.711-8.323A1.968,1.968,0,0,0,45.553,90.658Z" transform="translate(-7.654 -63.172)" fill="#5dc691"/>
      <path id="Trazado_802429" data-name="Trazado 802429" d="M282.061,34.133l-8.024-9.473a1.971,1.971,0,0,0-1.8-.675l-12.276,1.849a1.971,1.971,0,0,0-1.552,1.256L254.2,38.3a1.971,1.971,0,0,0,.341,1.967l8.024,9.473a1.971,1.971,0,0,0,1.8.675l12.276-1.849a1.971,1.971,0,0,0,1.552-1.256L282.4,36.1a1.971,1.971,0,0,0-.341-1.967Z" transform="translate(-209.23 -7.025)" fill="#1f3f66"/>
      <path id="Trazado_802430" data-name="Trazado 802430" d="M267.677,51.488l-8.48-10.01a1.97,1.97,0,0,0-.787.969L254.2,53.659a1.971,1.971,0,0,0,.341,1.967l8.024,9.473a1.97,1.97,0,0,0,.837.58l5.1-13.613a1.97,1.97,0,0,1-.83-.578Z" transform="translate(-209.23 -22.382)" fill="#234575"/>
      <path id="Trazado_802431" data-name="Trazado 802431" d="M318.521,34.133,310.5,24.66a1.971,1.971,0,0,0-1.8-.675l-12.276,1.849a1.968,1.968,0,0,0-.765.288l8.48,10.01a1.971,1.971,0,0,0,1.8.675l12.973-1.953a1.968,1.968,0,0,0-.387-.72Z" transform="translate(-245.69 -7.025)" fill="#27498c"/>
      <rect id="Rectángulo_374277" data-name="Rectángulo 374277" width="10.842" height="16.756" rx="5.421" transform="translate(62.824 57.355)" fill="#234575"/>
      <path id="Trazado_802432" data-name="Trazado 802432" d="M432,352h1.971v8.871H432Z" transform="translate(-365.234 -294.645)" fill="#1c3b54"/>
      <path id="Trazado_802433" data-name="Trazado 802433" d="M432,440h1.971v2.957H432Z" transform="translate(-365.234 -371.803)" fill="#1c3b54"/>
      <path id="Trazado_802434" data-name="Trazado 802434" d="M16,392h1.971v6.9H16Z" transform="translate(-0.489 -329.717)" fill="#e5e1dc"/>
      <path id="Trazado_802435" data-name="Trazado 802435" d="M48,432h1.971v4.928H48Z" transform="translate(-28.546 -364.788)" fill="#e5e1dc"/>
      <path id="Trazado_802436" data-name="Trazado 802436" d="M80,464h1.971v3.943H80Z" transform="translate(-56.603 -392.846)" fill="#e5e1dc"/>
      <path id="Trazado_802437" data-name="Trazado 802437" d="M174.314,317.986a3.943,3.943,0,0,0-4.22-1.951l-2.108.37a3.935,3.935,0,0,1,1.383,1.368l4.174,6.957,4.134-.689Z" transform="translate(-133.749 -263.043)" fill="#b59191"/>
      <path id="Trazado_802438" data-name="Trazado 802438" d="M128.772,317.06a3.943,3.943,0,0,0-4.029-1.861l-3.058.51a3.936,3.936,0,0,1,1.27,1.159l5.512,7.9,4.48-.747Z" transform="translate(-93.152 -262.331)" fill="#c69e9e"/>
      <path id="Trazado_802439" data-name="Trazado 802439" d="M82.389,323.974a3.943,3.943,0,0,0,3.8,1.523l2.654-.442-.09-.149-5.422-7.746a3.943,3.943,0,0,0-4-1.605l-2.834.567c.013.016.027.031.04.048Z" transform="translate(-53.531 -262.622)" fill="#e2b5b3"/>
      <path id="Trazado_802440" data-name="Trazado 802440" d="M79.223,291.828l-7.885-2.957-3.049-6.86a3.387,3.387,0,0,0-6.308,2.446l2.457,7.37L49.06,294.391a3.943,3.943,0,0,1-3.8-1.523l-5.854-7.8a2.923,2.923,0,0,0-4.734,3.428c2.14,3.08,5.574,8.037,6.715,9.685a1.971,1.971,0,0,0,1.023.756L63.04,305.5a1.971,1.971,0,0,0,.842.078l15.341-1.918Z" transform="translate(-16.4 -231.516)" fill="#f2c1bd"/>
      <path id="Trazado_802441" data-name="Trazado 802441" d="M0,0H1.971V1.971H0Z" transform="matrix(0.352, -0.936, 0.936, 0.352, 61.36, 21.341)" fill="#336baf"/>
      <path id="Trazado_802442" data-name="Trazado 802442" d="M0,0H1.971V1.971H0Z" transform="matrix(0.352, -0.936, 0.936, 0.352, 59.277, 26.878)" fill="#336baf"/>
      <path id="Trazado_802443" data-name="Trazado 802443" d="M0,0H1.971V1.971H0Z" transform="matrix(0.352, -0.936, 0.936, 0.352, 50.388, 30.912)" fill="#2b6299"/>
      <path id="Trazado_802444" data-name="Trazado 802444" d="M0,0H1.971V1.971H0Z" transform="matrix(0.352, -0.936, 0.936, 0.352, 58.809, 39.344)" fill="#205682"/>
      <path id="Trazado_802445" data-name="Trazado 802445" d="M0,0H1.971V1.971H0Z" transform="matrix(0.352, -0.936, 0.936, 0.352, 62.043, 36.346)" fill="#205682"/>
      <path id="Trazado_802446" data-name="Trazado 802446" d="M0,0H1.971V1.971H0Z" transform="matrix(0.352, -0.936, 0.936, 0.352, 66.197, 33.692)" fill="#205682"/>
      <path id="Trazado_802447" data-name="Trazado 802447" d="M0,0H1.971V1.971H0Z" transform="translate(26.027 28.699) rotate(-15.009)" fill="#66d9a3"/>
      <path id="Trazado_802448" data-name="Trazado 802448" d="M0,0H1.971V1.971H0Z" transform="translate(27.048 32.508) rotate(-15.009)" fill="#66d9a3"/>
      <path id="Trazado_802449" data-name="Trazado 802449" d="M0,0H1.971V1.971H0Z" transform="matrix(0.352, -0.936, 0.936, 0.352, 56.625, 22.722)" fill="#336baf"/>
      <path id="Trazado_802450" data-name="Trazado 802450" d="M0,0H1.971V1.971H0Z" transform="matrix(0.352, -0.936, 0.936, 0.352, 64.009, 25.497)" fill="#336baf"/>
      <path id="Trazado_802451" data-name="Trazado 802451" d="M0,0H1.971V1.971H0Z" transform="matrix(0.352, -0.936, 0.936, 0.352, 60.317, 24.109)" fill="#336baf"/>
      <g id="Grupo_1065979" data-name="Grupo 1065979" transform="translate(23.123 33.763)">
        <path id="Trazado_802452" data-name="Trazado 802452" d="M0,0H1.971V1.971H0Z" transform="translate(0 6.941) rotate(-15.009)" fill="#5dc691"/>
        <path id="Trazado_802453" data-name="Trazado 802453" d="M0,0H1.971V1.971H0Z" transform="translate(9.521 4.389) rotate(-15.009)" fill="#5dc691"/>
        <path id="Trazado_802454" data-name="Trazado 802454" d="M0,0H1.971V1.971H0Z" transform="translate(12.564 0.511) rotate(-15.009)" fill="#5dc691"/>
        <path id="Trazado_802455" data-name="Trazado 802455" d="M0,0H1.971V1.971H0Z" transform="translate(10.542 8.198) rotate(-15.009)" fill="#5dc691"/>
        <path id="Trazado_802456" data-name="Trazado 802456" d="M0,0H1.971V1.971H0Z" transform="translate(13.585 4.319) rotate(-15.009)" fill="#5dc691"/>
      </g>
      <path id="Trazado_802457" data-name="Trazado 802457" d="M81.078,280.871h-6.9a2.961,2.961,0,0,0-2.926,2.532l-6.2-2.324L62.173,274.6a4.372,4.372,0,0,0-8.144,3.159l2.092,6.276-2.286.381-3.026-5.447a4.912,4.912,0,0,0-5.275-2.439l-1.675.335a4.918,4.918,0,0,0-3.048-.464l-2.734.456a4.923,4.923,0,0,0-3.089-.386l-2.292.458a3.909,3.909,0,0,0-5.852,5.113c2.158,3.1,5.685,8.2,6.714,9.683a2.971,2.971,0,0,0,1.535,1.135l20.632,6.565a2.976,2.976,0,0,0,.9.139,2.932,2.932,0,0,0,.364-.023l14.442-1.805a2.961,2.961,0,0,0,2.748,1.867h6.9a2.96,2.96,0,0,0,2.957-2.957V283.828A2.96,2.96,0,0,0,81.078,280.871Zm-35.156-2.412a2.947,2.947,0,0,1,3.165,1.463l2.685,4.833-2.094.349-3.829-6.382c-.045-.075-.093-.149-.141-.221Zm-4.785-.117a2.94,2.94,0,0,1,3.022,1.4l3.43,5.716-2.426.4-5.132-7.331Zm-5.761.058a2.957,2.957,0,0,1,3,1.2l4.629,6.613-1.125.188a2.946,2.946,0,0,1-2.852-1.142l-4.952-6.6Zm35.846,17.371-14.478,1.81a.978.978,0,0,1-.421-.039l-20.632-6.565a.989.989,0,0,1-.511-.378c-1.03-1.487-4.557-6.58-6.716-9.686A1.937,1.937,0,1,1,31.6,278.64l5.853,7.805a4.911,4.911,0,0,0,4.753,1.9l6.472-1.079.013.022.056-.033,8.208-1.368,3.589,5.384,1.64-1.093-3.869-5.8L55.9,277.132a2.4,2.4,0,0,1,4.472-1.735l3.217,7.237,7.633,2.862Zm10.842.87a.987.987,0,0,1-.986.986h-6.9a.987.987,0,0,1-.986-.986V283.828a.987.987,0,0,1,.986-.986H76.15v7.885h1.971v-7.885h2.957a.987.987,0,0,1,.986.986Z" transform="translate(-9.383 -224.502)"/>
      <path id="Trazado_802458" data-name="Trazado 802458" d="M432,440h1.971v2.957H432Z" transform="translate(-365.234 -371.803)"/>
      <path id="Trazado_802459" data-name="Trazado 802459" d="M16,392h1.971v6.9H16Z" transform="translate(-0.489 -329.717)"/>
      <path id="Trazado_802460" data-name="Trazado 802460" d="M48,432h1.971v4.928H48Z" transform="translate(-28.546 -364.788)"/>
      <path id="Trazado_802461" data-name="Trazado 802461" d="M80,464h1.971v3.943H80Z" transform="translate(-56.603 -392.846)"/>
      <path id="Trazado_802462" data-name="Trazado 802462" d="M254.8,43.354A2.936,2.936,0,0,0,257.05,44.4a3.018,3.018,0,0,0,.448-.034l12.276-1.849a2.959,2.959,0,0,0,2.328-1.884l4.211-11.212a2.959,2.959,0,0,0-.512-2.951L267.777,17a2.94,2.94,0,0,0-2.7-1.013L252.8,17.834a2.959,2.959,0,0,0-2.328,1.884L246.266,30.93a2.959,2.959,0,0,0,.512,2.951Zm15.455-3.413a.986.986,0,0,1-.776.628l-11.7,1.762,4.335-11.542h.049a3.022,3.022,0,0,0,.448-.034l11.761-1.771Zm-4.883-22.006a.994.994,0,0,1,.149-.011.979.979,0,0,1,.75.349l7.467,8.815-11.423,1.72a.978.978,0,0,1-.9-.338l-7.467-8.815ZM248.111,31.623l4.115-10.955,7.688,9.076a3.008,3.008,0,0,0,.353.353l-4.335,11.542-7.65-9.031a.987.987,0,0,1-.171-.984Z" transform="translate(-202.218 0)"/>
      <path id="Trazado_802463" data-name="Trazado 802463" d="M0,0H1.971V1.971H0Z" transform="matrix(0.352, -0.936, 0.936, 0.352, 61.36, 21.341)"/>
      <path id="Trazado_802464" data-name="Trazado 802464" d="M0,0H1.971V1.971H0Z" transform="matrix(0.352, -0.936, 0.936, 0.352, 59.277, 26.878)"/>
      <path id="Trazado_802465" data-name="Trazado 802465" d="M0,0H1.971V1.971H0Z" transform="matrix(0.352, -0.936, 0.936, 0.352, 50.388, 30.912)"/>
      <path id="Trazado_802466" data-name="Trazado 802466" d="M0,0H1.971V1.971H0Z" transform="matrix(0.352, -0.936, 0.936, 0.352, 58.809, 39.344)"/>
      <path id="Trazado_802467" data-name="Trazado 802467" d="M0,0H1.971V1.971H0Z" transform="matrix(0.352, -0.936, 0.936, 0.352, 62.043, 36.346)"/>
      <path id="Trazado_802468" data-name="Trazado 802468" d="M0,0H1.971V1.971H0Z" transform="matrix(0.352, -0.936, 0.936, 0.352, 66.197, 33.692)"/>
      <path id="Trazado_802469" data-name="Trazado 802469" d="M18.255,101.533a2.954,2.954,0,0,0,2.169,2.11l10.9,2.6a2.95,2.95,0,0,0,2.721-.73l8.137-7.71a2.954,2.954,0,0,0,.823-2.912L40.3,84.787a2.954,2.954,0,0,0-2.169-2.11l-10.9-2.6a2.947,2.947,0,0,0-2.721.73l-8.138,7.71a2.954,2.954,0,0,0-.822,2.913Zm20.252-15.81,2.6,9.683a.985.985,0,0,1-.274.971l-7.711,7.306L30.367,93.426a2.977,2.977,0,0,0,.367-.294ZM25.86,82.234a.983.983,0,0,1,.907-.243L37,84.435,29.374,91.7a.981.981,0,0,1-.912.244L18.221,89.471ZM28,93.865a2.987,2.987,0,0,0,.465.073l2.75,10.256-10.332-2.468a.985.985,0,0,1-.723-.7l-2.6-9.683Z" transform="translate(0 -56.15)"/>
      <path id="Trazado_802470" data-name="Trazado 802470" d="M0,0H1.971V1.971H0Z" transform="translate(26.027 28.699) rotate(-15.009)"/>
      <path id="Trazado_802471" data-name="Trazado 802471" d="M0,0H1.971V1.971H0Z" transform="translate(27.048 32.508) rotate(-15.009)"/>
      <path id="Trazado_802472" data-name="Trazado 802472" d="M0,0H1.971V1.971H0Z" transform="matrix(0.352, -0.936, 0.936, 0.352, 56.625, 22.722)"/>
      <path id="Trazado_802473" data-name="Trazado 802473" d="M0,0H1.971V1.971H0Z" transform="matrix(0.352, -0.936, 0.936, 0.352, 64.009, 25.497)"/>
      <path id="Trazado_802474" data-name="Trazado 802474" d="M0,0H1.971V1.971H0Z" transform="matrix(0.352, -0.936, 0.936, 0.352, 60.317, 24.109)"/>
      <path id="Trazado_802475" data-name="Trazado 802475" d="M0,0H1.971V1.971H0Z" transform="translate(23.123 40.704) rotate(-15.009)"/>
      <path id="Trazado_802476" data-name="Trazado 802476" d="M0,0H1.971V1.971H0Z" transform="translate(32.644 38.152) rotate(-15.009)"/>
      <path id="Trazado_802477" data-name="Trazado 802477" d="M0,0H1.971V1.971H0Z" transform="translate(35.687 34.273) rotate(-15.009)"/>
      <path id="Trazado_802478" data-name="Trazado 802478" d="M0,0H1.971V1.971H0Z" transform="translate(33.665 41.96) rotate(-15.009)"/>
      <path id="Trazado_802479" data-name="Trazado 802479" d="M0,0H1.971V1.971H0Z" transform="translate(36.709 38.081) rotate(-15.009)"/>
    </g>
  </g>
</svg>
