<svg xmlns="http://www.w3.org/2000/svg" width="80" height="80" viewBox="0 0 80 80">
  <g id="Grupo_1066169" data-name="Grupo 1066169" transform="translate(-285 -1584)">
    <rect id="Rectángulo_374183" data-name="Rectángulo 374183" width="80" height="80" rx="5" transform="translate(285 1584)" fill="#f7cd00"/>
    <g id="pie-chart" transform="translate(295 1593.051)">
      <g id="Grupo_1066170" data-name="Grupo 1066170" transform="translate(0.883 1.332)">
        <path id="Trazado_802917" data-name="Trazado 802917" d="M59.467,48.389a20.221,20.221,0,1,0-20.22-20.221h20.22Z" transform="translate(-35.508 -7.948)" fill="#9dc6fb"/>
        <path id="Trazado_802918" data-name="Trazado 802918" d="M218.714,411.066h-5.849a1.793,1.793,0,0,0-1.793,1.793v9.157h9.435v-9.157A1.793,1.793,0,0,0,218.714,411.066Z" transform="translate(-187.099 -363.593)" fill="#9dc6fb"/>
        <path id="Trazado_802919" data-name="Trazado 802919" d="M215.852,411.071a1.792,1.792,0,0,0-1.792,1.792v9.157h-2.989v-9.157a1.792,1.792,0,0,1,1.792-1.792Z" transform="translate(-187.098 -363.598)" fill="#80b4fb"/>
        <path id="Trazado_802920" data-name="Trazado 802920" d="M325.369,215.1H319.52a1.793,1.793,0,0,0-1.793,1.793v32.235h9.435V216.89A1.793,1.793,0,0,0,325.369,215.1Z" transform="translate(-281.193 -190.702)" fill="#f6e266"/>
        <path id="Trazado_802921" data-name="Trazado 802921" d="M322.511,215.1a1.792,1.792,0,0,0-1.792,1.792v32.235h-2.988V216.892a1.792,1.792,0,0,1,1.792-1.792Z" transform="translate(-281.197 -190.705)" fill="#ffc250"/>
        <path id="Trazado_802922" data-name="Trazado 802922" d="M432.025,328.609h-5.849a1.793,1.793,0,0,0-1.793,1.793V349.27h9.435V330.4A1.793,1.793,0,0,0,432.025,328.609Z" transform="translate(-375.289 -290.847)" fill="#dd636e"/>
        <path id="Trazado_802923" data-name="Trazado 802923" d="M429.163,328.61a1.792,1.792,0,0,0-1.792,1.792v18.868h-2.989V330.4a1.793,1.793,0,0,1,1.794-1.792h2.988Z" transform="translate(-375.288 -290.848)" fill="#cb5769"/>
        <path id="Trazado_802924" data-name="Trazado 802924" d="M27.72,231.616V211.4H7.5A20.221,20.221,0,0,0,27.72,231.616Z" transform="translate(-7.5 -187.436)" fill="#dd636e"/>
      </g>
      <g id="Grupo_1066171" data-name="Grupo 1066171" transform="translate(0 0.449)">
        <path id="Trazado_802925" data-name="Trazado 802925" d="M212.1,403.566h-5.849a2.679,2.679,0,0,0-2.676,2.676V415.4a.883.883,0,0,0,.883.883h9.435a.883.883,0,0,0,.883-.883v-9.157A2.679,2.679,0,0,0,212.1,403.566Zm.909,10.95h-7.668v-8.274a.911.911,0,0,1,.91-.91H212.1a.911.911,0,0,1,.91.91v8.274Z" transform="translate(-179.598 -356.093)"/>
        <path id="Trazado_802926" data-name="Trazado 802926" d="M73.688,24.917a21.266,21.266,0,0,0,.268-3.365,20.984,20.984,0,0,0-3.8-12.072l1.442-2.57H83.541a.883.883,0,0,0,0-1.766H71.077a.883.883,0,0,0-.77.451L68.981,7.958A21.086,21.086,0,0,0,38.816,5.8a.883.883,0,1,0,1.176,1.318,19.324,19.324,0,0,1,28.061,2.5l-3.607,6.428a.883.883,0,1,0,1.54.865l3.2-5.7A19.221,19.221,0,0,1,72.19,21.552a19.485,19.485,0,0,1-.281,3.291H67.22a2.679,2.679,0,0,0-2.676,2.676v9.436a19.09,19.09,0,0,1-10.808,3.915V21.552a.883.883,0,0,0-.883-.883H33.536A19.1,19.1,0,0,1,37.7,9.546a.883.883,0,1,0-1.384-1.1,20.878,20.878,0,0,0-4.562,13.1.883.883,0,0,0,.883.883H51.97V41.773a.883.883,0,0,0,.883.883,20.857,20.857,0,0,0,11.692-3.531V59.755a.883.883,0,0,0,.883.883h9.434a.883.883,0,0,0,.883-.883V53.124a.883.883,0,0,0-1.766,0v5.748H66.311V27.519a.91.91,0,0,1,.909-.909H73.07a.91.91,0,0,1,.909.909V49.591a.883.883,0,1,0,1.766,0V27.519a2.68,2.68,0,0,0-2.057-2.6Z" transform="translate(-28.011 -0.449)"/>
        <path id="Trazado_802927" data-name="Trazado 802927" d="M425.407,321.109h-5.849a2.679,2.679,0,0,0-2.676,2.676v18.868a.883.883,0,0,0,.883.883H427.2a.883.883,0,0,0,.883-.883V323.785A2.679,2.679,0,0,0,425.407,321.109Zm.91,20.661h-7.668V323.785a.911.911,0,0,1,.91-.91h5.849a.911.911,0,0,1,.91.91V341.77Z" transform="translate(-367.788 -283.347)"/>
        <path id="Trazado_802928" data-name="Trazado 802928" d="M21.1,203.894H.883a.883.883,0,0,0-.883.883,21.14,21.14,0,0,0,14.03,19.884l-2.444,5.3h-9.5a.883.883,0,0,0,0,1.766H12.151a.883.883,0,0,0,.8-.513l2.779-6.026a21.06,21.06,0,0,0,5.371.694.883.883,0,0,0,.883-.883V204.777a.883.883,0,0,0-.883-.883Zm-.883,20.2a19.264,19.264,0,0,1-3.735-.539l1.076-2.334a.883.883,0,0,0-1.6-.74l-1.184,2.567A19.379,19.379,0,0,1,1.786,205.66H20.22Z" transform="translate(0 -179.936)"/>
        <path id="Trazado_802929" data-name="Trazado 802929" d="M11.078,394.72h7.338a.883.883,0,1,0,0-1.766H11.078a.883.883,0,1,0,0,1.766Z" transform="translate(-8.994 -346.731)"/>
        <path id="Trazado_802930" data-name="Trazado 802930" d="M391.029,12.214h8.7a.883.883,0,0,0,0-1.766h-8.7a.883.883,0,1,0,0,1.766Z" transform="translate(-344.201 -9.27)"/>
        <path id="Trazado_802931" data-name="Trazado 802931" d="M427.51,169.831a.883.883,0,0,0,.883.883h6.417a.883.883,0,0,0,0-1.766h-6.417A.883.883,0,0,0,427.51,169.831Z" transform="translate(-377.165 -149.105)"/>
        <path id="Trazado_802932" data-name="Trazado 802932" d="M434.81,201.271h-6.417a.883.883,0,0,0,0,1.766h6.417a.883.883,0,0,0,0-1.766Z" transform="translate(-377.165 -177.621)"/>
        <path id="Trazado_802933" data-name="Trazado 802933" d="M434.81,233.594h-6.417a.883.883,0,0,0,0,1.766h6.417a.883.883,0,0,0,0-1.766Z" transform="translate(-377.165 -206.138)"/>
      </g>
    </g>
  </g>
</svg>
