<svg xmlns="http://www.w3.org/2000/svg" width="65.609" height="72.411" viewBox="0 0 65.609 72.411">
  <g id="pdf" transform="translate(-24.049)">
    <g id="Grupo_1066175" data-name="Grupo 1066175" transform="translate(25.11 1.061)">
      <path id="Trazado_802951" data-name="Trazado 802951" d="M39.484,273.086H37.217a5.669,5.669,0,0,1-5.669-5.669,3.4,3.4,0,0,1,3.4-3.4h4.535Z" transform="translate(-31.548 -227.737)" fill="#bd4150"/>
      <path id="Trazado_802952" data-name="Trazado 802952" d="M135.666,18.174,125.657,8.165a2.267,2.267,0,0,0-1.6-.664H81.912a2.267,2.267,0,0,0-2.267,2.267V45.191l2.267,32.6h52.15a2.267,2.267,0,0,0,2.267-2.267V19.777A2.267,2.267,0,0,0,135.666,18.174Z" transform="translate(-72.843 -7.501)" fill="#eceaec"/>
      <path id="Trazado_802953" data-name="Trazado 802953" d="M404.746,19.777a2.267,2.267,0,0,0-.664-1.6L394.072,8.165a2.267,2.267,0,0,0-1.6-.664h-.194V18.838a1.134,1.134,0,0,0,1.134,1.134h11.337Z" transform="translate(-341.258 -7.501)" fill="#dad8db"/>
      <path id="Trazado_802954" data-name="Trazado 802954" d="M83.047,72.121V7.5H81.913a2.267,2.267,0,0,0-2.267,2.267V75.522a2.268,2.268,0,0,0,2.267,2.267h52.15a2.267,2.267,0,0,0,2.267-2.267V74.389H85.314A2.27,2.27,0,0,1,83.047,72.121Z" transform="translate(-72.844 -7.5)" fill="#dad8db"/>
      <path id="Trazado_802955" data-name="Trazado 802955" d="M70.095,291.466H34.95a3.4,3.4,0,0,1-3.4-3.4v20.407a3.4,3.4,0,0,0,3.4,3.4H70.095a2.267,2.267,0,0,0,2.267-2.267V293.733A2.267,2.267,0,0,0,70.095,291.466Z" transform="translate(-31.549 -248.385)" fill="#e15f78"/>
      <path id="Trazado_802956" data-name="Trazado 802956" d="M34.95,311.873H70.095a2.267,2.267,0,0,0,2.267-2.267v-1.134H37.217A2.27,2.27,0,0,1,34.95,306.2V291.466a3.4,3.4,0,0,1-3.4-3.4v20.407a3.4,3.4,0,0,0,3.4,3.4Z" transform="translate(-31.549 -248.385)" fill="#db4655"/>
    </g>
    <g id="Grupo_1066176" data-name="Grupo 1066176" transform="translate(24.049 0)">
      <path id="Trazado_802957" data-name="Trazado 802957" d="M88.683,10.984,78.674.975A3.307,3.307,0,0,0,76.32,0H34.179a3.332,3.332,0,0,0-3.328,3.328v32.95h-2.34a4.467,4.467,0,0,0-4.462,4.462V61.147a4.467,4.467,0,0,0,4.462,4.462H63.656a3.332,3.332,0,0,0,3.328-3.328V46.409a3.332,3.332,0,0,0-3.328-3.328H28.511a2.34,2.34,0,0,1,0-4.681h2.34v1.207a1.061,1.061,0,1,0,2.121,0V3.328a1.208,1.208,0,0,1,1.207-1.207H75.066V12.4a2.2,2.2,0,0,0,2.194,2.195H87.536V69.083A1.208,1.208,0,0,1,86.33,70.29H34.179a1.208,1.208,0,0,1-1.207-1.207,1.061,1.061,0,0,0-2.121,0,3.332,3.332,0,0,0,3.328,3.328H86.33a3.332,3.332,0,0,0,3.328-3.328V13.337A3.306,3.306,0,0,0,88.683,10.984ZM28.511,45.2H63.656a1.208,1.208,0,0,1,1.207,1.207V62.281a1.208,1.208,0,0,1-1.207,1.207H28.511a2.343,2.343,0,0,1-2.34-2.34V44.538A4.433,4.433,0,0,0,28.511,45.2ZM77.187,12.4V2.488l9.983,9.983H77.26A.073.073,0,0,1,77.187,12.4Z" transform="translate(-24.049 0)"/>
      <path id="Trazado_802958" data-name="Trazado 802958" d="M230.132,356.053a1.061,1.061,0,0,0,1.061-1.061v-3.526h2.3a1.061,1.061,0,1,0,0-2.121h-2.3v-2.295h2.588a1.061,1.061,0,1,0,0-2.121h-3.649a1.061,1.061,0,0,0-1.061,1.061v9A1.061,1.061,0,0,0,230.132,356.053Z" transform="translate(-200.075 -296.146)"/>
      <path id="Trazado_802959" data-name="Trazado 802959" d="M155.729,356.257a1.061,1.061,0,0,0,.747.308h0c.075,0,1.852-.007,2.562-.02,2.621-.046,4.524-2.334,4.524-5.442,0-3.267-1.855-5.461-4.615-5.461h-2.493A1.061,1.061,0,0,0,155.4,346.7v.007h0v8.649a1.492,1.492,0,0,0,.331.9Zm3.222-8.493c1.839,0,2.494,1.725,2.494,3.34,0,2.265-1.225,3.3-2.439,3.321-.337.006-.939.011-1.472.014,0-1.041-.01-5.592-.012-6.675Z" transform="translate(-136.822 -296.759)"/>
      <path id="Trazado_802960" data-name="Trazado 802960" d="M89.006,355.883a1.061,1.061,0,0,0,1.061-1.061v-2.885c.527,0,1.125-.006,1.465-.006a3.621,3.621,0,1,0,0-7.24H89.006a1.06,1.06,0,0,0-1.061,1.061h0v9.07a1.061,1.061,0,0,0,1.061,1.061Zm2.525-9.07a1.5,1.5,0,1,1,0,3c-.337,0-.928,0-1.453.005,0-.542-.007-2.436-.009-3h1.462Z" transform="translate(-78.908 -295.943)"/>
      <path id="Trazado_802961" data-name="Trazado 802961" d="M188.739,101.3c-2.607.823-5.283,1.962-6.71,3.435a2.961,2.961,0,0,0-.586,3.869,2.531,2.531,0,0,0,2.143,1.285,2.821,2.821,0,0,0,1.008-.2c1.246-.477,2.592-1.832,4.115-4.145.492-.747.989-1.576,1.485-2.474q.27-.08.552-.158a52.91,52.91,0,0,1,9.352-1.7c1.812,1.752,3.685,3.117,5.281,3.489a2.961,2.961,0,0,0,3.724-2.149,2.2,2.2,0,0,0-1.073-2.681c-1.049-.633-2.872-.939-5.418-.91-.542.006-1.114.028-1.71.065a42.362,42.362,0,0,1-5.831-7.7q.109-.377.208-.743a16.153,16.153,0,0,0,.769-6.119c-.311-1.981-1.589-2.262-2.124-2.291a2.831,2.831,0,0,0-3.283,2.459c-.186,1.3.252,3.092,1.3,5.322.249.53.529,1.076.836,1.634q-.172.551-.373,1.147A60.946,60.946,0,0,1,188.739,101.3Zm-5.094,6.462c-.076.009-.2.025-.421-.311a.653.653,0,0,1-.036-.763c.354-.66,1.563-1.587,3.9-2.543C185.458,106.679,184.238,107.69,183.645,107.764Zm23.461-5.939a.379.379,0,0,1-.018.072c-.265.808-.621.885-1.226.743a7.67,7.67,0,0,1-2.725-1.554C205.972,101.109,206.961,101.62,207.106,101.825ZM192.742,84.933c.043-.3.092-.644.9-.644q.076,0,.162,0c.242.294.366,1.6-.193,4.2A7.577,7.577,0,0,1,192.742,84.933Zm1.477,9.052c.466.715.966,1.438,1.5,2.159.761,1.034,1.622,2.108,2.531,3.133-1.052.127-2.138.291-3.224.488-.735.133-2.016.385-3.516.759q.5-1.035.982-2.14C193.127,96.924,193.714,95.429,194.219,93.985Z" transform="translate(-158.77 -70.546)"/>
    </g>
  </g>
</svg>
