<svg xmlns="http://www.w3.org/2000/svg" width="175.897" height="72.75" viewBox="0 0 175.897 72.75">
  <g id="Grupo_1065508" data-name="Grupo 1065508" transform="translate(-248.391 -2284.25)">
    <path id="Trazado_828866" data-name="Trazado 828866" d="M9.094,17.094,7.469,27.031l-.062,1.141q0,1.984,1.781,2.031A3.636,3.636,0,0,0,12.219,28.8l2.078-11.7h5.125L16.5,34H11.875l.094-.844a5.429,5.429,0,0,1-3.312,1.188,4.91,4.91,0,0,1-2.3-.578L5.047,40.5H-.109L3.953,17.094Zm35.984,5.625H30.609V18.656H45.078Zm0,6.859H30.609V25.516H45.078Z" transform="translate(248.5 2296)" fill="#12263f"/>
    <path id="Trazado_828870" data-name="Trazado 828870" d="M10.219,32.031A13.164,13.164,0,0,1,9.258,33.4a5.829,5.829,0,0,1-.992.977,3.716,3.716,0,0,1-1.086.578,3.9,3.9,0,0,1-1.227.188,4.793,4.793,0,0,1-.664-.039,4.658,4.658,0,0,1-.461-.086,2.188,2.188,0,0,1-.375-.141V32.609a1.177,1.177,0,0,0,.281.141,1.6,1.6,0,0,0,.344.1,2.5,2.5,0,0,0,.469.039,1.575,1.575,0,0,0,.664-.133,2.138,2.138,0,0,0,.586-.422,5.324,5.324,0,0,0,.625-.758q.328-.469.766-1.125l4.469-6.719L5.75,12.594H8.969l4.578,7.875a15.8,15.8,0,0,1,.8,1.563h.063a17.252,17.252,0,0,1,.875-1.625l2.953-4.828a15.019,15.019,0,0,1,.945-1.367,5.462,5.462,0,0,1,.961-.969,3.815,3.815,0,0,1,1.055-.578,3.623,3.623,0,0,1,1.211-.2,4.038,4.038,0,0,1,.656.047q.281.047.469.094a3.934,3.934,0,0,1,.375.125V15a1.177,1.177,0,0,0-.281-.141q-.141-.047-.344-.094a2.1,2.1,0,0,0-.469-.047,1.629,1.629,0,0,0-.672.133,2.091,2.091,0,0,0-.594.422,5.918,5.918,0,0,0-.633.75q-.336.461-.758,1.133L16.016,23.7,23.156,35h-3.2L14.8,26.422a7.693,7.693,0,0,1-.516-1.109h-.062a6.632,6.632,0,0,1-.531,1.078Z" transform="translate(390 2290)" fill="#12263f"/>
    <path id="Trazado_828867" data-name="Trazado 828867" d="M13.882,35.217-.386,53.953H24.575V57h-29.5V54.3L10.132,34.748-4.927,17.039v-2.7h27.92v3.047H-.122l14,16.771Z" transform="translate(360 2279)" fill="#12263f"/>
    <path id="Trazado_828865" data-name="Trazado 828865" d="M13.8,30H8.516V13.188L3.328,14.7v-4L13.313,7.25H13.8Z" transform="translate(314.5 2277)" fill="#12263f"/>
    <path id="Trazado_828868" data-name="Trazado 828868" d="M7.9,17.078l-.375,1.984a6.451,6.451,0,0,1,5.016-2.281,4.087,4.087,0,0,1,3.516,1.7,6.767,6.767,0,0,1,.844,4.6L15.07,34h-3.7l1.844-10.969a5.613,5.613,0,0,0,.016-1.25,1.992,1.992,0,0,0-2.219-1.906,4.5,4.5,0,0,0-3.7,2.078L5.2,34h-3.7L4.414,17.094Z" transform="translate(314.5 2315)" fill="#12263f"/>
    <path id="Trazado_828869" data-name="Trazado 828869" d="M.6,0H-2.943l2.02-11.623H2.621ZM-.612-14.556a1.639,1.639,0,0,1,.553-1.311,1.986,1.986,0,0,1,1.391-.526,2.051,2.051,0,0,1,1.38.473,1.611,1.611,0,0,1,.575,1.235,1.642,1.642,0,0,1-.548,1.316,1.993,1.993,0,0,1-1.4.521,2.076,2.076,0,0,1-1.37-.467A1.592,1.592,0,0,1-.612-14.556Z" transform="translate(371 2357)" fill="#12263f"/>
    <path id="Trazado_828871" data-name="Trazado 828871" d="M.6,0H-2.943l2.02-11.623H2.621ZM-.612-14.556a1.639,1.639,0,0,1,.553-1.311,1.986,1.986,0,0,1,1.391-.526,2.051,2.051,0,0,1,1.38.473,1.611,1.611,0,0,1,.575,1.235,1.642,1.642,0,0,1-.548,1.316,1.993,1.993,0,0,1-1.4.521,2.076,2.076,0,0,1-1.37-.467A1.592,1.592,0,0,1-.612-14.556Z" transform="translate(421 2323)" fill="#12263f"/>
    <line id="Línea_1731" data-name="Línea 1731" x2="48" transform="translate(302.5 2315)" fill="none" stroke="#12263f" stroke-linecap="round" stroke-width="3"/>
  </g>
</svg>
