<svg xmlns="http://www.w3.org/2000/svg" width="162" height="87" viewBox="0 0 162 87">
  <g id="Grupo_1065975" data-name="Grupo 1065975" transform="translate(-1258 -3978)">
    <rect id="Rectángulo_374263" data-name="Rectángulo 374263" width="162" height="50" transform="translate(1258 4015)" fill="#f7cd00"/>
    <g id="g3874" transform="translate(1294.3 3969.1)">
      <g id="g3836" transform="translate(27.316 62.872)">
        <rect id="rect3832" width="0.782" height="11.034" transform="matrix(0.778, -0.628, 0.628, 0.778, 0.579, 1.07)" fill="#12698a"/>
        <rect id="rect3834" width="1.606" height="11.858" transform="matrix(0.778, -0.628, 0.628, 0.778, 0, 1.008)" fill="#12698b"/>
      </g>
      <g id="g3844" transform="translate(59.371 23.328)">
        <path id="path3838" d="M133.825,56.648a6.782,6.782,0,1,1,9.223-2.635A6.8,6.8,0,0,1,133.825,56.648Zm6.011-10.828a5.6,5.6,0,1,0,2.182,7.617,5.6,5.6,0,0,0-2.182-7.617Z" transform="translate(-130.343 -43.943)" fill="#504a4e"/>
        <path id="path3840" d="M142.94,50.175a7.944,7.944,0,0,0-6.34,2.594A5.082,5.082,0,0,1,142.94,50.175Z" transform="translate(-134.023 -47.434)" fill="#12698a"/>
        <path id="path3842" d="M145.435,53.59a5.839,5.839,0,0,0-4.735,1.935A3.839,3.839,0,0,1,145.435,53.59Z" transform="translate(-136.436 -49.49)" fill="#12698a"/>
      </g>
      <g id="g3852" transform="translate(18.84 56.083)">
        <rect id="rect3846" width="14.945" height="1.606" transform="translate(0 20.298)" fill="#12698b"/>
        <rect id="rect3848" width="21.204" height="1.606" transform="translate(26.885 20.298)" fill="#12698b"/>
        <path id="polygon3850" d="M87.852,123.5,79.7,138.24l1.359.782,7.411-13.381,5.023,2.8-7.411,13.34,1.359.782,8.193-14.781Z" transform="translate(-60.02 -123.5)" fill="#12698b"/>
      </g>
      <g id="g3862" transform="translate(9.7 55.054)">
        <path id="path3854" d="M14.929,162.1a5.229,5.229,0,1,0,5.229,5.229,5.236,5.236,0,0,0-5.229-5.229Zm0,9.058a3.829,3.829,0,1,1,3.829-3.829A3.848,3.848,0,0,1,14.929,171.158Z" transform="translate(-9.7 -145.178)" fill="#524a4e"/>
        <path id="path3856" d="M151.829,162.1a5.229,5.229,0,1,0,5.229,5.229A5.236,5.236,0,0,0,151.829,162.1Zm0,9.058a3.829,3.829,0,1,1,3.829-3.829A3.848,3.848,0,0,1,151.829,171.158Z" transform="translate(-90.235 -145.178)" fill="#524a4e"/>
        <path id="path3858" d="M40.206,121a5.483,5.483,0,0,0-1.4.206,5.217,5.217,0,0,0,1.4,10.252,5.483,5.483,0,0,0,1.4-.206A5.217,5.217,0,0,0,40.206,121Zm0,9.058a3.813,3.813,0,0,1-1.029-7.493,4.148,4.148,0,0,1,1.029-.124,3.818,3.818,0,0,1,3.335,5.723,3.772,3.772,0,0,1-2.306,1.812A8.022,8.022,0,0,1,40.206,130.058Z" transform="translate(-24.561 -121)" fill="#524a4e"/>
        <path id="path3860" d="M76.852,158.306a7.079,7.079,0,1,0,3.376,4.241A7.063,7.063,0,0,0,76.852,158.306Zm-8.77,7.74a5.338,5.338,0,0,1,.494-4.2,5.539,5.539,0,1,1,4.817,8.234h0a5.522,5.522,0,0,1-2.676-.7A5.744,5.744,0,0,1,68.082,166.046Z" transform="translate(-43.009 -142.413)" fill="#524a4e"/>
      </g>
      <g id="g3870" transform="translate(33.945 8.9)">
        <path id="path3864" d="M103.106,63.371l-13.875-7.7a1.217,1.217,0,0,1-.576-1.318c5.394-20.545,14.163-31.785,20.586-37.59,7.04-6.341,12.763-7.782,12.969-7.823a.97.97,0,0,1,.823.124l1.606.906a1.08,1.08,0,0,1,.535.659c.082.247,1.935,5.846.247,15.151-1.523,8.481-6.382,21.862-20.957,37.384a1.118,1.118,0,0,1-1.359.206Zm-11.94-9.264L103.436,60.9c24.25-26.227,20.463-46.03,19.68-49.077l-.741-.412A33.418,33.418,0,0,0,110.682,18.7C104.63,24.175,96.4,34.756,91.166,54.107Z" transform="translate(-80.374 -8.9)" fill="#12698a"/>
        <path id="path3866" d="M69.21,101.786c-.041,0-.041-.041-.082-.041a1.189,1.189,0,0,1-.535-1.112l.988-9.922v-.082C71.516,79.1,83.332,79.1,83.415,79.1a1.174,1.174,0,1,1-.041,2.347h0c-.412,0-9.881.041-11.528,9.552l-.782,7.576,6.258-3.623a1.172,1.172,0,1,1,1.194,2.017l-8.234,4.776a1,1,0,0,1-1.07.041Z" transform="translate(-68.587 -50.197)" fill="#12698a"/>
        <path id="path3868" d="M123.244,129.1a1.238,1.238,0,0,1-.618-.988L122.3,118.6a1.154,1.154,0,0,1,2.306-.082l.247,7.246,6.011-4.694c7.205-6.423,2.223-14.493,1.976-14.822a1.165,1.165,0,1,1,1.976-1.235c.082.082,6.3,10.087-2.429,17.869l-.041.041-7.864,6.093a1.062,1.062,0,0,1-1.194.124A.04.04,0,0,1,123.244,129.1Z" transform="translate(-100.182 -65.118)" fill="#12698a"/>
      </g>
      <path id="path3872" d="M143.342,48.147a7.108,7.108,0,1,0-.618,5.394A7.212,7.212,0,0,0,143.342,48.147Zm-6.835-3.582a5.538,5.538,0,0,1,5.311,4.035,5.338,5.338,0,0,1-.494,4.2,5.54,5.54,0,0,1-10.17-1.194,5.338,5.338,0,0,1,.494-4.2A5.624,5.624,0,0,1,136.507,44.565Z" transform="translate(-70.442 -20.06)" fill="#524a4e"/>
    </g>
  </g>
</svg>
