<svg xmlns="http://www.w3.org/2000/svg" width="183.836" height="47.5" viewBox="0 0 183.836 47.5">
  <g id="Grupo_1065509" data-name="Grupo 1065509" transform="translate(-701.164 -2294.5)">
    <path id="Trazado_828872" data-name="Trazado 828872" d="M1.164,34,5.1,11.25l6.688.016a8.714,8.714,0,0,1,5.156,1.555,8.36,8.36,0,0,1,3.125,4.242,11.619,11.619,0,0,1,.484,5.094l-.109.953a13.441,13.441,0,0,1-2.031,5.547,11.635,11.635,0,0,1-4.141,3.9A11.284,11.284,0,0,1,8.8,34ZM9.727,15.469l-2.484,14.3,1.563.016a5.328,5.328,0,0,0,4.414-2.125q1.664-2.125,1.977-6.5l.031-.516a6.209,6.209,0,0,0-.781-3.8,3.172,3.172,0,0,0-2.672-1.359ZM53.6,22.719H39.133V18.656H53.6Zm0,6.859H39.133V25.516H53.6Z" transform="translate(700 2298)" fill="#12263f"/>
    <path id="Trazado_828874" data-name="Trazado 828874" d="M10.219,32.031A13.164,13.164,0,0,1,9.258,33.4a5.829,5.829,0,0,1-.992.977,3.716,3.716,0,0,1-1.086.578,3.9,3.9,0,0,1-1.227.188,4.793,4.793,0,0,1-.664-.039,4.658,4.658,0,0,1-.461-.086,2.188,2.188,0,0,1-.375-.141V32.609a1.177,1.177,0,0,0,.281.141,1.6,1.6,0,0,0,.344.1,2.5,2.5,0,0,0,.469.039,1.575,1.575,0,0,0,.664-.133,2.138,2.138,0,0,0,.586-.422,5.324,5.324,0,0,0,.625-.758q.328-.469.766-1.125l4.469-6.719L5.75,12.594H8.969l4.578,7.875a15.8,15.8,0,0,1,.8,1.563h.063a17.252,17.252,0,0,1,.875-1.625l2.953-4.828a15.019,15.019,0,0,1,.945-1.367,5.462,5.462,0,0,1,.961-.969,3.815,3.815,0,0,1,1.055-.578,3.623,3.623,0,0,1,1.211-.2,4.038,4.038,0,0,1,.656.047q.281.047.469.094a3.934,3.934,0,0,1,.375.125V15a1.177,1.177,0,0,0-.281-.141q-.141-.047-.344-.094a2.1,2.1,0,0,0-.469-.047,1.629,1.629,0,0,0-.672.133,2.091,2.091,0,0,0-.594.422,5.918,5.918,0,0,0-.633.75q-.336.461-.758,1.133L16.016,23.7,23.156,35h-3.2L14.8,26.422a7.693,7.693,0,0,1-.516-1.109h-.062a6.632,6.632,0,0,1-.531,1.078Z" transform="translate(776 2293)" fill="#12263f"/>
    <text id="i" transform="translate(724 2334.5)" fill="#12263f" font-size="22" font-family="Roboto-BlackItalic, Roboto" font-weight="800" font-style="italic"><tspan x="-2.986" y="0">i</tspan></text>
    <path id="Trazado_828875" data-name="Trazado 828875" d="M.6,0H-2.943l2.02-11.623H2.621ZM-.612-14.556a1.639,1.639,0,0,1,.553-1.311,1.986,1.986,0,0,1,1.391-.526,2.051,2.051,0,0,1,1.38.473,1.611,1.611,0,0,1,.575,1.235,1.642,1.642,0,0,1-.548,1.316,1.993,1.993,0,0,1-1.4.521,2.076,2.076,0,0,1-1.37-.467A1.592,1.592,0,0,1-.612-14.556Z" transform="translate(807 2326)" fill="#12263f"/>
    <path id="Trazado_828873" data-name="Trazado 828873" d="M0,44.5V0" transform="translate(768.5 2296)" fill="none" stroke="#12263f" stroke-linecap="round" stroke-width="3"/>
    <path id="Trazado_828878" data-name="Trazado 828878" d="M0,44.5V0" transform="translate(883.5 2296)" fill="none" stroke="#12263f" stroke-linecap="round" stroke-width="3"/>
    <path id="Trazado_828877" data-name="Trazado 828877" d="M9.406,17.094,7.781,27.031l-.062,1.141q0,1.984,1.781,2.031A3.636,3.636,0,0,0,12.531,28.8l2.078-11.7h5.125L16.813,34H12.188l.094-.844a5.429,5.429,0,0,1-3.312,1.188,4.91,4.91,0,0,1-2.3-.578L5.359,40.5H.2L4.266,17.094Z" transform="translate(850 2293)" fill="#12263f"/>
    <path id="Trazado_828876" data-name="Trazado 828876" d="M12.57,22.219H3.18V18.156H12.57Z" transform="translate(826 2293)" fill="#12263f"/>
  </g>
</svg>
