<svg xmlns="http://www.w3.org/2000/svg" width="216.135" height="115.367" viewBox="0 0 216.135 115.367">
  <g id="Grupo_1065514" data-name="Grupo 1065514" transform="translate(-1105 -2255.46)">
    <g id="Grupo_1065513" data-name="Grupo 1065513" transform="translate(1105 2255.46)">
      <path id="Trazado_801511" data-name="Trazado 801511" d="M11.635,32.723-.928,49.221H21.05V51.9H-4.927V49.53L8.333,32.31-4.927,16.717V14.344H19.657v2.683H-.7L11.635,31.794Z" transform="translate(72.138 6.405)" fill="#12263f"/>
      <path id="Trazado_801512" data-name="Trazado 801512" d="M7.133,13.042,6.8,14.79a5.681,5.681,0,0,1,4.416-2.009,3.6,3.6,0,0,1,3.1,1.493,5.958,5.958,0,0,1,.743,4.052l-1.61,9.617H10.187l1.623-9.658a4.942,4.942,0,0,0,.014-1.1,1.754,1.754,0,0,0-1.954-1.678,3.963,3.963,0,0,0-3.261,1.83L4.753,27.943H1.492L4.065,13.056Z" transform="translate(71.371 -12.78)" fill="#12263f"/>
      <path id="Trazado_801513" data-name="Trazado 801513" d="M7.133,13.042,6.8,14.79a5.681,5.681,0,0,1,4.416-2.009,3.6,3.6,0,0,1,3.1,1.493,5.958,5.958,0,0,1,.743,4.052l-1.61,9.617H10.187l1.623-9.658a4.942,4.942,0,0,0,.014-1.1,1.754,1.754,0,0,0-1.954-1.678,3.963,3.963,0,0,0-3.261,1.83L4.753,27.943H1.492L4.065,13.056Z" transform="translate(126.205 87.425)" fill="#12263f"/>
      <path id="Trazado_801514" data-name="Trazado 801514" d="M-18.084-1.959h-3.121l1.778-10.234h3.121Zm-1.069-12.817a1.443,1.443,0,0,1,.487-1.154,1.749,1.749,0,0,1,1.225-.463,1.806,1.806,0,0,1,1.215.416,1.418,1.418,0,0,1,.506,1.088A1.446,1.446,0,0,1-16.2-13.73a1.754,1.754,0,0,1-1.23.459,1.828,1.828,0,0,1-1.206-.411A1.4,1.4,0,0,1-19.153-14.775ZM-1.238-8.788H-10v-2.459h8.759Zm0,4.152H-10V-7.095h8.759Zm14.1,2.677h-3.2V-12.136l-3.14.917V-13.64l6.044-2.09h.293Z" transform="translate(82.888 80.96)" fill="#12263f"/>
      <path id="Trazado_801515" data-name="Trazado 801515" d="M16.672,16.667l-3.288.028.55.839a5.684,5.684,0,0,1,.949,3.385,8.2,8.2,0,0,1-2.387,5.4A7.013,7.013,0,0,1,7.3,28.265a5.788,5.788,0,0,1-4.513-1.94,6.9,6.9,0,0,1-1.541-4.967l.041-.633.041-.3a8.248,8.248,0,0,1,2.552-5.3,8.027,8.027,0,0,1,5.524-2.057l.014.041v-.028l7.9.014Zm-10.9,4.906q-.193,3.087,1.844,3.142a2.2,2.2,0,0,0,2.064-1.275,9.32,9.32,0,0,0,.867-4.017l.014-.593q-.069-2.095-1.582-2.191A2.607,2.607,0,0,0,6.5,18.2,7.926,7.926,0,0,0,5.776,21.573Zm39.266-3.53H32.3V14.466h12.74Zm0,6.04H32.3V20.506h12.74Z" transform="translate(-1.242 71.937)" fill="#12263f"/>
      <path id="Trazado_801516" data-name="Trazado 801516" d="M1.921-1.207H-4.02L-3.8-2.6-.685-5.5l.427-.427A2.486,2.486,0,0,0,.663-7.834a.688.688,0,0,0-.722-.716.951.951,0,0,0-.786.376,1.926,1.926,0,0,0-.4,1.014l-1.968.012a3.006,3.006,0,0,1,.5-1.508A3.112,3.112,0,0,1-1.507-9.724,3.44,3.44,0,0,1,.1-10.1a2.847,2.847,0,0,1,1.986.7A2.138,2.138,0,0,1,2.7-7.594a2.961,2.961,0,0,1-.442,1.312A6.763,6.763,0,0,1,1.133-4.939L.218-4.1l-1.36,1.312,3.311.012Z" transform="translate(21.84 88.353)" fill="#12263f"/>
      <path id="Trazado_801518" data-name="Trazado 801518" d="M28.992,23.857a21.025,21.025,0,0,1,.894-6.246,15.074,15.074,0,0,1,2.47-4.9,8.771,8.771,0,0,1,3.5-2.807l.881,2.284a8.97,8.97,0,0,0-2.979,4.423,21.574,21.574,0,0,0-1.066,7.051v.605a22,22,0,0,0,1.052,7.182,8.932,8.932,0,0,0,2.992,4.458l-.881,2.284a8.683,8.683,0,0,1-3.5-2.814,14.846,14.846,0,0,1-2.47-4.877,21.126,21.126,0,0,1-.894-6.026Zm13.717,5.531a11.593,11.593,0,0,1-.846,1.2,5.132,5.132,0,0,1-.874.86,3.272,3.272,0,0,1-.956.509,3.438,3.438,0,0,1-1.08.165,4.22,4.22,0,0,1-.585-.034,4.1,4.1,0,0,1-.406-.076,1.926,1.926,0,0,1-.33-.124V29.9a1.037,1.037,0,0,0,.248.124,1.4,1.4,0,0,0,.3.089,2.2,2.2,0,0,0,.413.034,1.386,1.386,0,0,0,.585-.117,1.883,1.883,0,0,0,.516-.371,4.688,4.688,0,0,0,.55-.667q.289-.413.674-.991l3.935-5.916-6.081-9.81h2.834l4.031,6.934a13.909,13.909,0,0,1,.7,1.376H46.4a15.192,15.192,0,0,1,.77-1.431l2.6-4.251a13.225,13.225,0,0,1,.832-1.2,4.81,4.81,0,0,1,.846-.853,3.36,3.36,0,0,1,.929-.509,3.19,3.19,0,0,1,1.066-.172,3.556,3.556,0,0,1,.578.041q.248.041.413.083a3.465,3.465,0,0,1,.33.11v1.995a1.037,1.037,0,0,0-.248-.124q-.124-.041-.3-.083a1.847,1.847,0,0,0-.413-.041,1.434,1.434,0,0,0-.592.117,1.841,1.841,0,0,0-.523.371,5.211,5.211,0,0,0-.557.66q-.3.406-.667,1l-3.646,5.765L54.1,32H51.28l-4.54-7.553a6.775,6.775,0,0,1-.454-.977h-.055a5.839,5.839,0,0,1-.468.949ZM80.063,25.15H71.794V21.573h8.269Zm23.774-8.035-1.431,8.75-.055,1q0,1.747,1.568,1.789a3.2,3.2,0,0,0,2.669-1.238l1.83-10.3h4.513L110.358,32h-4.072l.083-.743a4.78,4.78,0,0,1-2.917,1.046,4.323,4.323,0,0,1-2.022-.509l-1.156,5.93h-4.54l3.577-20.61Zm18.849,7.127a19.618,19.618,0,0,1-.949,6.136,15.667,15.667,0,0,1-2.621,4.987,8.725,8.725,0,0,1-3.612,2.827l-.881-2.284a9.059,9.059,0,0,0,2.958-4.4,21.252,21.252,0,0,0,1.087-6.838V23.83a22,22,0,0,0-1.052-7.182,8.932,8.932,0,0,0-2.992-4.458l.881-2.284a8.886,8.886,0,0,1,3.584,2.8,15.475,15.475,0,0,1,2.614,4.912,19.452,19.452,0,0,1,.984,6.019Z" transform="translate(75.57 13.539)" fill="#12263f"/>
      <path id="Trazado_801519" data-name="Trazado 801519" d="M1.921-1.207H-4.02L-3.8-2.6-.685-5.5l.427-.427A2.486,2.486,0,0,0,.663-7.834a.688.688,0,0,0-.722-.716.951.951,0,0,0-.786.376,1.926,1.926,0,0,0-.4,1.014l-1.968.012a3.006,3.006,0,0,1,.5-1.508A3.112,3.112,0,0,1-1.507-9.724,3.44,3.44,0,0,1,.1-10.1a2.847,2.847,0,0,1,1.986.7A2.138,2.138,0,0,1,2.7-7.594a2.961,2.961,0,0,1-.442,1.312A6.763,6.763,0,0,1,1.133-4.939L.218-4.1l-1.36,1.312,3.311.012Z" transform="translate(199.265 25.616)" fill="#12263f"/>
      <text id="i" transform="translate(133.387 51.233)" fill="#12263f" font-size="18" font-family="Roboto-BlackItalic, Roboto" font-weight="800" font-style="italic"><tspan x="-2.443" y="0">i</tspan></text>
      <path id="Trazado_801517" data-name="Trazado 801517" d="M0,0H154.532" transform="translate(60.103 90.668)" fill="none" stroke="#12263f" stroke-linecap="round" stroke-width="3"/>
    </g>
  </g>
</svg>
