<svg xmlns="http://www.w3.org/2000/svg" width="40" height="40" viewBox="0 0 40 40">
  <g id="Grupo_1081424" data-name="Grupo 1081424" transform="translate(-830 -9872)">
    <circle id="Elipse_8486" data-name="Elipse 8486" cx="20" cy="20" r="20" transform="translate(830 9872)" fill="#2981b7"/>
    <path id="Trazado_828863" data-name="Trazado 828863" d="M12.5,17H3.57V15.066l4.113-4.324A4.909,4.909,0,0,0,9.2,7.991a1.913,1.913,0,0,0-.36-1.257A1.287,1.287,0,0,0,7.8,6.3a1.3,1.3,0,0,0-1.1.576,2.366,2.366,0,0,0-.422,1.437H3.307A4.2,4.2,0,0,1,3.9,6.141,4.129,4.129,0,0,1,5.53,4.581a4.856,4.856,0,0,1,2.338-.562,4.777,4.777,0,0,1,3.195.958,3.42,3.42,0,0,1,1.121,2.751A4,4,0,0,1,11.9,9.2a6.456,6.456,0,0,1-.875,1.5,22.029,22.029,0,0,1-1.912,2.1L7.464,14.715H12.5Z" transform="translate(842 9881)" fill="#fff"/>
  </g>
</svg>
