<svg xmlns="http://www.w3.org/2000/svg" width="40" height="40" viewBox="0 0 40 40">
  <g id="Grupo_1081425" data-name="Grupo 1081425" transform="translate(-200 -10192)">
    <circle id="Elipse_8488" data-name="Elipse 8488" cx="20" cy="20" r="20" transform="translate(200 10192)" fill="#2981b7"/>
    <path id="Trazado_828864" data-name="Trazado 828864" d="M6.277,9.362h1.4A1.453,1.453,0,0,0,9.336,7.736,1.406,1.406,0,0,0,8.94,6.7a1.5,1.5,0,0,0-1.116-.4A1.606,1.606,0,0,0,6.8,6.646a1.046,1.046,0,0,0-.435.853H3.4a3.032,3.032,0,0,1,.563-1.8,3.715,3.715,0,0,1,1.56-1.235,5.334,5.334,0,0,1,2.193-.444,5.241,5.241,0,0,1,3.357.976A3.243,3.243,0,0,1,12.3,7.675a2.7,2.7,0,0,1-.505,1.56,3.6,3.6,0,0,1-1.472,1.191,3.441,3.441,0,0,1,1.6,1.121,2.951,2.951,0,0,1,.58,1.859,3.3,3.3,0,0,1-1.318,2.742,5.472,5.472,0,0,1-3.463,1.028A5.675,5.675,0,0,1,5.385,16.7a3.656,3.656,0,0,1-1.63-1.327A3.45,3.45,0,0,1,3.2,13.44H6.181a1.334,1.334,0,0,0,.475,1.02,1.676,1.676,0,0,0,1.169.431,1.755,1.755,0,0,0,1.248-.435,1.454,1.454,0,0,0,.466-1.112,1.7,1.7,0,0,0-.483-1.371,2.021,2.021,0,0,0-1.336-.4H6.277Z" transform="translate(212 10201)" fill="#fff"/>
  </g>
</svg>
